<?xml version="1.0" encoding="utf-8"?>
<!-- Generator: Adobe Illustrator 16.0.0, SVG Export Plug-In . SVG Version: 6.00 Build 0)  -->
<!DOCTYPE svg PUBLIC "-//W3C//DTD SVG 1.1//EN" "http://www.w3.org/Graphics/SVG/1.1/DTD/svg11.dtd">
<svg version="1.1" id="圖層_1" xmlns="http://www.w3.org/2000/svg" xmlns:xlink="http://www.w3.org/1999/xlink" x="0px" y="0px"
	 width="89.059px" height="326.309px" viewBox="0 0 89.059 326.309" enable-background="new 0 0 89.059 326.309"
	 xml:space="preserve">
<g>
	<path fill="#2E3F2E" d="M61.525,23.005c0.07-0.469,0.246-0.668,0.527-0.598c0.281,0.047,0.457,0.305,0.527,0.773
		c0.117,1.454,0.093,2.649-0.07,3.586c-0.141,1.078-0.457,2.004-0.949,2.777c-0.586,0.773-1.254,1.218-2.004,1.336
		c-0.329,0.07-0.821,0.07-1.477,0c-1.243-0.211-1.898-0.891-1.969-2.039c-0.141-1.148,0.304-2.004,1.336-2.566
		c1.242-0.304,2.167-0.715,2.777-1.23C60.974,24.388,61.407,23.708,61.525,23.005z M62.58,0.681
		c-0.07-0.515,0.117-0.738,0.563-0.668c2.109,0.258,3.75,0.586,4.922,0.984c0.703,0.234,0.703,0.586,0,1.055
		c-0.094,0.023-0.258,0.094-0.492,0.211c-0.258,0.188-0.387,0.469-0.387,0.844v2.145c0,0.352,0.035,0.54,0.105,0.563
		c0.093,0,0.269-0.188,0.527-0.563c0.281-0.422,0.598-0.855,0.949-1.301c0.258-0.422,0.55-0.645,0.879-0.668
		c0.796,0.422,1.688,1.278,2.672,2.566c0.375,0.352,0.445,0.691,0.211,1.02c-0.118,0.118-0.41,0.176-0.879,0.176h-3.867
		c-0.399,0-0.598,0.176-0.598,0.527v0.914c0,0.375,0.234,0.598,0.703,0.668c1.313,0.188,2.473,0.656,3.48,1.406
		c0.984,0.867,1.359,1.816,1.125,2.848c-0.329,1.148-1.125,1.7-2.391,1.652c-0.422-0.023-0.773-0.211-1.055-0.563
		c-0.281-0.422-0.445-0.891-0.492-1.406c-0.07-0.726-0.329-1.418-0.773-2.074c-0.399-0.469-0.598-0.515-0.598-0.141v3.059
		l0.141,5.133c0.117,0.445-0.047,0.809-0.492,1.09c-0.773,0.375-1.805,0.527-3.094,0.457c-0.821-0.047-1.184-0.457-1.09-1.23
		l0.07-4.957c0.023-0.422-0.129-0.387-0.457,0.105c-1.219,1.735-2.695,3.094-4.43,4.078c-0.516,0.258-0.867,0.293-1.055,0.105
		c-0.188-0.211-0.07-0.563,0.352-1.055c1.406-1.71,2.496-3.563,3.27-5.555c0.539-1.313,0.961-2.824,1.266-4.535
		c0.047-0.352-0.118-0.527-0.492-0.527c-0.891,0-1.793,0.035-2.707,0.105c-0.54,0.047-0.926-0.164-1.16-0.633l-0.07-0.211
		c-0.258-0.539-0.153-0.773,0.316-0.703c0.961,0.094,1.921,0.164,2.883,0.211h1.793c0.398,0,0.598-0.188,0.598-0.563V3.282
		C62.802,2.416,62.72,1.548,62.58,0.681z M64.619,21.563c-0.047-0.492,0.164-0.715,0.633-0.668c1.828,0.211,3.375,0.516,4.641,0.914
		c0.469,0.258,0.715,0.422,0.738,0.492c0,0.305-0.176,0.516-0.527,0.633c-0.352,0.094-0.598,0.246-0.738,0.457
		c-0.023,0.047-0.035,0.258-0.035,0.633v2.848c0.117,0.609,0.445,0.949,0.984,1.02c0.398,0.07,1.066,0.128,2.004,0.176h3.586
		c0.633-0.023,1.348-0.094,2.145-0.211c0.469-0.07,0.82-0.234,1.055-0.492c0.492-0.656,0.867-1.664,1.125-3.023
		c0.093-0.469,0.293-0.703,0.598-0.703c0.328,0,0.492,0.234,0.492,0.703v2.004c-0.023,0.492,0.269,0.902,0.879,1.23
		c1.055,0.796,1.324,1.675,0.809,2.637c-0.375,0.585-0.797,0.972-1.266,1.16c-1.524,0.609-3.598,0.926-6.223,0.949h-4.219
		c-1.805-0.07-3.258-0.223-4.359-0.457c-0.938-0.164-1.605-0.773-2.004-1.828c-0.094-0.305-0.164-0.703-0.211-1.195v-5.59
		L64.619,21.563z M84.095,0.575c0.188-0.117,0.328-0.176,0.422-0.176c0.093,0,0.281,0.059,0.563,0.176
		c0.75,0.399,1.675,1.02,2.777,1.863c0.68,0.586,0.621,1.148-0.176,1.688c-0.445,0.445-0.668,0.856-0.668,1.23v8.859l0.07,4.852
		c0.023,0.375-0.023,0.68-0.141,0.914c-0.258,0.234-0.727,0.41-1.406,0.527c-0.727,0.118-1.441,0.164-2.145,0.141
		c-0.867-0.07-1.219-0.492-1.055-1.266c0-0.515-0.188-0.773-0.563-0.773h-3.832c-0.375,0-0.575,0.188-0.598,0.563
		c-0.094,0.563-0.422,0.879-0.984,0.949c-0.422,0.141-0.926,0.234-1.512,0.281c-0.352,0.023-0.305,0.094,0.141,0.211
		c0.563,0.188,1.031,0.41,1.406,0.668c0.563,0.399,0.914,0.844,1.055,1.336c0.352,1.219,0.164,2.227-0.563,3.023
		c-0.352,0.329-0.821,0.527-1.406,0.598c-0.54,0.094-0.997,0.023-1.371-0.211c-0.445-0.328-0.738-0.785-0.879-1.371l-0.422-1.371
		c-0.164-0.539-0.598-1.148-1.301-1.828c-0.54-0.422-0.773-0.726-0.703-0.914c0.093-0.234,0.363-0.352,0.809-0.352
		c0.188-0.023,0.375-0.023,0.563,0c0.422,0.023,0.574-0.023,0.457-0.141c-0.07-0.141-0.094-0.352-0.07-0.633
		c0.023-1.969,0.07-3.96,0.141-5.977v-9.07c-0.047-1.007-0.105-2.027-0.176-3.059c-0.07-0.469,0.141-0.621,0.633-0.457
		c1.289,0.375,2.566,0.797,3.832,1.266c0.281,0.094,0.609,0.141,0.984,0.141h3.516c0.375,0,0.796-0.199,1.266-0.598L84.095,0.575z
		 M77.978,3.458c-0.399,0-0.598,0.176-0.598,0.527v2.742c0,0.399,0.188,0.598,0.563,0.598h3.832c0.375,0,0.563-0.188,0.563-0.563
		V4.021c0-0.375-0.188-0.563-0.563-0.563H77.978z M77.908,8.521c-0.352,0-0.527,0.199-0.527,0.598v2.566
		c0,0.375,0.188,0.563,0.563,0.563h3.832c0.375,0,0.563-0.188,0.563-0.563V9.118c0-0.398-0.188-0.598-0.563-0.598H77.908z
		 M77.908,13.478c-0.352,0-0.527,0.188-0.527,0.563v2.848c0,0.399,0.188,0.598,0.563,0.598h3.832c0.375,0,0.563-0.188,0.563-0.563
		V14.04c0-0.375-0.188-0.563-0.563-0.563H77.908z M82.232,22.548c0.188-0.211,0.504-0.269,0.949-0.176
		c1.429,0.352,2.813,1.055,4.148,2.109c1.594,1.383,2.004,2.988,1.23,4.816c-0.469,0.773-1.102,1.16-1.898,1.16
		c-0.633,0.047-1.125-0.059-1.477-0.316c-0.54-0.375-0.832-1.055-0.879-2.039c-0.118-1.688-0.68-3.199-1.688-4.535
		C82.197,23.052,82.068,22.712,82.232,22.548z"/>
	<path fill="#2E3F2E" d="M75.376,42.124c0.047-0.539,0.304-0.761,0.773-0.668c1.781,0.305,3.41,0.691,4.887,1.16
		c0.352,0.07,0.645,0.211,0.879,0.422c0.164,0.164,0.188,0.329,0.07,0.492c-0.141,0.234-0.352,0.375-0.633,0.422l-0.809,0.105
		c-0.961,0.61-1.911,1.067-2.848,1.371c-0.375,0.118-0.387,0.176-0.035,0.176h2.566c0.375,0,0.761-0.223,1.16-0.668
		c0.328-0.422,0.68-0.832,1.055-1.23c0.492-0.398,0.949-0.504,1.371-0.316c0.515,0.305,1.429,1.032,2.742,2.18
		c0.445,0.422,0.492,0.797,0.141,1.125c-0.094,0.023-0.375,0.035-0.844,0.035h-2.566c-0.422,0-0.387,0.141,0.105,0.422
		c0.984,0.75,1.758,1.441,2.32,2.074c0.117,0.281,0.082,0.516-0.105,0.703c-0.047,0.047,0.164,0.258,0.633,0.633
		c0.891,0.703,1.617,1.359,2.18,1.969c0.304,0.773,0,1.078-0.914,0.914h-9.387c-0.399,0-0.364,0.164,0.105,0.492
		c2.976,1.875,6.386,2.825,10.23,2.848c0.445,0,0.645,0.141,0.598,0.422c-0.07,0.305-0.188,0.48-0.352,0.527
		c-0.281,0.118-0.563,0.387-0.844,0.809c-0.305,0.61-0.492,1.313-0.563,2.109c-0.211,0.938-0.773,1.219-1.688,0.844
		c-0.914-0.234-2.074-0.773-3.48-1.617c-0.047,0.047-0.094,0.129-0.141,0.246v1.828l0.105,2.32c0.023,0.422,0.093,0.516,0.211,0.281
		c0.141-0.281,0.434-0.304,0.879-0.07c1.429,0.727,2.566,1.359,3.41,1.898c0.773,0.352,1.007,0.727,0.703,1.125
		c-0.047,0.07-0.305,0.094-0.773,0.07c-0.352-0.117-0.68-0.082-0.984,0.105c-1.289,0.563-2.508,0.902-3.656,1.02
		c-0.422,0.07-0.399,0.152,0.07,0.246c2.132,0.375,4.23,0.469,6.293,0.281c0.515-0.07,0.726,0.047,0.633,0.352
		c-0.023,0.352-0.083,0.527-0.176,0.527c-0.211,0.023-0.375,0.117-0.492,0.281c-0.399,0.609-0.68,1.535-0.844,2.777
		c-0.07,0.398-0.27,0.738-0.598,1.02c-0.305,0.141-0.715,0.188-1.23,0.141c-2.672-0.281-5.449-1.359-8.332-3.234
		c-0.867-0.54-1.688-1.16-2.461-1.863c-0.445-0.445-0.633-0.563-0.563-0.352c0.047,0.164-0.164,0.398-0.633,0.703
		c-1.735,1.031-3.539,1.805-5.414,2.32c-1.852,0.539-3.809,0.972-5.871,1.301c-0.352,0.07-0.551,0.211-0.598,0.422
		c0,0.328-0.129,0.585-0.387,0.773c-0.375,0.093-0.621,0-0.738-0.281c-0.492-0.891-1.02-2.508-1.582-4.852
		c-0.118-0.469,0.058-0.668,0.527-0.598c0.82,0.141,1.723,0.223,2.707,0.246c0.398,0.023,0.598-0.153,0.598-0.527v-8.051
		c0-0.375-0.234-0.434-0.703-0.176c-1.43,0.797-3.059,1.441-4.887,1.934c-0.469,0.118-0.773,0.07-0.914-0.141
		s0.047-0.48,0.563-0.809c2.976-2.016,5.437-4.395,7.383-7.137c0.234-0.375,0.164-0.563-0.211-0.563h-2.496
		c-1.008,0.023-2.004,0.094-2.988,0.211c-0.469,0.07-0.797-0.128-0.984-0.598l-0.176-0.352c-0.281-0.515-0.188-0.75,0.281-0.703
		c1.383,0.164,2.93,0.27,4.641,0.316h7.172c0.398,0,0.598-0.188,0.598-0.563v-1.125c0-0.398-0.188-0.598-0.563-0.598h-4.254
		c-1.243,0.047-2.473,0.105-3.691,0.176c-0.469,0.07-0.832-0.128-1.09-0.598c-0.07-0.141-0.129-0.293-0.176-0.457
		c-0.211-0.422-0.047-0.598,0.492-0.527c1.359,0.164,2.742,0.258,4.148,0.281h4.535c0.398,0,0.598-0.188,0.598-0.563v-1.055
		c0-0.375-0.188-0.563-0.563-0.563h-6.574c-0.984,0.023-1.981,0.094-2.988,0.211c-0.563,0.07-0.961-0.128-1.195-0.598l-0.176-0.387
		c-0.234-0.469-0.118-0.68,0.352-0.633c1.64,0.164,3.305,0.258,4.992,0.281h1.828c0.375,0,0.434-0.223,0.176-0.668
		c-0.258-0.961-0.809-1.734-1.652-2.32c-0.54-0.281-0.773-0.515-0.703-0.703c0.07-0.258,0.328-0.398,0.773-0.422
		c1.781-0.023,3.34,0.176,4.676,0.598c1.383,0.54,1.886,1.512,1.512,2.918c-0.258,0.399-0.223,0.598,0.105,0.598h3.164
		c0.375,0,0.656-0.223,0.844-0.668C74.942,44.069,75.188,43.131,75.376,42.124z M69.927,54.639
		c-0.164-0.047-0.434,0.141-0.809,0.563c-0.656,0.727-1.348,1.383-2.074,1.969c-0.399,0.329-0.399,0.563,0,0.703
		c0.375,0.211,0.75,0.281,1.125,0.211h3.27c0.375,0,0.434-0.234,0.176-0.703c-0.164-0.796-0.434-1.488-0.809-2.074
		C70.525,54.909,70.231,54.687,69.927,54.639z M67.994,65.538c-0.375,0-0.563,0.188-0.563,0.563v2.25
		c0,0.375,0.188,0.563,0.563,0.563c1.898-0.023,3.679-0.164,5.344-0.422c0.375-0.047,0.398-0.258,0.07-0.633
		c-0.469-0.539-0.856-1.09-1.16-1.652c-0.258-0.445-0.575-0.668-0.949-0.668H67.994z M68.029,59.28
		c-0.375,0-0.563,0.176-0.563,0.527v0.668c0,0.375,0.188,0.563,0.563,0.563h8.824c0.398,0,0.598-0.188,0.598-0.563v-0.633
		c0-0.375-0.188-0.563-0.563-0.563H68.029z M68.029,62.233c-0.375,0-0.563,0.188-0.563,0.563v0.984c0,0.375,0.188,0.563,0.563,0.563
		h8.824c0.398,0,0.598-0.188,0.598-0.563v-0.984c0-0.375-0.188-0.563-0.563-0.563H68.029z M71.052,53.444
		c-0.329,0-0.54,0.059-0.633,0.176c-0.118,0.141,0.023,0.211,0.422,0.211c1.125,0,2.132,0.118,3.023,0.352
		c1.266,0.329,1.934,1.032,2.004,2.109c0.023,0.422-0.083,0.832-0.316,1.23c-0.352,0.375-0.34,0.563,0.035,0.563h1.16
		c0.375,0.094,0.785-0.023,1.23-0.352c0.469-0.234,0.492-0.585,0.07-1.055c-0.844-0.961-1.477-1.828-1.898-2.602
		c-0.211-0.422-0.492-0.633-0.844-0.633H71.052z M74.181,65.538c-0.375,0-0.375,0.129,0,0.387c1.453,0.938,2.883,1.641,4.289,2.109
		c0.375,0.118,0.796,0.012,1.266-0.316c0.352-0.304,0.703-0.633,1.055-0.984c0.375-0.422,0.328-0.585-0.141-0.492
		c-0.727,0.164-1.641,0.176-2.742,0.035c-0.305-0.164-0.469-0.339-0.492-0.527c-0.047-0.141-0.258-0.211-0.633-0.211H74.181z
		 M75.447,46.729c-0.375,0-0.563,0.188-0.563,0.563v1.02c0,0.399,0.188,0.598,0.563,0.598h3.867c0.375,0,0.738-0.199,1.09-0.598
		c0.328-0.352,0.668-0.703,1.02-1.055s0.352-0.527,0-0.527H75.447z M75.447,50.034c-0.375,0-0.563,0.188-0.563,0.563v1.125
		c0,0.399,0.188,0.598,0.563,0.598h6.398c0.375,0,0.761-0.234,1.16-0.703c0.258-0.328,0.563-0.656,0.914-0.984
		c0.375-0.398,0.375-0.598,0-0.598H75.447z"/>
	<path fill="#2E3F2E" d="M65.708,83.604c0.211-0.539,0.539-0.75,0.984-0.633c2.016,0.633,3.598,1.195,4.746,1.688
		c0.469,0.305,0.703,0.516,0.703,0.633c-0.118,0.399-0.54,0.61-1.266,0.633c-0.305-0.047-0.575,0.07-0.809,0.352
		c-0.352,0.375-0.34,0.563,0.035,0.563h3.551c0.375,0,0.68-0.07,0.914-0.211c0.703-0.515,1.394-0.996,2.074-1.441
		c0.281-0.141,0.515-0.199,0.703-0.176c0.375,0.118,0.844,0.375,1.406,0.773c0.796,0.563,1.488,1.113,2.074,1.652
		c0.585,0.445,0.55,0.891-0.105,1.336c-0.352,0.188-0.703,0.34-1.055,0.457c-0.305,0.141-0.516,0.281-0.633,0.422
		c-0.961,1.641-2.122,3.129-3.48,4.465c-0.399,0.375-0.422,0.621-0.07,0.738c1.617,0.492,2.965,0.973,4.043,1.441
		c0.234,0.164,0.316,0.364,0.246,0.598c-0.094,0.305-0.329,0.469-0.703,0.492c-0.68,0.07-1.137,0.234-1.371,0.492
		c-0.234,0.234-0.153,0.352,0.246,0.352h2.848c0.375,0,0.68-0.07,0.914-0.211c0.703-0.445,1.394-0.867,2.074-1.266
		c0.375-0.258,0.726-0.304,1.055-0.141c1.477,0.891,2.648,1.77,3.516,2.637c0.281,0.352,0.199,0.68-0.246,0.984
		c-0.234,0.188-0.469,0.316-0.703,0.387c-0.445,0.188-0.738,0.445-0.879,0.773c-1.547,3.258-3.809,6.047-6.785,8.367
		c-2.414,1.828-5.203,3.257-8.367,4.289c-3.422,1.125-7.066,1.71-10.934,1.758c-0.469,0-0.738-0.118-0.809-0.352
		c-0.047-0.281,0.141-0.469,0.563-0.563c3.938-0.821,7.641-2.227,11.109-4.219c0.726-0.422,1.441-0.891,2.145-1.406
		c0.352-0.234,0.258-0.339-0.281-0.316c-1.125,0.047-1.805-0.504-2.039-1.652c-0.023-0.398,0.07-0.914,0.281-1.547
		c0.141-0.585,0.152-1.324,0.035-2.215c-0.047-0.093-0.281,0-0.703,0.281c-2.461,1.524-5.133,2.707-8.016,3.551
		c-0.54,0.141-0.879,0.118-1.02-0.07c-0.188-0.234-0.07-0.492,0.352-0.773c3.352-2.086,6.562-5.004,9.633-8.754
		c0.328-0.422,0.304-0.492-0.07-0.211c-3.117,2.391-6.773,3.973-10.969,4.746c-0.914,0.188-1.898,0.34-2.953,0.457
		c-0.469,0.047-0.75-0.07-0.844-0.352c-0.141-0.258,0.058-0.457,0.598-0.598c2.93-0.867,5.824-2.402,8.684-4.605
		c0.375-0.304,0.328-0.457-0.141-0.457c-0.938,0.047-1.535-0.352-1.793-1.195c-0.164-0.585-0.07-1.359,0.281-2.32
		c0.141-0.469,0.188-0.949,0.141-1.441c-0.07-0.422-0.293-0.515-0.668-0.281c-1.711,1.148-3.621,2.063-5.73,2.742
		c-0.445,0.164-0.762,0.118-0.949-0.141c-0.141-0.234,0.023-0.504,0.492-0.809c2.25-1.71,4.136-3.668,5.66-5.871
		C64.29,86.289,65.052,85.011,65.708,83.604z M68.908,88.069c-0.352,0-0.727,0.176-1.125,0.527
		c-0.492,0.469-1.008,0.902-1.547,1.301c-0.422,0.329-0.434,0.54-0.035,0.633c0.398,0.141,0.809,0.329,1.23,0.563
		c1.148,0.75,1.699,1.781,1.652,3.094c-0.047,0.375,0.164,0.34,0.633-0.105c1.781-1.781,3.152-3.586,4.113-5.414
		c0.211-0.398,0.141-0.598-0.211-0.598H68.908z M76.712,99.495c-0.375,0-0.738,0.176-1.09,0.527
		c-0.797,0.75-1.582,1.418-2.355,2.004c-0.469,0.352-0.516,0.575-0.141,0.668c2.156,0.703,3.176,2.004,3.059,3.902
		c-0.07,0.399,0.082,0.422,0.457,0.07c2.086-1.992,3.609-4.184,4.57-6.574c0.117-0.398-0.012-0.598-0.387-0.598H76.712z"/>
	<path fill="#2E3F2E" d="M69.576,124.917c-0.047-0.469,0.164-0.668,0.633-0.598c1.921,0.211,3.633,0.516,5.133,0.914
		c0.469,0.211,0.703,0.387,0.703,0.527c0.023,0.281-0.211,0.516-0.703,0.703c-0.469,0.305-0.703,0.691-0.703,1.16
		c-0.023,0.75-0.094,1.547-0.211,2.391c-0.023,0.375,0.152,0.563,0.527,0.563h6.012c0.352,0,0.761-0.199,1.23-0.598
		c0.445-0.352,0.891-0.668,1.336-0.949c0.469-0.211,0.961-0.199,1.477,0.035c1.266,0.68,2.18,1.348,2.742,2.004
		c0.304,0.469,0.105,0.902-0.598,1.301c-0.399,0.329-0.575,0.738-0.527,1.23v5.59l0.07,14.063c-0.118,1.078-0.703,1.945-1.758,2.602
		c-1.219,0.703-2.438,1.137-3.656,1.301c-0.399-0.094-0.656-0.434-0.773-1.02c-0.118-0.867-0.364-1.57-0.738-2.109
		c-0.445-0.633-1.324-1.078-2.637-1.336c-0.445-0.094-0.668-0.328-0.668-0.703c0.023-0.305,0.316-0.445,0.879-0.422
		c0.539,0.023,1.09,0.07,1.652,0.141h2.074c0.796,0,1.113-0.352,0.949-1.055v-18.316c0-0.398-0.176-0.598-0.527-0.598h-6.645
		c-0.375,0-0.633,0.234-0.773,0.703c-0.094,0.375-0.223,0.75-0.387,1.125c-0.164,0.352-0.035,0.551,0.387,0.598
		c1.921,0.211,3.727,0.773,5.414,1.688c2.297,1.454,3.035,3.199,2.215,5.238c-0.54,0.844-1.301,1.207-2.285,1.09
		c-0.891-0.234-1.605-0.867-2.145-1.898c-0.891-1.875-2.203-3.468-3.938-4.781c-0.352-0.188-0.645-0.093-0.879,0.281
		c-0.352,0.586-0.821,1.184-1.406,1.793c-0.445,0.469-0.445,0.751,0,0.844c0.937,0.141,1.875,0.294,2.813,0.457
		c0.469,0.07,0.926,0.199,1.371,0.387c0.633,0.188,0.879,0.457,0.738,0.809c-0.118,0.281-0.434,0.469-0.949,0.563
		c-0.352,0.141-0.586,0.41-0.703,0.809c-0.047,0.211-0.118,0.434-0.211,0.668c-0.164,0.375-0.012,0.609,0.457,0.703
		c2.156,0.422,3.996,1.383,5.52,2.883c0.796,0.938,1.148,1.91,1.055,2.918c-0.118,1.195-0.715,1.957-1.793,2.285
		c-0.445,0.141-0.938,0.152-1.477,0.035c-0.492-0.094-0.938-0.422-1.336-0.984c-0.234-0.375-0.399-0.844-0.492-1.406
		c-0.188-1.57-0.856-2.977-2.004-4.219c-0.399-0.328-0.715-0.281-0.949,0.141c-0.445,0.844-1.09,1.758-1.934,2.742
		c-1.969,2.016-4.196,3.598-6.68,4.746c-0.469,0.211-0.797,0.199-0.984-0.035c-0.188-0.234-0.023-0.598,0.492-1.09
		c1.594-1.5,2.953-3.492,4.078-5.977c0.75-1.523,1.289-3.328,1.617-5.414c0.023-0.398-0.176-0.444-0.598-0.141
		c-1.359,1.078-3.094,2.051-5.203,2.918c-0.54,0.211-0.891,0.246-1.055,0.105c-0.188-0.188-0.281-0.094-0.281,0.281v8.965
		l0.07,4.184c0.093,0.773-0.305,1.219-1.195,1.336c-0.75,0.188-1.676,0.246-2.777,0.176c-0.797-0.07-1.102-0.527-0.914-1.371
		c0-1.617,0.035-3.246,0.105-4.887v-17.402c-0.023-1.359-0.118-2.695-0.281-4.008c-0.07-0.445,0.164-0.585,0.703-0.422
		c1.055,0.305,2.496,0.773,4.324,1.406h6.398c0.375,0,0.585-0.234,0.633-0.703C69.704,127.789,69.693,126.136,69.576,124.917z
		 M63.107,131.773c-0.375,0-0.563,0.188-0.563,0.563v8.965c0,0.375,0.234,0.375,0.703,0c1.57-1.313,2.871-2.789,3.902-4.43
		c1.125-1.758,1.828-3.27,2.109-4.535c0.047-0.375-0.105-0.563-0.457-0.563H63.107z"/>
	<path fill="#2E3F2E" d="M72.705,168.834c0-0.469,0.223-0.703,0.668-0.703h0.457c0.445,0,0.668,0.234,0.668,0.703v30.551
		c0,0.469-0.223,0.703-0.668,0.703h-0.422c-0.469,0-0.703-0.234-0.703-0.703V168.834z"/>
	<path fill="#2E3F2E" d="M72.705,188.634c0-0.469,0.223-0.703,0.668-0.703h0.457c0.445,0,0.668,0.234,0.668,0.703v30.551
		c0,0.469-0.223,0.703-0.668,0.703h-0.422c-0.469,0-0.703-0.234-0.703-0.703V188.634z"/>
	<path fill="#2E3F2E" d="M72.705,208.434c0-0.469,0.223-0.703,0.668-0.703h0.457c0.445,0,0.668,0.234,0.668,0.703v30.551
		c0,0.469-0.223,0.703-0.668,0.703h-0.422c-0.469,0-0.703-0.234-0.703-0.703V208.434z"/>
	<path fill="#2E3F2E" d="M28.13,26.966c0.492-0.445,0.949-0.585,1.371-0.422c1.125,0.844,2.203,1.863,3.234,3.059
		c0.304,0.329,0.339,0.645,0.105,0.949c-0.047,0.07-0.305,0.105-0.773,0.105H20.326c-0.375,0-0.563,0.188-0.563,0.563v3.586
		c0,0.399,0.188,0.598,0.563,0.598h2.707c0.375,0,0.726-0.234,1.055-0.703c0.539-0.726,1.09-1.429,1.652-2.109
		c0.234-0.258,0.469-0.363,0.703-0.316c0.492,0.258,0.961,0.598,1.406,1.02c0.68,0.61,1.383,1.289,2.109,2.039
		c0.422,0.352,0.515,0.691,0.281,1.02c-0.094,0.094-0.375,0.141-0.844,0.141h-9.07c-0.375,0-0.563,0.188-0.563,0.563v3.199
		c0,0.375,0.234,0.598,0.703,0.668l2.074,0.176h3.516c2.367-0.047,4.477-0.223,6.328-0.527c0.469-0.093,0.715-0.012,0.738,0.246
		c0,0.304-0.223,0.609-0.668,0.914c-0.422,0.469-0.656,1.172-0.703,2.109v1.336c-0.141,0.539-0.445,0.82-0.914,0.844h-2.145
		c-4.945-0.047-8.93-0.598-11.953-1.652c-2.836-0.961-5.075-2.895-6.715-5.801c-0.211-0.398-0.399-0.363-0.563,0.105
		c-0.234,0.422-0.469,0.879-0.703,1.371c-1.641,3.07-4.125,5.156-7.453,6.258c-0.492,0.141-0.797,0.117-0.914-0.07
		c-0.141-0.211,0.058-0.54,0.598-0.984c0.914-0.797,1.71-1.793,2.391-2.988c1.406-2.765,2.051-5.929,1.934-9.492
		c-0.023-0.492,0.188-0.691,0.633-0.598c2.438,0.399,4.277,0.856,5.52,1.371c0.281,0.094,0.398,0.234,0.352,0.422
		c-0.047,0.352-0.281,0.563-0.703,0.633c-0.352,0.211-0.563,0.516-0.633,0.914l-0.141,0.633c-0.07,0.352,0.082,0.727,0.457,1.125
		c1.102,1.008,2.25,1.77,3.445,2.285c0.352,0.164,0.527,0.059,0.527-0.316v-8.051c0-0.375-0.176-0.563-0.527-0.563h-9
		c-1.078,0.047-2.168,0.118-3.27,0.211c-0.563,0.023-0.973-0.199-1.23-0.668l-0.176-0.352c-0.234-0.492-0.129-0.703,0.316-0.633
		c1.195,0.164,3.34,0.258,6.434,0.281h15.926l2.355,0.035c0.375,0,0.726-0.234,1.055-0.703
		C27.123,28.185,27.615,27.576,28.13,26.966z M24.333,13.853c0.281-0.304,0.621-0.363,1.02-0.176c0.984,0.54,1.91,1.16,2.777,1.863
		c0.609,0.445,0.914,0.821,0.914,1.125c0.023,0.211-0.047,0.399-0.211,0.563l-1.055,0.844c-0.141,0.164-0.211,0.434-0.211,0.809
		v2.707l0.141,4.289c0.07,0.586,0.035,0.997-0.105,1.23c-0.188,0.234-0.527,0.434-1.02,0.598c-0.984,0.234-2.109,0.234-3.375,0
		c-0.445-0.117-0.621-0.398-0.527-0.844c0-0.375-0.188-0.563-0.563-0.563H10.763c-0.399,0-0.598,0.234-0.598,0.703
		c0.07,0.516-0.246,0.879-0.949,1.09c-0.891,0.281-1.911,0.352-3.059,0.211c-0.773-0.117-1.09-0.515-0.949-1.195l0.176-3.797v-4.852
		c-0.047-1.031-0.141-2.156-0.281-3.375c-0.047-0.469,0.164-0.656,0.633-0.563c1.851,0.399,3.41,0.773,4.676,1.125h11.461
		c0.352,0,0.715-0.188,1.09-0.563C23.548,14.521,24.005,14.111,24.333,13.853z M10.833,16.911c-0.375,0-0.563,0.176-0.563,0.527
		v2.285c0,0.399,0.188,0.598,0.563,0.598h11.32c0.375,0,0.563-0.188,0.563-0.563v-2.285c0-0.375-0.188-0.563-0.563-0.563H10.833z
		 M10.869,21.446c-0.399,0-0.598,0.188-0.598,0.563v2.531c0,0.375,0.188,0.563,0.563,0.563h11.32c0.375,0,0.563-0.176,0.563-0.527
		v-2.531c0-0.398-0.188-0.598-0.563-0.598H10.869z"/>
	<path fill="#2E3F2E" d="M28.06,55.162c0.258-0.188,0.668-0.07,1.23,0.352c1.172,0.938,2.238,1.911,3.199,2.918
		c0.469,0.422,0.539,0.832,0.211,1.23c-0.141,0.094-0.434,0.141-0.879,0.141h-9.563c-0.375,0-0.656,0.234-0.844,0.703
		c-0.586,1.266-1.313,2.543-2.18,3.832c-0.305,0.422-0.258,0.691,0.141,0.809c0.492,0.141,0.785,0.41,0.879,0.809
		c-0.023,0.281-0.199,0.516-0.527,0.703c-0.422,0.329-0.633,0.68-0.633,1.055v13.008l0.105,5.379c0.164,0.82-0.223,1.336-1.16,1.547
		c-0.914,0.211-1.922,0.281-3.023,0.211c-0.469-0.047-0.832-0.27-1.09-0.668c-0.047-0.118-0.07-0.41-0.07-0.879
		c0.023-2.039,0.07-4.113,0.141-6.223v-9.105c0-0.375-0.199-0.375-0.598,0c-3.75,3.539-7.77,5.977-12.059,7.313
		c-0.516,0.164-0.856,0.129-1.02-0.105c-0.211-0.281-0.094-0.598,0.352-0.949c6.82-4.875,11.73-10.477,14.73-16.805
		c0.188-0.422,0.105-0.633-0.246-0.633H5.49c-1.008,0.047-1.898,0.118-2.672,0.211c-0.563,0.047-0.914-0.164-1.055-0.633
		l-0.211-0.563c-0.211-0.515-0.083-0.726,0.387-0.633c1.547,0.188,3.984,0.293,7.313,0.316h15.188
		c0.469,0.023,0.879-0.199,1.23-0.668l1.125-1.406C27.169,55.936,27.591,55.514,28.06,55.162z M20.501,66.975
		c0.117-0.281,0.398-0.363,0.844-0.246c2.953,0.797,5.73,2.074,8.332,3.832c2.18,1.547,3.281,3.41,3.305,5.59
		c0.07,1.148-0.41,2.004-1.441,2.566c-2.18,0.867-3.668-0.035-4.465-2.707c-0.492-1.64-1.125-3.035-1.898-4.184
		c-1.313-1.898-2.73-3.246-4.254-4.043C20.478,67.525,20.337,67.256,20.501,66.975z"/>
	<path fill="#2E3F2E" d="M25.458,96.397c0.164-0.164,0.445-0.176,0.844-0.035c0.914,0.516,1.957,1.278,3.129,2.285
		c0.398,0.352,0.457,0.668,0.176,0.949c-0.094,0.094-0.352,0.141-0.773,0.141h-9.457c-0.399,0-0.598,0.176-0.598,0.527v1.02
		c0,0.375,0.188,0.563,0.563,0.563h6.82c0.375,0,0.796-0.223,1.266-0.668c0.398-0.398,0.809-0.75,1.23-1.055
		c0.445-0.375,0.902-0.328,1.371,0.141c1.664,1.266,2.66,2.344,2.988,3.234c0.047,0.211-0.094,0.399-0.422,0.563
		c-0.234,0.07-0.656,0.105-1.266,0.105c-0.234-0.047-0.575,0.047-1.02,0.281l-1.582,0.563c-0.445,0.118-0.492,0.364-0.141,0.738
		c0.398,0.797,0.105,1.137-0.879,1.02h-4.922c-0.68,0.023-1.359,0.07-2.039,0.141c-0.445,0.047-0.797-0.164-1.055-0.633
		l-0.141-0.281c-0.258-0.469-0.153-0.668,0.316-0.598c1.031,0.118,2.086,0.176,3.164,0.176c0.375,0,0.726-0.234,1.055-0.703
		l0.879-1.055c0.375-0.352,0.761-0.434,1.16-0.246c0.375,0.258,0.574,0.234,0.598-0.07c0.023-0.304-0.153-0.457-0.527-0.457h-6.855
		c-0.399,0-0.598,0.188-0.598,0.563v2.988l0.176,4.605c0.093,0.492-0.199,0.867-0.879,1.125c-1.43,0.305-2.602,0.352-3.516,0.141
		c-0.492-0.188-0.715-0.563-0.668-1.125v-0.527c0.023-0.375,0-0.515-0.07-0.422c-0.118,0.094-0.234,0.164-0.352,0.211l-1.793,0.035
		H7.283c-0.75,0.023-1.489,0.07-2.215,0.141c-0.54,0.07-0.926-0.117-1.16-0.563l-0.141-0.316c-0.258-0.445-0.164-0.656,0.281-0.633
		c1.218,0.141,2.578,0.211,4.078,0.211c0.375,0,0.738-0.234,1.09-0.703c0.234-0.352,0.504-0.703,0.809-1.055
		c0.515-0.422,0.996-0.515,1.441-0.281c0.539,0.399,1.218,1.067,2.039,2.004c0.258,0.399,0.398,0.364,0.422-0.105l0.07-2.285v-3.445
		c0-0.375-0.188-0.563-0.563-0.563H6.404c-0.375,0-0.551,0.234-0.527,0.703v1.195c-0.023,0.469,0.152,0.703,0.527,0.703h1.688
		c0.375,0,0.738-0.234,1.09-0.703c0.258-0.328,0.55-0.668,0.879-1.02c0.375-0.375,0.773-0.457,1.195-0.246
		c1.266,0.984,2.086,1.852,2.461,2.602c0.07,0.164,0.023,0.305-0.141,0.422c-0.188,0.141-0.504,0.188-0.949,0.141H6.087
		c-0.352,0-0.68,0.223-0.984,0.668c-0.773,0.821-1.84,1.113-3.199,0.879c-1.336-0.304-1.969-1.078-1.898-2.32
		c0-0.726,0.434-1.383,1.301-1.969c1.64-0.726,2.519-1.886,2.637-3.48c0-0.469,0.152-0.715,0.457-0.738
		c0.281,0,0.539,0.223,0.773,0.668l0.281,0.738c0.141,0.399,0.375,0.598,0.703,0.598h7.277c0.398,0,0.598-0.188,0.598-0.563v-0.984
		c0-0.375-0.188-0.563-0.563-0.563H8.619c-0.984,0-1.969,0.047-2.953,0.141c-0.469,0.047-0.844-0.152-1.125-0.598l-0.246-0.352
		c-0.281-0.539-0.211-0.785,0.211-0.738c1.5,0.188,3.082,0.305,4.746,0.352h13.359c0.375,0,0.785-0.234,1.23-0.703
		C24.38,97.334,24.919,96.842,25.458,96.397z M26.373,107.401c0.281-0.328,0.527-0.398,0.738-0.211
		c1.195,0.844,2.132,1.746,2.813,2.707c0.188,0.281,0.128,0.504-0.176,0.668c-0.141,0.047-0.023,0.199,0.352,0.457
		c1.007,0.773,1.886,1.594,2.637,2.461c0.164,0.329,0.128,0.586-0.105,0.773c-0.07,0.047-0.34,0.07-0.809,0.07H19.306
		c-0.375,0-0.75,0.223-1.125,0.668c-0.727,0.867-1.57,1.547-2.531,2.039c-0.422,0.211-0.422,0.316,0,0.316h9
		c0.375,0,0.738-0.188,1.09-0.563c0.563-0.492,0.984-0.832,1.266-1.02c0.211-0.164,0.434-0.234,0.668-0.211
		c0.422,0.141,0.891,0.387,1.406,0.738c0.469,0.258,0.937,0.575,1.406,0.949c0.68,0.492,0.914,0.938,0.703,1.336
		c-0.07,0.188-0.27,0.375-0.598,0.563c-0.422,0.352-0.633,0.703-0.633,1.055v4.887c-0.023,0.469-0.129,0.926-0.316,1.371
		c-0.118,0.398-0.41,0.82-0.879,1.266c-1.078,0.796-2.18,1.253-3.305,1.371c-0.703-0.047-1.043-0.41-1.02-1.09
		c-0.047-0.422-0.188-0.997-0.422-1.723c-0.047-0.329-0.352-0.691-0.914-1.09c-0.399-0.188-0.61-0.059-0.633,0.387
		c-0.023,0.304-0.023,0.621,0,0.949c0.093,0.563-0.199,0.961-0.879,1.195c-1.313,0.304-2.438,0.328-3.375,0.07
		c-0.422-0.141-0.575-0.445-0.457-0.914c0.023-0.961,0.058-1.946,0.105-2.953v-4.746c0-0.398-0.188-0.598-0.563-0.598h-1.758
		c-0.399,0-0.598,0.188-0.598,0.563v4.781l0.105,2.883c0.093,0.234-0.035,0.515-0.387,0.844c-0.281,0.188-0.809,0.304-1.582,0.352
		c-0.844,0.117-1.629,0.093-2.355-0.07c-0.422-0.164-0.575-0.492-0.457-0.984c0.047-1.102,0.105-2.25,0.176-3.445v-4.324
		c0-0.398-0.188-0.598-0.563-0.598H8.091c-0.399,0-0.598,0.188-0.598,0.563v5.555c0.07,0.937,0.105,1.886,0.105,2.848
		c0,0.469-0.023,0.761-0.07,0.879c-0.118,0.234-0.375,0.434-0.773,0.598c-0.773,0.188-1.746,0.258-2.918,0.211l-0.703-0.176
		c-0.352-0.188-0.48-0.434-0.387-0.738c0.047-1.266,0.105-2.531,0.176-3.797v-4.957c-0.047-1.102-0.129-2.074-0.246-2.918
		c-0.047-0.445,0.199-0.598,0.738-0.457c1.078,0.258,2.461,0.645,4.148,1.16h4.957c0.352,0,0.585-0.234,0.703-0.703
		c0.093-0.469,0.152-1.055,0.176-1.758c0.023-0.375-0.153-0.563-0.527-0.563H5.455c-1.406,0.07-2.579,0.188-3.516,0.352
		c-0.516,0.164-0.891,0.023-1.125-0.422l-0.352-0.844c-0.188-0.445-0.059-0.645,0.387-0.598c1.617,0.164,3.234,0.258,4.852,0.281
		h20.32c0.375,0,0.761-0.234,1.16-0.703c0.328-0.422,0.715-0.844,1.16-1.266c0.398-0.328,0.41-0.492,0.035-0.492h-5.379
		l-2.074,0.176c-0.516,0.047-0.891-0.152-1.125-0.598l-0.176-0.316c-0.258-0.469-0.153-0.68,0.316-0.633
		c1.242,0.164,2.648,0.234,4.219,0.211c0.375,0,0.738-0.234,1.09-0.703C25.599,108.303,25.974,107.846,26.373,107.401z
		 M22.927,118.581c-0.375,0-0.563,0.199-0.563,0.598v3.832c0,0.375,0.246,0.586,0.738,0.633c0.656,0.047,1.324,0.047,2.004,0
		c0.258-0.141,0.352-0.41,0.281-0.809v-3.656c0-0.398-0.188-0.598-0.563-0.598H22.927z"/>
	<path fill="#2E3F2E" d="M11.501,154.626c0.164-0.492,0.469-0.691,0.914-0.598c1.992,0.445,3.468,0.855,4.43,1.23
		c0.445,0.234,0.668,0.41,0.668,0.527c-0.07,0.352-0.34,0.539-0.809,0.563c-0.211,0.023-0.434,0.07-0.668,0.141
		c-0.118,0.047-0.211,0.129-0.281,0.246l-0.457,0.668c-0.211,0.375-0.129,0.563,0.246,0.563H25.81c0.375,0,0.761-0.234,1.16-0.703
		c0.563-0.633,1.172-1.266,1.828-1.898c0.164-0.211,0.398-0.223,0.703-0.035c1.429,0.984,2.554,1.945,3.375,2.883
		c0.328,0.75,0.035,1.066-0.879,0.949h-5.414c-0.375,0-0.668,0.223-0.879,0.668c-0.54,1.336-1.219,2.602-2.039,3.797
		c-0.281,0.375-0.199,0.609,0.246,0.703c0.773,0.117,1.652,0.328,2.637,0.633c1.336,0.445,2.262,0.914,2.777,1.406
		c0.469,0.398,0.785,0.855,0.949,1.371c0.141,0.305,0.141,0.832,0,1.582c-0.422,1.125-1.243,1.559-2.461,1.301
		c-0.914-0.281-1.84-0.703-2.777-1.266c-1.359-0.82-2.742-1.594-4.148-2.32c-0.375-0.164-0.797-0.117-1.266,0.141
		c-2.883,1.711-6.527,2.766-10.934,3.164c-1.477,0.141-3.012,0.223-4.605,0.246H1.376c-0.516-0.023-0.821-0.152-0.914-0.387
		c-0.094-0.281,0.128-0.469,0.668-0.563c3.844-0.492,7.559-1.383,11.145-2.672c0.82-0.305,1.793-0.785,2.918-1.441
		c0.398-0.211,0.352-0.398-0.141-0.563c-1.219-0.422-2.403-0.797-3.551-1.125c-0.329-0.094-0.656,0.07-0.984,0.492l-0.422,0.527
		c-0.445,0.773-1.113,1.125-2.004,1.055c-0.984-0.094-1.911-0.293-2.777-0.598c-0.586-0.141-0.786-0.398-0.598-0.773
		c1.007-1.125,1.746-2.051,2.215-2.777l1.547-2.074c0.281-0.352,0.234-0.527-0.141-0.527H4.47c-0.867,0.023-1.723,0.07-2.566,0.141
		c-0.492,0.047-0.844-0.164-1.055-0.633l-0.176-0.316c-0.258-0.539-0.176-0.773,0.246-0.703c1.218,0.164,2.554,0.27,4.008,0.316
		h4.219c0.352,0,0.703-0.234,1.055-0.703C10.856,156.255,11.291,155.376,11.501,154.626z M27.849,137.998
		c0.398-0.422,0.773-0.48,1.125-0.176c1.453,1.008,2.637,2.027,3.551,3.059c0.023,0.609-0.258,0.855-0.844,0.738h-8.297
		c-0.399,0-0.598,0.176-0.598,0.527v2.461c0,0.398,0.188,0.598,0.563,0.598h1.582c0.375,0,0.738-0.188,1.09-0.563
		c0.398-0.375,0.796-0.738,1.195-1.09c0.304-0.281,0.656-0.316,1.055-0.105c0.867,0.469,1.793,1.09,2.777,1.863
		c0.773,0.609,0.75,1.148-0.07,1.617c-0.445,0.398-0.668,0.785-0.668,1.16v2.813l0.141,3.34c0,0.188-0.105,0.363-0.316,0.527
		c-0.727,0.398-1.911,0.563-3.551,0.492c-0.703-0.141-1.032-0.492-0.984-1.055c0-0.328-0.176-0.492-0.527-0.492H8.97
		c-0.399,0-0.598,0.211-0.598,0.633c0.164,0.727-0.141,1.184-0.914,1.371c-0.914,0.188-1.875,0.258-2.883,0.211
		c-0.375-0.07-0.668-0.199-0.879-0.387c-0.094-0.117-0.141-0.41-0.141-0.879c0.047-1.125,0.105-2.285,0.176-3.48v-3.445
		c-0.094-1.523-0.199-2.801-0.316-3.832c0.023-0.023,0.269,0.012,0.738,0.105c1.453,0.375,2.918,0.773,4.395,1.195h1.934
		c0.398,0,0.598-0.188,0.598-0.563v-2.461c0-0.375-0.188-0.563-0.563-0.563H5.49c-0.984,0.023-1.969,0.07-2.953,0.141
		c-0.54,0.07-0.926-0.129-1.16-0.598c-0.094-0.164-0.164-0.328-0.211-0.492c-0.234-0.445-0.07-0.621,0.492-0.527
		c1.218,0.164,2.461,0.258,3.727,0.281h19.547c0.375,0,0.785-0.234,1.23-0.703C26.701,139.158,27.263,138.583,27.849,137.998z
		 M9.005,146.365c-0.399,0-0.598,0.188-0.598,0.563v4.992c0,0.375,0.188,0.563,0.563,0.563h1.547c0.398,0,0.598-0.176,0.598-0.527
		v-4.992c0-0.398-0.188-0.598-0.563-0.598H9.005z M14.771,159.162c-0.329,0-0.645,0.176-0.949,0.527l-1.863,2.602
		c-0.258,0.375-0.153,0.586,0.316,0.633c1.664,0.141,3.34,0.316,5.027,0.527c0.375,0.047,0.715-0.117,1.02-0.492
		c0.796-0.984,1.464-2.063,2.004-3.234c0.164-0.375,0.07-0.563-0.281-0.563H14.771z M16.107,141.619
		c-0.375,0-0.563,0.188-0.563,0.563v2.426c0,0.398,0.188,0.598,0.563,0.598h1.652c0.398,0,0.598-0.188,0.598-0.563v-2.461
		c0-0.375-0.188-0.563-0.563-0.563H16.107z M16.142,146.365c-0.399,0-0.598,0.188-0.598,0.563v4.992
		c0,0.375,0.188,0.563,0.563,0.563h1.652c0.398,0,0.598-0.176,0.598-0.527v-4.992c0-0.398-0.188-0.598-0.563-0.598H16.142z
		 M23.384,146.365c-0.399,0-0.598,0.188-0.598,0.563v4.992c0,0.375,0.188,0.563,0.563,0.563h1.723c0.375,0,0.563-0.176,0.563-0.527
		v-4.992c0-0.398-0.176-0.598-0.527-0.598H23.384z"/>
	<path fill="#2E3F2E" d="M28.623,179.674c0.375-0.141,0.832,0.035,1.371,0.527c0.891,0.586,1.594,1.113,2.109,1.582
		c0.375,0.492,0.352,0.891-0.07,1.195c-0.61,0.445-0.844,0.914-0.703,1.406v8.016l0.141,4.219c0.07,0.609,0.035,1.031-0.105,1.266
		c-0.234,0.328-0.575,0.539-1.02,0.633c-1.078,0.258-2.027,0.305-2.848,0.141c-0.188,0-0.387-0.141-0.598-0.422
		c-0.047-0.094-0.07-0.363-0.07-0.809c0-0.469-0.188-0.703-0.563-0.703h-1.125c-0.375,0-0.563,0.188-0.563,0.563v4.57
		c0,0.375,0.199,0.563,0.598,0.563c0.422,0,0.809-0.234,1.16-0.703c0.633-0.938,1.242-1.617,1.828-2.039
		c0.164-0.094,0.375-0.023,0.633,0.211c0.68,0.492,1.383,1.113,2.109,1.863c0.539,0.492,0.879,0.961,1.02,1.406
		c-0.118,0.422-0.457,0.574-1.02,0.457h-5.766c-0.375,0-0.563,0.188-0.563,0.563v4.605c0,0.375,0.188,0.563,0.563,0.563h0.738
		c0.375,0,0.726-0.234,1.055-0.703c0.515-0.68,1.066-1.371,1.652-2.074c0.398-0.398,0.75-0.469,1.055-0.211
		c0.773,0.516,1.793,1.465,3.059,2.848c0.515,0.516,0.598,0.938,0.246,1.266c-0.094,0.07-0.375,0.105-0.844,0.105H14.701
		c-0.914,0.023-1.816,0.07-2.707,0.141c-0.492,0.047-0.844-0.164-1.055-0.633l-0.141-0.316c-0.211-0.539-0.094-0.773,0.352-0.703
		c1.359,0.188,2.765,0.281,4.219,0.281h4.043c0.375,0,0.563-0.188,0.563-0.563v-4.57c0-0.375-0.188-0.563-0.563-0.563h-2.109
		c-0.844,0.023-1.7,0.07-2.566,0.141c-0.422,0.047-0.75-0.199-0.984-0.738l-0.176-0.352c-0.258-0.445-0.141-0.633,0.352-0.563
		c1.805,0.258,3.633,0.363,5.484,0.316c0.375,0,0.563-0.188,0.563-0.563v-4.57c0-0.375-0.188-0.563-0.563-0.563h-0.914
		c-0.375,0-0.563,0.188-0.563,0.563v0.281c0,0.469-0.035,0.785-0.105,0.949c-0.164,0.258-0.434,0.434-0.809,0.527
		c-0.797,0.188-1.7,0.258-2.707,0.211c-0.586-0.07-0.938-0.305-1.055-0.703l0.105-4.465c0-0.352-0.035-0.516-0.105-0.492
		c-0.07,0.047-0.329,0.07-0.773,0.07H9.533c-0.375,0-0.563,0.176-0.563,0.527v6.961c0,0.375,0.234,0.516,0.703,0.422
		c0.796-0.188,1.84-0.527,3.129-1.02c0.515-0.211,0.832-0.176,0.949,0.105c0.141,0.281-0.023,0.645-0.492,1.09
		c-2.977,2.648-6.152,4.547-9.527,5.695c-0.375,0.141-0.598,0.434-0.668,0.879c-0.047,0.516-0.316,0.773-0.809,0.773
		c-0.258-0.188-0.48-0.539-0.668-1.055c-0.422-1.195-0.867-2.707-1.336-4.535c-0.118-0.563,0.047-0.844,0.492-0.844
		c0.961,0,2.004-0.047,3.129-0.141c0.352-0.07,0.527-0.293,0.527-0.668v-7.629c0-0.375-0.176-0.563-0.527-0.563
		c-0.891,0-1.781,0.07-2.672,0.211c-0.047-0.047-0.164-0.293-0.352-0.738l-0.176-0.422c-0.211-0.469-0.083-0.656,0.387-0.563
		c0.961,0.164,1.875,0.246,2.742,0.246c0.398,0,0.598-0.176,0.598-0.527v-7.348c0-0.398-0.176-0.598-0.527-0.598
		c-0.891,0-1.688,0.047-2.391,0.141c-0.492,0.07-0.844-0.141-1.055-0.633l-0.141-0.352c-0.234-0.516-0.129-0.738,0.316-0.668
		c0.937,0.164,1.91,0.258,2.918,0.281h3.516c0.375,0,0.738-0.234,1.09-0.703s0.738-0.938,1.16-1.406
		c0.469-0.375,0.937-0.445,1.406-0.211c0.773,0.609,1.477,1.277,2.109,2.004c0.352,0.375,0.515,0.328,0.492-0.141
		c-0.023-0.609-0.07-1.219-0.141-1.828c-0.047-0.445,0.199-0.586,0.738-0.422c1.5,0.422,2.777,0.832,3.832,1.23
		c0.304,0.117,0.621,0.176,0.949,0.176h7.348c0.375,0,0.796-0.223,1.266-0.668C27.779,180.319,28.224,179.956,28.623,179.674z
		 M12.662,183.963l-3.094,0.035c-0.399-0.023-0.598,0.141-0.598,0.492v7.102c0,0.398,0.152,0.363,0.457-0.105
		c0.117-0.234,0.269-0.469,0.457-0.703c0.445-0.516,0.738-0.773,0.879-0.773c0.188,0.023,0.422,0.188,0.703,0.492
		c0.445,0.422,0.961,1.008,1.547,1.758c0.258,0.422,0.387,0.422,0.387,0v-7.699C13.376,184.092,13.13,183.893,12.662,183.963z
		 M18.427,182.627c-0.352,0-0.527,0.176-0.527,0.527v4.605c0,0.375,0.176,0.563,0.527,0.563h0.984c0.375,0,0.563-0.188,0.563-0.563
		v-4.57c0-0.375-0.188-0.563-0.563-0.563H18.427z M18.427,189.588c-0.352,0-0.527,0.188-0.527,0.563v4.816
		c0,0.375,0.176,0.563,0.527,0.563h0.984c0.375,0,0.563-0.188,0.563-0.563v-4.816c0-0.375-0.188-0.563-0.563-0.563H18.427z
		 M25.142,182.627c-0.375,0-0.563,0.176-0.563,0.527v4.605c0,0.375,0.188,0.563,0.563,0.563h1.125c0.375,0,0.563-0.188,0.563-0.563
		v-4.57c0-0.375-0.188-0.563-0.563-0.563H25.142z M25.142,189.588c-0.375,0-0.563,0.188-0.563,0.563v4.816
		c0,0.375,0.188,0.563,0.563,0.563h1.125c0.375,0,0.563-0.188,0.563-0.563v-4.816c0-0.375-0.188-0.563-0.563-0.563H25.142z"/>
	<path fill="#2E3F2E" d="M13.927,221.077c-0.047-0.469,0.164-0.668,0.633-0.598c0.914,0.117,1.84,0.246,2.777,0.387
		c1.172,0.164,2.097,0.387,2.777,0.668c0.515,0.211,0.609,0.516,0.281,0.914l-0.668,0.422c-0.375,0.281-0.563,0.609-0.563,0.984v4.5
		c0,0.375,0.234,0.574,0.703,0.598c1.523,0,3.059,0.012,4.605,0.035c0.469,0,0.926-0.211,1.371-0.633
		c0.469-0.422,0.937-0.809,1.406-1.16c0.422-0.305,0.891-0.352,1.406-0.141c1.383,0.961,2.297,1.699,2.742,2.215
		c0.703,0.516,0.598,1.043-0.316,1.582c-0.352,0.352-0.527,0.715-0.527,1.09v13.324l0.105,5.977c0.211,0.82-0.188,1.336-1.195,1.547
		c-1.032,0.188-1.957,0.246-2.777,0.176c-0.469-0.047-0.821-0.152-1.055-0.316c-0.141-0.164-0.188-0.34-0.141-0.527
		c-0.023-0.609-0.023-1.23,0-1.863c0-0.375-0.188-0.563-0.563-0.563H8.654c-0.375,0-0.575,0.234-0.598,0.703v1.371
		c0.117,0.539-0.118,0.926-0.703,1.16c-0.938,0.281-2.004,0.375-3.199,0.281c-1.055,0-1.477-0.492-1.266-1.477
		c0.023-2.32,0.058-4.664,0.105-7.031v-12.375c-0.047-1.43-0.105-2.871-0.176-4.324c-0.047-0.445,0.176-0.598,0.668-0.457
		c2.18,0.586,3.762,1.055,4.746,1.406h5.344c0.398,0,0.598-0.188,0.598-0.563v-2.426C14.126,224.065,14.044,222.436,13.927,221.077z
		 M8.619,230.252c-0.375,0-0.563,0.188-0.563,0.563v6.574c0,0.398,0.188,0.598,0.563,0.598h4.957c0.398,0,0.598-0.188,0.598-0.563
		v-6.609c0-0.375-0.188-0.563-0.563-0.563H8.619z M8.619,239.147c-0.375,0-0.563,0.188-0.563,0.563v8.191
		c0,0.398,0.188,0.598,0.563,0.598h4.957c0.398,0,0.598-0.188,0.598-0.563v-8.191c0-0.398-0.188-0.598-0.563-0.598H8.619z
		 M19.798,230.252c-0.375,0-0.563,0.188-0.563,0.563v6.574c0,0.398,0.188,0.598,0.563,0.598h5.133c0.398,0,0.598-0.188,0.598-0.563
		v-6.609c0-0.375-0.188-0.563-0.563-0.563H19.798z M19.798,239.147c-0.375,0-0.563,0.188-0.563,0.563v8.191
		c0,0.398,0.188,0.598,0.563,0.598h5.133c0.398,0,0.598-0.188,0.598-0.563v-8.191c0-0.398-0.188-0.598-0.563-0.598H19.798z"/>
	<path fill="#2E3F2E" d="M17.97,262.521c0.023-0.469,0.258-0.656,0.703-0.563c2.039,0.422,3.902,0.984,5.59,1.688
		c0.281,0.164,0.352,0.375,0.211,0.633c-0.141,0.328-0.469,0.516-0.984,0.563c-0.375,0.094-0.633,0.375-0.773,0.844
		c-0.211,0.797-0.504,1.699-0.879,2.707c-0.141,0.398-0.023,0.598,0.352,0.598h3.938c0.375,0,0.796-0.234,1.266-0.703l0.703-0.703
		c0.585-0.75,1.172-0.926,1.758-0.527c1.031,0.703,1.957,1.453,2.777,2.25c0.539,0.633,0.375,1.137-0.492,1.512
		c-0.469,0.352-0.703,0.703-0.703,1.055c0,5.719-0.445,11.156-1.336,16.313c-0.281,1.57-0.797,2.965-1.547,4.184
		c-0.727,1.031-1.605,1.746-2.637,2.145c-0.399,0.141-0.867,0.258-1.406,0.352c-0.68,0.094-1.195,0.012-1.547-0.246
		c-0.164-0.117-0.258-0.34-0.281-0.668c-0.023-0.469-0.07-0.938-0.141-1.406c-0.164-0.633-0.399-1.102-0.703-1.406
		c-0.633-0.469-1.441-0.914-2.426-1.336c-0.445-0.164-0.645-0.398-0.598-0.703c0.093-0.305,0.375-0.422,0.844-0.352
		c1.547,0.234,3.011,0.328,4.395,0.281c0.656-0.141,1.055-0.434,1.195-0.879c0.304-0.844,0.527-1.77,0.668-2.777
		c0.585-4.5,0.949-9.363,1.09-14.59c0-0.375-0.234-0.574-0.703-0.598h-3.41h-0.984c-0.469-0.023-0.809,0.199-1.02,0.668
		c-1.008,2.367-2.672,4.664-4.992,6.891c-0.445,0.398-0.727,0.539-0.844,0.422c-0.141-0.141-0.211-0.023-0.211,0.352v9.176
		l0.105,4.676c0.164,0.375-0.023,0.762-0.563,1.16c-1.125,0.352-2.238,0.457-3.34,0.316c-0.375-0.117-0.575-0.352-0.598-0.703
		v-1.301c0-0.398-0.188-0.598-0.563-0.598H6.58c-0.375,0-0.563,0.188-0.563,0.563v1.02c0,0.469-0.07,0.82-0.211,1.055
		c-0.188,0.281-0.527,0.457-1.02,0.527c-0.797,0.211-1.665,0.27-2.602,0.176c-0.633-0.234-0.867-0.727-0.703-1.477
		c0-1.805,0.035-3.633,0.105-5.484v-16.77c-0.023-0.914-0.07-1.828-0.141-2.742c-0.07-0.516,0.128-0.703,0.598-0.563
		c1.055,0.328,2.121,0.68,3.199,1.055c0.375,0.141,0.574-0.023,0.598-0.492c0-0.328,0.023-0.668,0.07-1.02v-2.039
		c-0.047-0.797-0.105-1.594-0.176-2.391c-0.07-0.469,0.128-0.668,0.598-0.598c1.594,0.258,3.152,0.633,4.676,1.125
		c0.563,0.188,0.855,0.445,0.879,0.773c-0.141,0.422-0.434,0.633-0.879,0.633c-0.375,0.047-0.656,0.27-0.844,0.668
		c-0.516,1.031-1.278,2.039-2.285,3.023c-0.399,0.375-0.41,0.563-0.035,0.563h1.863c0.375,0,0.785-0.234,1.23-0.703l0.563-0.598
		c0.515-0.398,0.996-0.527,1.441-0.387c0.796,0.422,1.71,1.09,2.742,2.004c0.445,0.352,0.598,0.668,0.457,0.949
		c-0.047,0.07-0.176,0.211-0.387,0.422l-0.352,0.281c-0.375,0.328-0.563,0.68-0.563,1.055v4.781c0,0.422,0.093,0.387,0.281-0.105
		C16.857,271.767,17.806,267.091,17.97,262.521z M6.509,269.974c-0.352,0-0.527,0.199-0.527,0.598v7.348
		c0,0.375,0.188,0.563,0.563,0.563h3.305c0.398,0,0.598-0.188,0.598-0.563v-7.348c0-0.398-0.188-0.598-0.563-0.598H6.509z
		 M6.509,279.677c-0.352,0-0.527,0.188-0.527,0.563v9.211c0,0.398,0.188,0.598,0.563,0.598h3.305c0.398,0,0.598-0.188,0.598-0.563
		v-9.246c0-0.375-0.188-0.563-0.563-0.563H6.509z M18.392,275.529c0.211-0.188,0.55-0.199,1.02-0.035
		c1.007,0.469,1.934,1.078,2.777,1.828c1.477,1.313,2.203,2.719,2.18,4.219c-0.047,1.195-0.54,2.063-1.477,2.602
		c-0.727,0.234-1.43,0.293-2.109,0.176c-0.469-0.141-0.844-0.516-1.125-1.125c-0.141-0.539-0.199-1.207-0.176-2.004
		c0.164-1.594-0.118-3.152-0.844-4.676C18.31,276.044,18.228,275.716,18.392,275.529z"/>
	<path fill="#2E3F2E" d="M15.826,313.659c1.945-0.305,3.668,0.141,5.168,1.336c0.891,0.75,1.523,1.652,1.898,2.707
		c0.492,1.289,0.504,2.742,0.035,4.359c-0.563,1.641-1.641,2.859-3.234,3.656c-2.039,0.844-3.985,0.785-5.836-0.176
		c-0.891-0.445-1.711-1.23-2.461-2.355c-0.938-1.781-1.067-3.633-0.387-5.555c0.304-1.008,0.984-1.945,2.039-2.813
		C13.869,314.209,14.794,313.823,15.826,313.659z M17.619,317.667c-0.727-0.094-1.359-0.035-1.898,0.176
		c-0.563,0.328-0.879,0.75-0.949,1.266c-0.141,0.656-0.129,1.23,0.035,1.723c0.188,0.586,0.539,0.961,1.055,1.125
		c0.445,0.211,0.984,0.258,1.617,0.141c1.148-0.188,1.734-0.902,1.758-2.145c0-0.539-0.118-1.008-0.352-1.406
		C18.626,318.077,18.204,317.784,17.619,317.667z"/>
</g>
</svg>
