<?xml version="1.0" encoding="utf-8"?>
<!-- Generator: Adobe Illustrator 16.0.0, SVG Export Plug-In . SVG Version: 6.00 Build 0)  -->
<!DOCTYPE svg PUBLIC "-//W3C//DTD SVG 1.1//EN" "http://www.w3.org/Graphics/SVG/1.1/DTD/svg11.dtd">
<svg version="1.1" id="圖層_1" xmlns="http://www.w3.org/2000/svg" xmlns:xlink="http://www.w3.org/1999/xlink" x="0px" y="0px"
	 width="89.074px" height="291.556px" viewBox="0 0 89.074 291.556" enable-background="new 0 0 89.074 291.556"
	 xml:space="preserve">
<g>
	<path fill="#2E3F2E" d="M68.321,0.552c0.093-0.445,0.363-0.621,0.809-0.527c2.391,0.492,4.254,0.973,5.59,1.441l0.352,0.176
		c0.328,0.164,0.363,0.41,0.105,0.738c-0.211,0.234-0.563,0.387-1.055,0.457c-0.399,0.141-0.668,0.445-0.809,0.914
		c-0.352,0.984-0.715,1.969-1.09,2.953c-0.188,0.422-0.105,0.633,0.246,0.633h2.215c0.375,0,0.75-0.188,1.125-0.563
		c0.398-0.398,0.796-0.773,1.195-1.125c0.422-0.352,0.773-0.457,1.055-0.316c0.937,0.445,1.863,1.09,2.777,1.934
		c0.844,0.563,0.891,1.102,0.141,1.617c-0.61,0.211-0.984,0.54-1.125,0.984c-0.305,0.821-0.586,1.652-0.844,2.496
		c-0.094,0.375-0.07,0.563,0.07,0.563c0.164,0,0.41-0.188,0.738-0.563c0.867-1.031,1.559-1.57,2.074-1.617
		c1.102,0.516,2.25,1.336,3.445,2.461c0.469,0.469,0.387,0.902-0.246,1.301l-0.527,0.316c-0.399,0.281-0.656,0.645-0.773,1.09
		c-0.234,0.75-0.434,1.5-0.598,2.25c-0.141,0.492-0.012,0.492,0.387,0c0.304-0.422,0.703-0.879,1.195-1.371
		c0.211-0.188,0.387-0.269,0.527-0.246c0.352,0.023,0.879,0.305,1.582,0.844c0.867,0.633,1.559,1.266,2.074,1.898
		c0.234,0.375,0.117,0.691-0.352,0.949c-0.234,0.211-0.41,0.445-0.527,0.703c-0.094,0.281-0.164,0.75-0.211,1.406
		c-0.188,1.781-0.469,3.633-0.844,5.555c-0.118,0.563-0.352,1.266-0.703,2.109c-0.118,0.445-0.48,0.949-1.09,1.512
		c-1.172,0.961-2.496,1.406-3.973,1.336c-0.656-0.164-0.973-0.516-0.949-1.055c-0.094-1.148-0.387-2.016-0.879-2.602
		c-0.563-0.586-1.148-0.973-1.758-1.16c-0.563-0.118-0.797-0.34-0.703-0.668c0.093-0.352,0.363-0.48,0.809-0.387
		c0.703,0.141,1.617,0.258,2.742,0.352c0.539,0.047,0.937,0.035,1.195-0.035c0.304,0,0.55-0.234,0.738-0.703
		c0.422-1.734,0.715-3.844,0.879-6.328c0.023-0.375-0.153-0.563-0.527-0.563H65.403c-0.352,0-0.727,0.234-1.125,0.703
		c-2.086,2.414-4.465,4.43-7.137,6.047c-0.469,0.281-0.786,0.329-0.949,0.141c-0.188-0.234-0.094-0.55,0.281-0.949
		c2.531-2.835,4.535-5.625,6.012-8.367c1.453-2.602,2.648-5.391,3.586-8.367c0.093-0.375-0.047-0.563-0.422-0.563h-3.902
		c-1.289,0.07-2.355,0.153-3.199,0.246c-0.445,0.047-0.797-0.199-1.055-0.738l-0.176-0.352c-0.211-0.469-0.083-0.668,0.387-0.598
		c1.336,0.164,2.707,0.246,4.113,0.246c0.422,0,0.504-0.058,0.246-0.176c-0.352-0.258-0.575-0.609-0.668-1.055
		c-0.118-1.289-0.281-2.215-0.492-2.777c-0.164-0.445-0.469-0.902-0.914-1.371c-0.54-0.515-0.738-0.867-0.598-1.055
		c0.141-0.234,0.445-0.339,0.914-0.316c1.875,0.094,3.503,0.727,4.887,1.898c0.984,0.938,1.218,2.122,0.703,3.551
		c-0.352,0.61-0.738,0.997-1.16,1.16c-0.375,0.118-0.329,0.188,0.141,0.211c0.375,0,0.761,0.023,1.16,0.07
		c0.398,0.023,0.668-0.199,0.809-0.668C67.547,4.478,68.04,2.45,68.321,0.552z M62.836,24.388c0.093-0.492,0.258-0.738,0.492-0.738
		c0.234,0,0.434,0.234,0.598,0.703c0.563,1.946,0.563,3.855,0,5.73c-0.469,1.195-1.243,1.863-2.32,2.004
		c-0.844,0.164-1.617,0.082-2.32-0.246c-0.516-0.258-0.844-0.668-0.984-1.23c-0.118-0.586-0.105-1.055,0.035-1.406
		c0.164-0.445,0.398-0.773,0.703-0.984C61.149,27.283,62.415,26.005,62.836,24.388z M67.02,22.771
		c0.304-0.093,0.645-0.012,1.02,0.246c2.016,1.547,2.895,3.34,2.637,5.379c0,0.75-0.422,1.394-1.266,1.934
		c-1.055,0.352-1.934,0.387-2.637,0.105c-0.821-0.469-1.125-1.23-0.914-2.285c0.07-0.234,0.176-0.469,0.316-0.703
		c0.633-1.078,0.867-2.332,0.703-3.762C66.786,23.146,66.832,22.841,67.02,22.771z M69.305,14.122c-0.352,0-0.633,0.188-0.844,0.563
		c-0.703,1.243-1.477,2.426-2.32,3.551c-0.305,0.375-0.258,0.563,0.141,0.563h11.25c0.375,0,0.621-0.223,0.738-0.668l0.914-3.445
		c0.07-0.375-0.083-0.563-0.457-0.563H69.305z M72.012,8.532c-0.375,0-0.645,0.246-0.809,0.738c-0.469,1.125-0.984,2.18-1.547,3.164
		c-0.188,0.375-0.094,0.563,0.281,0.563h3.516c0.375,0,0.633-0.234,0.773-0.703c0.304-1.055,0.633-2.109,0.984-3.164
		c0.117-0.398-0.012-0.598-0.387-0.598H72.012z M72.223,21.47c0.234-0.164,0.563-0.128,0.984,0.105
		c2.695,1.477,3.785,3.305,3.27,5.484c-0.563,1.266-1.605,1.793-3.129,1.582c-1.032-0.281-1.465-0.926-1.301-1.934
		c0.047-0.469,0.128-0.937,0.246-1.406c0.164-0.984,0.117-1.945-0.141-2.883C71.965,21.904,71.989,21.587,72.223,21.47z
		 M77.11,20.521c0.211-0.141,0.539-0.152,0.984-0.035c1.148,0.305,2.086,0.762,2.813,1.371c1.078,1.008,1.394,2.157,0.949,3.445
		c-0.258,0.68-0.75,1.102-1.477,1.266c-0.656,0.141-1.219,0.118-1.688-0.07c-0.586-0.281-0.879-0.75-0.879-1.406
		c0.047-0.633,0.047-1.277,0-1.934c-0.07-0.585-0.258-1.16-0.563-1.723C76.969,20.99,76.922,20.685,77.11,20.521z"/>
	<path fill="#2E3F2E" d="M62.274,42.091c0.047-0.469,0.304-0.656,0.773-0.563c1.828,0.399,3.433,0.867,4.816,1.406
		c0.539,0.164,0.703,0.434,0.492,0.809c-0.094,0.164-0.316,0.293-0.668,0.387c-0.047,0.023-0.118,0.035-0.211,0.035
		c-0.375,0.118-0.621,0.41-0.738,0.879c-0.516,1.781-1.09,3.387-1.723,4.816c-0.211,0.469-0.083,0.773,0.387,0.914
		c0.563,0.164,0.879,0.41,0.949,0.738c0,0.258-0.234,0.504-0.703,0.738c-0.375,0.211-0.563,0.504-0.563,0.879v14.309l0.141,5.484
		c0.117,0.585-0.176,0.984-0.879,1.195c-1.078,0.281-2.157,0.375-3.234,0.281c-0.445-0.094-0.738-0.281-0.879-0.563
		c-0.047-0.07-0.07-0.34-0.07-0.809l0.105-4.816V56.857c0-0.375-0.188-0.363-0.563,0.035c-0.656,0.656-1.441,1.289-2.355,1.898
		c-0.563,0.329-0.926,0.399-1.09,0.211c-0.164-0.188-0.105-0.515,0.176-0.984C59.672,53.259,61.618,47.951,62.274,42.091z
		 M74.122,42.197c-0.07-0.469,0.117-0.68,0.563-0.633c2.484,0.305,4.207,0.586,5.168,0.844c0.726,0.188,0.891,0.54,0.492,1.055
		c-0.047,0.047-0.188,0.105-0.422,0.176c-0.234,0.07-0.41,0.153-0.527,0.246c-0.118,0.094-0.176,0.329-0.176,0.703v8.719
		c0,0.375,0.188,0.563,0.563,0.563h1.125c0.375,0,0.738-0.234,1.09-0.703c1.031-1.336,1.793-2.18,2.285-2.531
		c0.141-0.093,0.304-0.105,0.492-0.035c1.125,0.633,2.391,1.7,3.797,3.199c0.515,0.445,0.598,0.879,0.246,1.301
		c-0.094,0.07-0.375,0.105-0.844,0.105h-8.156c-0.375,0-0.563,0.188-0.563,0.563v12.621l0.211,4.676
		c0.047,0.422-0.153,0.75-0.598,0.984c-0.867,0.281-1.898,0.41-3.094,0.387c-0.375,0.023-0.75-0.047-1.125-0.211
		c-0.258-0.211-0.41-0.41-0.457-0.598v-1.898c0.023-1.383,0.058-2.79,0.105-4.219V55.767c0-0.375-0.176-0.563-0.527-0.563h-2.848
		c-1.289,0.023-2.566,0.094-3.832,0.211c-0.469,0.047-0.809-0.164-1.02-0.633l-0.211-0.492c-0.211-0.445-0.047-0.656,0.492-0.633
		c1.71,0.118,3.222,0.188,4.535,0.211h2.848c0.375,0,0.563-0.188,0.563-0.563v-7.629C74.297,44.201,74.239,43.041,74.122,42.197z"/>
	<path fill="#2E3F2E" d="M69.411,82.927c1.851-0.328,3.48-0.246,4.887,0.246c1.102,0.61,1.57,1.465,1.406,2.566
		c-0.141,0.445-0.023,0.668,0.352,0.668h4.852c0.375,0,0.761-0.234,1.16-0.703c0.563-0.585,1.137-1.172,1.723-1.758
		c0.469-0.281,0.926-0.304,1.371-0.07c0.609,0.399,1.242,0.914,1.898,1.547c0.867,0.68,1.359,1.266,1.477,1.758
		c0.023,0.164-0.094,0.305-0.352,0.422c-0.07,0.023-0.34,0.035-0.809,0.035H63.047c-0.375,0-0.575,0.234-0.598,0.703v2.25
		c0,0.375,0.234,0.598,0.703,0.668c0.961,0.118,1.957,0.188,2.988,0.211c0.375,0,0.574-0.234,0.598-0.703
		c0-0.609-0.07-1.348-0.211-2.215c-0.094-0.539,0.093-0.785,0.563-0.738c2.086,0.234,3.539,0.527,4.359,0.879
		c0.422,0.329,0.293,0.68-0.387,1.055c-0.375,0.329-0.563,0.691-0.563,1.09c0,0.422,0.035,0.633,0.105,0.633
		s0.234-0.188,0.492-0.563c0.304-0.422,0.621-0.855,0.949-1.301c0.328-0.352,0.609-0.574,0.844-0.668
		c0.328,0.023,0.703,0.223,1.125,0.598l1.301,1.371c0.375,0.375,0.738,0.563,1.09,0.563h1.688c0.375,0,0.563-0.188,0.563-0.563
		c0-0.656-0.059-1.477-0.176-2.461c-0.07-0.492,0.128-0.703,0.598-0.633c1.453,0.234,2.719,0.54,3.797,0.914
		c0.492,0.258,0.738,0.445,0.738,0.563c-0.07,0.305-0.27,0.54-0.598,0.703c-0.188,0.07-0.329,0.153-0.422,0.246
		c-0.094,0.094-0.141,0.316-0.141,0.668c0,0.375,0.093,0.563,0.281,0.563c0.211,0,0.469-0.234,0.773-0.703
		c0.352-0.445,0.715-0.902,1.09-1.371c0.375-0.422,0.726-0.539,1.055-0.352c1.242,0.891,2.167,1.84,2.777,2.848
		c0.07,0.211,0.058,0.375-0.035,0.492c-0.211,0.211-0.563,0.281-1.055,0.211h-4.324c-0.399,0-0.598,0.188-0.598,0.563v4.641
		l0.105,3.691c0.117,0.399-0.047,0.75-0.492,1.055c-0.844,0.305-1.77,0.399-2.777,0.281c-0.61-0.117-0.856-0.422-0.738-0.914
		c0.047-1.945,0.082-3.902,0.105-5.871c0-0.445-0.035-0.656-0.105-0.633c-0.07,0.07-0.129,0.164-0.176,0.281
		c-0.118,1.102-0.316,2.016-0.598,2.742c-0.352,0.938-1.02,1.875-2.004,2.813c-0.469,0.352-0.821,0.445-1.055,0.281
		c-0.234-0.164-0.258-0.48-0.07-0.949c0.656-2.109,0.844-4.23,0.563-6.363c-0.023-0.469,0.199-0.656,0.668-0.563
		c0.726,0.118,1.464,0.258,2.215,0.422c0.398,0.07,0.598-0.07,0.598-0.422v-0.457c0-0.375-0.188-0.563-0.563-0.563h-7.031
		c-0.375,0-0.563,0.188-0.563,0.563v4.746l0.105,4.043c0.07,0.586-0.223,0.961-0.879,1.125c-0.773,0.211-1.617,0.258-2.531,0.141
		c-0.445-0.141-0.645-0.457-0.598-0.949l0.105-6.047c0-0.375-0.035-0.55-0.105-0.527c-0.07,0.07-0.129,0.164-0.176,0.281
		c-0.118,1.148-0.293,2.074-0.527,2.777c-0.399,1.266-1.219,2.414-2.461,3.445c-0.445,0.329-0.762,0.399-0.949,0.211
		c-0.188-0.211-0.176-0.55,0.035-1.02c0.82-2.273,1.09-4.582,0.809-6.926c-0.047-0.469,0.152-0.68,0.598-0.633l2.215,0.422
		c0.375,0.07,0.563-0.082,0.563-0.457v-0.633c0-0.375-0.188-0.574-0.563-0.598c-0.844,0.023-1.665,0.094-2.461,0.211
		c-0.445,0.07-0.762-0.07-0.949-0.422c-0.188-0.352-0.281-0.328-0.281,0.07v1.898c0.047,5.906-0.41,10.465-1.371,13.676
		c-0.797,2.578-2.063,4.945-3.797,7.102c-0.399,0.469-0.727,0.621-0.984,0.457c-0.234-0.118-0.27-0.457-0.105-1.02
		c0.796-2.977,1.336-6.691,1.617-11.145c0.117-2.062,0.188-3.797,0.211-5.203v-3.973l0.035-1.371v-4.289
		c-0.023-1.102-0.105-2.167-0.246-3.199c-0.07-0.445,0.164-0.598,0.703-0.457c1.313,0.399,2.473,0.797,3.48,1.195
		c0.422,0.234,0.855,0.329,1.301,0.281h7.277c0.375,0,0.457-0.234,0.246-0.703c-0.281-0.82-0.832-1.418-1.652-1.793
		c-0.54-0.141-0.75-0.304-0.633-0.492C68.649,83.185,68.941,83.021,69.411,82.927z M71.485,101.7
		c0.164-0.492,0.469-0.656,0.914-0.492c1.359,0.54,2.73,1.09,4.113,1.652c0.563,0.118,0.785,0.41,0.668,0.879
		c-0.305,0.352-0.797,0.469-1.477,0.352c-0.211,0.023-0.445,0.118-0.703,0.281c-1.078,0.516-2.145,0.914-3.199,1.195
		c-0.329,0.094-0.27,0.164,0.176,0.211l2.145,0.141h2.25c0.164,0,0.328-0.035,0.492-0.105c0.585-0.398,1.207-1.02,1.863-1.863
		c0.304-0.469,0.691-0.621,1.16-0.457c1.898,0.68,3.292,1.23,4.184,1.652c0.492,0.352,0.726,0.621,0.703,0.809
		c-0.211,0.445-0.598,0.621-1.16,0.527c-0.305-0.07-0.527-0.07-0.668,0c-3.469,2.109-7.02,3.516-10.652,4.219
		c-0.375,0.093-0.387,0.152-0.035,0.176l4.289,0.176h4.535l1.406-0.07c0.375,0,0.445-0.234,0.211-0.703
		c-0.258-0.469-0.621-0.996-1.09-1.582c-0.422-0.445-0.551-0.761-0.387-0.949c0.188-0.188,0.515-0.211,0.984-0.07
		c1.5,0.399,2.895,1.137,4.184,2.215c1.547,1.359,2.004,2.824,1.371,4.395c-0.258,0.515-0.668,0.867-1.23,1.055
		c-0.375,0.117-0.879,0.141-1.512,0.07c-0.516-0.118-0.891-0.48-1.125-1.09c-0.094-0.281-0.188-0.75-0.281-1.406l-0.07-0.316
		c-0.118-0.375-0.399-0.516-0.844-0.422c-5.695,1.148-11.508,1.91-17.438,2.285c-0.399,0.023-0.691,0.258-0.879,0.703
		c-0.352,0.703-0.715,0.726-1.09,0.07c-0.445-1.359-0.821-2.86-1.125-4.5c-0.07-0.445,0.152-0.633,0.668-0.563
		c1.195,0.188,2.813,0.328,4.852,0.422c0.164,0.047,0.398,0,0.703-0.141c1.828-0.563,3.75-1.453,5.766-2.672
		c0.352-0.234,0.328-0.293-0.07-0.176c-1.852,0.586-3.867,1.02-6.047,1.301c-0.422,0.047-0.68,0.141-0.773,0.281
		c-0.118,0.54-0.364,0.75-0.738,0.633c-0.07-0.023-0.211-0.269-0.422-0.738c-0.234-0.75-0.504-1.886-0.809-3.41
		c-0.118-0.469,0.082-0.656,0.598-0.563c0.844,0.141,1.699,0.258,2.566,0.352c0.352,0.023,0.691-0.152,1.02-0.527
		C70.395,103.903,71.063,102.825,71.485,101.7z M71.239,94.388c-0.047-0.492,0.152-0.691,0.598-0.598
		c0.844,0.188,1.699,0.399,2.566,0.633c0.563,0.118,0.785,0.364,0.668,0.738c-0.07,0.118-0.211,0.246-0.422,0.387
		c-0.234,0.188-0.352,0.469-0.352,0.844v1.793l0.105,1.371c-0.118,0.492-0.516,0.762-1.195,0.809
		c-0.352,0.07-0.797,0.094-1.336,0.07c-0.281,0-0.469-0.164-0.563-0.492l0.07-1.477v-0.211v-2.602L71.239,94.388z M83.051,94.458
		c-0.047-0.469,0.152-0.68,0.598-0.633c1.172,0.234,2.086,0.445,2.742,0.633c0.234,0.094,0.41,0.188,0.527,0.281
		c0.093,0.118,0.128,0.223,0.105,0.316c0,0.211-0.129,0.375-0.387,0.492c-0.399,0.188-0.54,0.504-0.422,0.949
		c0,0.516,0.012,1.055,0.035,1.617c0.047,0.07,0.093,0.129,0.141,0.176c0.07,0.023,0.199-0.07,0.387-0.281
		c0.211-0.398,0.515-0.585,0.914-0.563c0.398-0.023,0.726,0.164,0.984,0.563c0.304,0.563,0.387,1.266,0.246,2.109
		c-0.258,0.633-0.645,0.973-1.16,1.02c-0.821,0.281-1.746,0.305-2.777,0.07c-0.469-0.047-0.914-0.363-1.336-0.949
		c-0.234-0.398-0.387-0.902-0.457-1.512v-3.059L83.051,94.458z"/>
	<path fill="#2E3F2E" d="M72.645,127.399c0-0.469,0.223-0.703,0.668-0.703h0.457c0.445,0,0.668,0.234,0.668,0.703v30.551
		c0,0.469-0.223,0.703-0.668,0.703h-0.422c-0.469,0-0.703-0.234-0.703-0.703V127.399z"/>
	<path fill="#2E3F2E" d="M72.645,147.2c0-0.469,0.223-0.703,0.668-0.703h0.457c0.445,0,0.668,0.234,0.668,0.703v30.551
		c0,0.469-0.223,0.703-0.668,0.703h-0.422c-0.469,0-0.703-0.234-0.703-0.703V147.2z"/>
	<path fill="#2E3F2E" d="M72.645,167c0-0.469,0.223-0.703,0.668-0.703h0.457c0.445,0,0.668,0.234,0.668,0.703v30.551
		c0,0.469-0.223,0.703-0.668,0.703h-0.422c-0.469,0-0.703-0.234-0.703-0.703V167z"/>
	<path fill="#2E3F2E" d="M27.438,25.226c0.352-0.375,0.738-0.398,1.16-0.07c1.5,1.078,2.754,2.227,3.762,3.445
		c0.304,0.305,0.339,0.621,0.105,0.949c-0.164,0.188-0.492,0.246-0.984,0.176l-4.57,0.035H10.95
		c-3.727-0.023-6.668,0.059-8.824,0.246c-0.445,0.047-0.786-0.188-1.02-0.703l-0.281-0.668c-0.188-0.469-0.023-0.668,0.492-0.598
		c2.016,0.164,3.832,0.258,5.449,0.281h17.438c0.375,0,0.75-0.223,1.125-0.668C26.008,26.808,26.711,26,27.438,25.226z"/>
	<path fill="#2E3F2E" d="M12.25,54.865l0.211-0.035h2.145c0.937,0.07,1.863,0.234,2.777,0.492c0.984,0.211,1.688,0.902,2.109,2.074
		c0.304,0.891,0.012,1.746-0.879,2.566c-0.399,0.281-0.422,0.422-0.07,0.422h6.504c0.375,0,0.773-0.234,1.195-0.703l1.195-1.195
		c0.539-0.515,0.996-0.68,1.371-0.492c1.195,0.586,2.484,1.547,3.867,2.883c0.633,0.75,0.527,1.219-0.316,1.406
		c-0.797,0-1.371,0.164-1.723,0.492c-1.102,0.727-2.157,1.289-3.164,1.688c-0.352,0.164-0.305,0.469,0.141,0.914
		c0.422,0.399,0.785,0.797,1.09,1.195c0.304,0.258,0.328,0.575,0.07,0.949c-0.047,0.047-0.305,0.07-0.773,0.07h-7.699
		c-0.375,0-0.563,0.188-0.563,0.563v5.66c0,0.375,0.188,0.563,0.563,0.563h2.355c0.375,0,0.726-0.234,1.055-0.703
		c0.422-0.585,0.867-1.172,1.336-1.758c0.492-0.515,0.785-0.773,0.879-0.773c0.211,0,0.504,0.129,0.879,0.387
		c0.937,0.75,1.934,1.652,2.988,2.707c0.563,0.422,0.68,0.867,0.352,1.336c-0.094,0.07-0.375,0.105-0.844,0.105h-9
		c-0.375,0-0.563,0.188-0.563,0.563v5.414c0,0.375,0.234,0.598,0.703,0.668l2.074,0.176h3.516c2.367-0.07,4.477-0.246,6.328-0.527
		c0.422-0.093,0.656,0,0.703,0.281c0.047,0.281-0.047,0.48-0.281,0.598c-0.492,0.328-0.809,0.879-0.949,1.652
		c-0.07,0.422-0.094,1.078-0.07,1.969c-0.047,0.492-0.364,0.809-0.949,0.949c-2.461,0.047-4.992-0.07-7.594-0.352
		c-4.196-0.352-7.453-1.371-9.773-3.059c-1.454-1.055-2.602-2.355-3.445-3.902c-0.188-0.375-0.352-0.328-0.492,0.141
		c-0.516,1.172-1.418,2.496-2.707,3.973c-1.688,1.758-3.539,2.918-5.555,3.48c-0.516,0.141-0.821,0.117-0.914-0.07
		c-0.164-0.211-0.059-0.492,0.316-0.844c1.734-1.665,2.953-3.633,3.656-5.906c1.102-3.422,1.64-6.667,1.617-9.738
		c0-0.469,0.234-0.668,0.703-0.598c1.594,0.305,2.988,0.61,4.184,0.914c0.539,0.141,0.996,0.329,1.371,0.563
		c0.328,0.399,0.234,0.703-0.281,0.914c-0.492,0.094-0.75,0.316-0.773,0.668c-0.211,1.359-0.527,2.754-0.949,4.184
		c-0.164,0.211-0.07,0.434,0.281,0.668c1.102,1.055,2.262,1.863,3.48,2.426c0.492,0.188,0.738,0.094,0.738-0.281V68.154
		c0-0.375-0.188-0.563-0.563-0.563H9.122c-1.266,0.047-2.25,0.105-2.953,0.176c-0.516,0.094-0.879-0.093-1.09-0.563
		c-0.258-0.492-0.598-0.645-1.02-0.457c-1.055,0.305-2.063,0.234-3.023-0.211c-0.844-0.515-1.172-1.453-0.984-2.813
		c0.07-0.515,0.328-0.972,0.773-1.371c0.258-0.234,0.715-0.48,1.371-0.738c1.453-0.773,2.378-1.71,2.777-2.813
		c0.164-0.563,0.387-0.844,0.668-0.844s0.48,0.246,0.598,0.738l0.176,1.125c0.047,0.375,0.258,0.563,0.633,0.563h7.91
		c0.398,0,0.363-0.199-0.105-0.598c-0.118-0.141-0.234-0.375-0.352-0.703c-0.258-0.585-0.492-1.055-0.703-1.406
		c-0.305-0.563-0.879-1.137-1.723-1.723c-0.563-0.234-0.797-0.457-0.703-0.668C11.489,55.053,11.781,54.913,12.25,54.865z
		 M7.118,61.545c-0.375,0-0.563,0.188-0.563,0.563c0.023,1.195-0.258,2.333-0.844,3.41c-0.329,0.375-0.258,0.586,0.211,0.633
		c1.359,0.118,2.519,0.188,3.48,0.211H21.25c0.375,0,0.726-0.223,1.055-0.668c0.515-0.703,1.055-1.406,1.617-2.109
		c0.422-0.328,0.796-0.445,1.125-0.352c0.304,0.141,0.492-0.023,0.563-0.492l0.105-0.633c0-0.375-0.176-0.563-0.527-0.563H7.118z"/>
	<path fill="#2E3F2E" d="M11.442,113.191c0.164-0.492,0.469-0.691,0.914-0.598c1.992,0.445,3.468,0.856,4.43,1.23
		c0.445,0.234,0.668,0.41,0.668,0.527c-0.07,0.352-0.34,0.54-0.809,0.563c-0.211,0.023-0.434,0.07-0.668,0.141
		c-0.118,0.047-0.211,0.129-0.281,0.246l-0.457,0.668c-0.211,0.375-0.129,0.563,0.246,0.563H25.75c0.375,0,0.761-0.234,1.16-0.703
		c0.563-0.633,1.172-1.266,1.828-1.898c0.164-0.211,0.398-0.223,0.703-0.035c1.429,0.984,2.554,1.946,3.375,2.883
		c0.328,0.75,0.035,1.067-0.879,0.949h-5.414c-0.375,0-0.668,0.223-0.879,0.668c-0.54,1.336-1.219,2.602-2.039,3.797
		c-0.281,0.375-0.199,0.61,0.246,0.703c0.773,0.118,1.652,0.329,2.637,0.633c1.336,0.445,2.262,0.914,2.777,1.406
		c0.469,0.398,0.785,0.855,0.949,1.371c0.141,0.304,0.141,0.832,0,1.582c-0.422,1.125-1.243,1.559-2.461,1.301
		c-0.914-0.281-1.84-0.703-2.777-1.266c-1.359-0.821-2.742-1.594-4.148-2.32c-0.375-0.164-0.797-0.118-1.266,0.141
		c-2.883,1.71-6.527,2.765-10.934,3.164c-1.477,0.141-3.012,0.223-4.605,0.246H1.317c-0.516-0.023-0.821-0.153-0.914-0.387
		c-0.094-0.281,0.128-0.469,0.668-0.563c3.844-0.492,7.559-1.383,11.145-2.672c0.82-0.305,1.793-0.786,2.918-1.441
		c0.398-0.211,0.352-0.399-0.141-0.563c-1.219-0.422-2.403-0.796-3.551-1.125c-0.329-0.093-0.656,0.07-0.984,0.492l-0.422,0.527
		c-0.445,0.773-1.113,1.125-2.004,1.055c-0.984-0.094-1.911-0.293-2.777-0.598c-0.586-0.141-0.786-0.398-0.598-0.773
		c1.007-1.125,1.746-2.051,2.215-2.777l1.547-2.074c0.281-0.352,0.234-0.527-0.141-0.527H4.411c-0.867,0.023-1.723,0.07-2.566,0.141
		c-0.492,0.047-0.844-0.164-1.055-0.633l-0.176-0.316c-0.258-0.539-0.176-0.773,0.246-0.703c1.218,0.164,2.554,0.27,4.008,0.316
		h4.219c0.352,0,0.703-0.234,1.055-0.703C10.797,114.821,11.231,113.942,11.442,113.191z M27.79,96.563
		c0.398-0.422,0.773-0.48,1.125-0.176c1.453,1.008,2.637,2.027,3.551,3.059c0.023,0.61-0.258,0.856-0.844,0.738h-8.297
		c-0.399,0-0.598,0.176-0.598,0.527v2.461c0,0.399,0.188,0.598,0.563,0.598h1.582c0.375,0,0.738-0.188,1.09-0.563
		c0.398-0.375,0.796-0.738,1.195-1.09c0.304-0.281,0.656-0.316,1.055-0.105c0.867,0.469,1.793,1.09,2.777,1.863
		c0.773,0.61,0.75,1.148-0.07,1.617c-0.445,0.399-0.668,0.786-0.668,1.16v2.813l0.141,3.34c0,0.188-0.105,0.364-0.316,0.527
		c-0.727,0.399-1.911,0.563-3.551,0.492c-0.703-0.141-1.032-0.492-0.984-1.055c0-0.328-0.176-0.492-0.527-0.492H8.911
		c-0.399,0-0.598,0.211-0.598,0.633c0.164,0.727-0.141,1.184-0.914,1.371c-0.914,0.188-1.875,0.258-2.883,0.211
		c-0.375-0.07-0.668-0.199-0.879-0.387c-0.094-0.117-0.141-0.41-0.141-0.879c0.047-1.125,0.105-2.285,0.176-3.48v-3.445
		c-0.094-1.523-0.199-2.8-0.316-3.832c0.023-0.023,0.269,0.012,0.738,0.105c1.453,0.375,2.918,0.773,4.395,1.195h1.934
		c0.398,0,0.598-0.188,0.598-0.563v-2.461c0-0.375-0.188-0.563-0.563-0.563H5.43c-0.984,0.023-1.969,0.07-2.953,0.141
		c-0.54,0.07-0.926-0.128-1.16-0.598c-0.094-0.164-0.164-0.328-0.211-0.492c-0.234-0.445-0.07-0.621,0.492-0.527
		c1.218,0.164,2.461,0.258,3.727,0.281h19.547c0.375,0,0.785-0.234,1.23-0.703C26.641,97.723,27.204,97.148,27.79,96.563z
		 M8.946,104.93c-0.399,0-0.598,0.188-0.598,0.563v4.992c0,0.375,0.188,0.563,0.563,0.563h1.547c0.398,0,0.598-0.176,0.598-0.527
		v-4.992c0-0.398-0.188-0.598-0.563-0.598H8.946z M14.711,117.727c-0.329,0-0.645,0.176-0.949,0.527l-1.863,2.602
		c-0.258,0.375-0.153,0.586,0.316,0.633c1.664,0.141,3.34,0.316,5.027,0.527c0.375,0.047,0.715-0.117,1.02-0.492
		c0.796-0.984,1.464-2.062,2.004-3.234c0.164-0.375,0.07-0.563-0.281-0.563H14.711z M16.047,100.184
		c-0.375,0-0.563,0.188-0.563,0.563v2.426c0,0.399,0.188,0.598,0.563,0.598H17.7c0.398,0,0.598-0.188,0.598-0.563v-2.461
		c0-0.375-0.188-0.563-0.563-0.563H16.047z M16.083,104.93c-0.399,0-0.598,0.188-0.598,0.563v4.992c0,0.375,0.188,0.563,0.563,0.563
		H17.7c0.398,0,0.598-0.176,0.598-0.527v-4.992c0-0.398-0.188-0.598-0.563-0.598H16.083z M23.325,104.93
		c-0.399,0-0.598,0.188-0.598,0.563v4.992c0,0.375,0.188,0.563,0.563,0.563h1.723c0.375,0,0.563-0.176,0.563-0.527v-4.992
		c0-0.398-0.176-0.598-0.527-0.598H23.325z"/>
	<path fill="#2E3F2E" d="M19.317,138.389c0.047-0.539,0.304-0.761,0.773-0.668c1.781,0.305,3.41,0.691,4.887,1.16
		c0.352,0.07,0.645,0.211,0.879,0.422c0.164,0.164,0.188,0.329,0.07,0.492c-0.141,0.234-0.352,0.375-0.633,0.422l-0.809,0.105
		c-0.961,0.609-1.911,1.066-2.848,1.371c-0.375,0.117-0.387,0.176-0.035,0.176h2.566c0.375,0,0.761-0.223,1.16-0.668
		c0.328-0.422,0.68-0.832,1.055-1.23c0.492-0.398,0.949-0.504,1.371-0.316c0.515,0.305,1.429,1.031,2.742,2.18
		c0.445,0.422,0.492,0.797,0.141,1.125c-0.094,0.023-0.375,0.035-0.844,0.035h-2.566c-0.422,0-0.387,0.141,0.105,0.422
		c0.984,0.75,1.758,1.441,2.32,2.074c0.117,0.281,0.082,0.516-0.105,0.703c-0.047,0.047,0.164,0.258,0.633,0.633
		c0.891,0.703,1.617,1.359,2.18,1.969c0.304,0.773,0,1.078-0.914,0.914h-9.387c-0.399,0-0.364,0.164,0.105,0.492
		c2.976,1.875,6.386,2.824,10.23,2.848c0.445,0,0.645,0.141,0.598,0.422c-0.07,0.305-0.188,0.48-0.352,0.527
		c-0.281,0.117-0.563,0.387-0.844,0.809c-0.305,0.609-0.492,1.313-0.563,2.109c-0.211,0.938-0.773,1.219-1.688,0.844
		c-0.914-0.234-2.074-0.773-3.48-1.617c-0.047,0.047-0.094,0.129-0.141,0.246v1.828l0.105,2.32c0.023,0.422,0.093,0.516,0.211,0.281
		c0.141-0.281,0.434-0.305,0.879-0.07c1.429,0.727,2.566,1.359,3.41,1.898c0.773,0.352,1.007,0.727,0.703,1.125
		c-0.047,0.07-0.305,0.094-0.773,0.07c-0.352-0.117-0.68-0.082-0.984,0.105c-1.289,0.563-2.508,0.902-3.656,1.02
		c-0.422,0.07-0.399,0.152,0.07,0.246c2.132,0.375,4.23,0.469,6.293,0.281c0.515-0.07,0.726,0.047,0.633,0.352
		c-0.023,0.352-0.083,0.527-0.176,0.527c-0.211,0.023-0.375,0.117-0.492,0.281c-0.399,0.609-0.68,1.535-0.844,2.777
		c-0.07,0.398-0.27,0.738-0.598,1.02c-0.305,0.141-0.715,0.188-1.23,0.141c-2.672-0.281-5.449-1.359-8.332-3.234
		c-0.867-0.539-1.688-1.16-2.461-1.863c-0.445-0.445-0.633-0.563-0.563-0.352c0.047,0.164-0.164,0.398-0.633,0.703
		c-1.735,1.031-3.539,1.805-5.414,2.32c-1.852,0.539-3.809,0.973-5.871,1.301c-0.352,0.07-0.551,0.211-0.598,0.422
		c0,0.328-0.129,0.586-0.387,0.773c-0.375,0.094-0.621,0-0.738-0.281c-0.492-0.891-1.02-2.508-1.582-4.852
		c-0.118-0.469,0.058-0.668,0.527-0.598c0.82,0.141,1.723,0.223,2.707,0.246c0.398,0.023,0.598-0.152,0.598-0.527V156.6
		c0-0.375-0.234-0.434-0.703-0.176c-1.43,0.797-3.059,1.441-4.887,1.934c-0.469,0.117-0.773,0.07-0.914-0.141
		s0.047-0.48,0.563-0.809c2.976-2.016,5.437-4.395,7.383-7.137c0.234-0.375,0.164-0.563-0.211-0.563H5.465
		c-1.008,0.023-2.004,0.094-2.988,0.211c-0.469,0.07-0.797-0.129-0.984-0.598l-0.176-0.352c-0.281-0.516-0.188-0.75,0.281-0.703
		c1.383,0.164,2.93,0.27,4.641,0.316h7.172c0.398,0,0.598-0.188,0.598-0.563v-1.125c0-0.398-0.188-0.598-0.563-0.598H9.192
		c-1.243,0.047-2.473,0.105-3.691,0.176c-0.469,0.07-0.832-0.129-1.09-0.598c-0.07-0.141-0.129-0.293-0.176-0.457
		c-0.211-0.422-0.047-0.598,0.492-0.527c1.359,0.164,2.742,0.258,4.148,0.281h4.535c0.398,0,0.598-0.188,0.598-0.563v-1.055
		c0-0.375-0.188-0.563-0.563-0.563H6.872c-0.984,0.023-1.981,0.094-2.988,0.211c-0.563,0.07-0.961-0.129-1.195-0.598l-0.176-0.387
		c-0.234-0.469-0.118-0.68,0.352-0.633c1.64,0.164,3.305,0.258,4.992,0.281h1.828c0.375,0,0.434-0.223,0.176-0.668
		c-0.258-0.961-0.809-1.734-1.652-2.32c-0.54-0.281-0.773-0.515-0.703-0.703c0.07-0.258,0.328-0.398,0.773-0.422
		c1.781-0.023,3.34,0.176,4.676,0.598c1.383,0.54,1.886,1.512,1.512,2.918c-0.258,0.398-0.223,0.598,0.105,0.598h3.164
		c0.375,0,0.656-0.223,0.844-0.668C18.883,140.334,19.129,139.396,19.317,138.389z M13.868,150.904
		c-0.164-0.047-0.434,0.141-0.809,0.563c-0.656,0.727-1.348,1.383-2.074,1.969c-0.399,0.328-0.399,0.563,0,0.703
		c0.375,0.211,0.75,0.281,1.125,0.211h3.27c0.375,0,0.434-0.234,0.176-0.703c-0.164-0.797-0.434-1.488-0.809-2.074
		C14.465,151.174,14.172,150.951,13.868,150.904z M11.934,161.803c-0.375,0-0.563,0.188-0.563,0.563v2.25
		c0,0.375,0.188,0.563,0.563,0.563c1.898-0.023,3.679-0.164,5.344-0.422c0.375-0.047,0.398-0.258,0.07-0.633
		c-0.469-0.539-0.856-1.09-1.16-1.652c-0.258-0.445-0.575-0.668-0.949-0.668H11.934z M11.969,155.545
		c-0.375,0-0.563,0.176-0.563,0.527v0.668c0,0.375,0.188,0.563,0.563,0.563h8.824c0.398,0,0.598-0.188,0.598-0.563v-0.633
		c0-0.375-0.188-0.563-0.563-0.563H11.969z M11.969,158.498c-0.375,0-0.563,0.188-0.563,0.563v0.984
		c0,0.375,0.188,0.563,0.563,0.563h8.824c0.398,0,0.598-0.188,0.598-0.563v-0.984c0-0.375-0.188-0.563-0.563-0.563H11.969z
		 M14.993,149.709c-0.329,0-0.54,0.059-0.633,0.176c-0.118,0.141,0.023,0.211,0.422,0.211c1.125,0,2.132,0.117,3.023,0.352
		c1.266,0.328,1.934,1.031,2.004,2.109c0.023,0.422-0.083,0.832-0.316,1.23c-0.352,0.375-0.34,0.563,0.035,0.563h1.16
		c0.375,0.094,0.785-0.023,1.23-0.352c0.469-0.234,0.492-0.586,0.07-1.055c-0.844-0.961-1.477-1.828-1.898-2.602
		c-0.211-0.422-0.492-0.633-0.844-0.633H14.993z M18.122,161.803c-0.375,0-0.375,0.129,0,0.387c1.453,0.938,2.883,1.641,4.289,2.109
		c0.375,0.117,0.796,0.012,1.266-0.316c0.352-0.305,0.703-0.633,1.055-0.984c0.375-0.422,0.328-0.586-0.141-0.492
		c-0.727,0.164-1.641,0.176-2.742,0.035c-0.305-0.164-0.469-0.34-0.492-0.527c-0.047-0.141-0.258-0.211-0.633-0.211H18.122z
		 M19.387,142.994c-0.375,0-0.563,0.188-0.563,0.563v1.02c0,0.398,0.188,0.598,0.563,0.598h3.867c0.375,0,0.738-0.199,1.09-0.598
		c0.328-0.352,0.668-0.703,1.02-1.055s0.352-0.527,0-0.527H19.387z M19.387,146.299c-0.375,0-0.563,0.188-0.563,0.563v1.125
		c0,0.398,0.188,0.598,0.563,0.598h6.398c0.375,0,0.761-0.234,1.16-0.703c0.258-0.328,0.563-0.656,0.914-0.984
		c0.375-0.398,0.375-0.598,0-0.598H19.387z"/>
	<path fill="#2E3F2E" d="M9.649,179.87c0.211-0.539,0.539-0.75,0.984-0.633c2.016,0.633,3.598,1.195,4.746,1.688
		c0.469,0.305,0.703,0.516,0.703,0.633c-0.118,0.398-0.54,0.609-1.266,0.633c-0.305-0.047-0.575,0.07-0.809,0.352
		c-0.352,0.375-0.34,0.563,0.035,0.563h3.551c0.375,0,0.68-0.07,0.914-0.211c0.703-0.516,1.394-0.996,2.074-1.441
		c0.281-0.141,0.515-0.199,0.703-0.176c0.375,0.117,0.844,0.375,1.406,0.773c0.796,0.563,1.488,1.113,2.074,1.652
		c0.585,0.445,0.55,0.891-0.105,1.336c-0.352,0.188-0.703,0.34-1.055,0.457c-0.305,0.141-0.516,0.281-0.633,0.422
		c-0.961,1.641-2.122,3.129-3.48,4.465c-0.399,0.375-0.422,0.621-0.07,0.738c1.617,0.492,2.965,0.973,4.043,1.441
		c0.234,0.164,0.316,0.363,0.246,0.598c-0.094,0.305-0.329,0.469-0.703,0.492c-0.68,0.07-1.137,0.234-1.371,0.492
		c-0.234,0.234-0.153,0.352,0.246,0.352h2.848c0.375,0,0.68-0.07,0.914-0.211c0.703-0.445,1.394-0.867,2.074-1.266
		c0.375-0.258,0.726-0.305,1.055-0.141c1.477,0.891,2.648,1.77,3.516,2.637c0.281,0.352,0.199,0.68-0.246,0.984
		c-0.234,0.188-0.469,0.316-0.703,0.387c-0.445,0.188-0.738,0.445-0.879,0.773c-1.547,3.258-3.809,6.047-6.785,8.367
		c-2.414,1.828-5.203,3.258-8.367,4.289c-3.422,1.125-7.066,1.711-10.934,1.758c-0.469,0-0.738-0.117-0.809-0.352
		c-0.047-0.281,0.141-0.469,0.563-0.563c3.938-0.82,7.641-2.227,11.109-4.219c0.726-0.422,1.441-0.891,2.145-1.406
		c0.352-0.234,0.258-0.34-0.281-0.316c-1.125,0.047-1.805-0.504-2.039-1.652c-0.023-0.398,0.07-0.914,0.281-1.547
		c0.141-0.586,0.152-1.324,0.035-2.215c-0.047-0.094-0.281,0-0.703,0.281c-2.461,1.523-5.133,2.707-8.016,3.551
		c-0.54,0.141-0.879,0.117-1.02-0.07c-0.188-0.234-0.07-0.492,0.352-0.773c3.352-2.086,6.562-5.004,9.633-8.754
		c0.328-0.422,0.304-0.492-0.07-0.211c-3.117,2.391-6.773,3.973-10.969,4.746c-0.914,0.188-1.898,0.34-2.953,0.457
		c-0.469,0.047-0.75-0.07-0.844-0.352c-0.141-0.258,0.058-0.457,0.598-0.598c2.93-0.867,5.824-2.402,8.684-4.605
		c0.375-0.305,0.328-0.457-0.141-0.457c-0.938,0.047-1.535-0.352-1.793-1.195c-0.164-0.586-0.07-1.359,0.281-2.32
		c0.141-0.469,0.188-0.949,0.141-1.441c-0.07-0.422-0.293-0.516-0.668-0.281c-1.711,1.148-3.621,2.063-5.73,2.742
		c-0.445,0.164-0.762,0.117-0.949-0.141c-0.141-0.234,0.023-0.504,0.492-0.809c2.25-1.711,4.136-3.668,5.66-5.871
		C8.23,182.554,8.993,181.276,9.649,179.87z M12.848,184.335c-0.352,0-0.727,0.176-1.125,0.527
		c-0.492,0.469-1.008,0.902-1.547,1.301c-0.422,0.328-0.434,0.539-0.035,0.633c0.398,0.141,0.809,0.328,1.23,0.563
		c1.148,0.75,1.699,1.781,1.652,3.094c-0.047,0.375,0.164,0.34,0.633-0.105c1.781-1.781,3.152-3.586,4.113-5.414
		c0.211-0.398,0.141-0.598-0.211-0.598H12.848z M20.653,195.761c-0.375,0-0.738,0.176-1.09,0.527
		c-0.797,0.75-1.582,1.418-2.355,2.004c-0.469,0.352-0.516,0.574-0.141,0.668c2.156,0.703,3.176,2.004,3.059,3.902
		c-0.07,0.398,0.082,0.422,0.457,0.07c2.086-1.992,3.609-4.184,4.57-6.574c0.117-0.398-0.012-0.598-0.387-0.598H20.653z"/>
	<path fill="#2E3F2E" d="M13.516,221.183c-0.047-0.469,0.164-0.668,0.633-0.598c1.921,0.211,3.633,0.516,5.133,0.914
		c0.469,0.211,0.703,0.387,0.703,0.527c0.023,0.281-0.211,0.516-0.703,0.703c-0.469,0.305-0.703,0.691-0.703,1.16
		c-0.023,0.75-0.094,1.547-0.211,2.391c-0.023,0.375,0.152,0.563,0.527,0.563h6.012c0.352,0,0.761-0.199,1.23-0.598
		c0.445-0.352,0.891-0.668,1.336-0.949c0.469-0.211,0.961-0.199,1.477,0.035c1.266,0.68,2.18,1.348,2.742,2.004
		c0.304,0.469,0.105,0.902-0.598,1.301c-0.399,0.328-0.575,0.738-0.527,1.23v5.59l0.07,14.063c-0.118,1.078-0.703,1.945-1.758,2.602
		c-1.219,0.703-2.438,1.137-3.656,1.301c-0.399-0.094-0.656-0.434-0.773-1.02c-0.118-0.867-0.364-1.57-0.738-2.109
		c-0.445-0.633-1.324-1.078-2.637-1.336c-0.445-0.094-0.668-0.328-0.668-0.703c0.023-0.305,0.316-0.445,0.879-0.422
		c0.539,0.023,1.09,0.07,1.652,0.141h2.074c0.796,0,1.113-0.352,0.949-1.055v-18.316c0-0.398-0.176-0.598-0.527-0.598H18.79
		c-0.375,0-0.633,0.234-0.773,0.703c-0.094,0.375-0.223,0.75-0.387,1.125c-0.164,0.352-0.035,0.551,0.387,0.598
		c1.921,0.211,3.727,0.773,5.414,1.688c2.297,1.453,3.035,3.199,2.215,5.238c-0.54,0.844-1.301,1.207-2.285,1.09
		c-0.891-0.234-1.605-0.867-2.145-1.898c-0.891-1.875-2.203-3.469-3.938-4.781c-0.352-0.188-0.645-0.094-0.879,0.281
		c-0.352,0.586-0.821,1.184-1.406,1.793c-0.445,0.469-0.445,0.75,0,0.844c0.937,0.141,1.875,0.293,2.813,0.457
		c0.469,0.07,0.926,0.199,1.371,0.387c0.633,0.188,0.879,0.457,0.738,0.809c-0.118,0.281-0.434,0.469-0.949,0.563
		c-0.352,0.141-0.586,0.41-0.703,0.809c-0.047,0.211-0.118,0.434-0.211,0.668c-0.164,0.375-0.012,0.609,0.457,0.703
		c2.156,0.422,3.996,1.383,5.52,2.883c0.796,0.938,1.148,1.91,1.055,2.918c-0.118,1.195-0.715,1.957-1.793,2.285
		c-0.445,0.141-0.938,0.152-1.477,0.035c-0.492-0.094-0.938-0.422-1.336-0.984c-0.234-0.375-0.399-0.844-0.492-1.406
		c-0.188-1.57-0.856-2.977-2.004-4.219c-0.399-0.328-0.715-0.281-0.949,0.141c-0.445,0.844-1.09,1.758-1.934,2.742
		c-1.969,2.016-4.196,3.598-6.68,4.746c-0.469,0.211-0.797,0.199-0.984-0.035c-0.188-0.234-0.023-0.598,0.492-1.09
		c1.594-1.5,2.953-3.492,4.078-5.977c0.75-1.523,1.289-3.328,1.617-5.414c0.023-0.398-0.176-0.445-0.598-0.141
		c-1.359,1.078-3.094,2.051-5.203,2.918c-0.54,0.211-0.891,0.246-1.055,0.105c-0.188-0.188-0.281-0.094-0.281,0.281v8.965
		l0.07,4.184c0.093,0.773-0.305,1.219-1.195,1.336c-0.75,0.188-1.676,0.246-2.777,0.176c-0.797-0.07-1.102-0.527-0.914-1.371
		c0-1.617,0.035-3.246,0.105-4.887v-17.402c-0.023-1.359-0.118-2.695-0.281-4.008c-0.07-0.445,0.164-0.586,0.703-0.422
		c1.055,0.305,2.496,0.773,4.324,1.406h6.398c0.375,0,0.585-0.234,0.633-0.703C13.645,224.054,13.633,222.401,13.516,221.183z
		 M7.047,228.038c-0.375,0-0.563,0.188-0.563,0.563v8.965c0,0.375,0.234,0.375,0.703,0c1.57-1.313,2.871-2.789,3.902-4.43
		c1.125-1.758,1.828-3.27,2.109-4.535c0.047-0.375-0.105-0.563-0.457-0.563H7.047z"/>
	<path fill="#2E3F2E" d="M15.309,264.776c1.664-0.094,3.046,0.047,4.148,0.422c2.25,0.75,3.762,2.168,4.535,4.254
		c0.703,2.32-0.364,4.699-3.199,7.137c-1.195,0.984-2.192,1.922-2.988,2.813c-0.727,0.797-1.067,1.887-1.02,3.27
		c0,0.492-0.234,0.727-0.703,0.703H15.52c-0.492,0-0.738-0.234-0.738-0.703c-0.023-0.75-0.023-1.5,0-2.25
		c0.093-1.922,0.914-3.785,2.461-5.59c1.125-1.617,1.477-3.551,1.055-5.801c-0.094-0.492-0.27-0.961-0.527-1.406
		c-0.727-0.984-1.7-1.348-2.918-1.09c-0.445,0.023-0.797,0.152-1.055,0.387c-0.329,0.375-0.469,0.715-0.422,1.02
		c-0.023,0.258,0.105,0.48,0.387,0.668c1.007,0.773,1.383,1.723,1.125,2.848c-0.305,1.242-1.008,1.898-2.109,1.969
		c-1.055,0.141-1.992-0.082-2.813-0.668c-0.258-0.188-0.445-0.41-0.563-0.668c-0.445-0.984-0.563-2.063-0.352-3.234
		c0.234-1.078,0.937-2.016,2.109-2.813C12.449,265.245,13.833,264.823,15.309,264.776z M14.5,285.8
		c1.195-0.258,2.191-0.152,2.988,0.316c0.515,0.328,0.844,0.75,0.984,1.266c0.281,0.984,0.234,1.934-0.141,2.848
		c-0.329,0.563-0.75,0.926-1.266,1.09c-1.266,0.398-2.403,0.293-3.41-0.316c-0.727-0.82-1.032-1.77-0.914-2.848
		c0.047-0.445,0.188-0.902,0.422-1.371C13.539,286.269,13.985,285.94,14.5,285.8z"/>
</g>
</svg>
