<?xml version="1.0" encoding="utf-8"?>
<!-- Generator: Adobe Illustrator 16.0.0, SVG Export Plug-In . SVG Version: 6.00 Build 0)  -->
<!DOCTYPE svg PUBLIC "-//W3C//DTD SVG 1.1//EN" "http://www.w3.org/Graphics/SVG/1.1/DTD/svg11.dtd">
<svg version="1.1" id="圖層_1" xmlns="http://www.w3.org/2000/svg" xmlns:xlink="http://www.w3.org/1999/xlink" x="0px" y="0px"
	 width="88.992px" height="291.556px" viewBox="0 0 88.992 291.556" enable-background="new 0 0 88.992 291.556"
	 xml:space="preserve">
<g>
	<path fill="#2E3F2E" d="M68.239,0.552c0.093-0.445,0.363-0.621,0.809-0.527c2.391,0.492,4.254,0.973,5.59,1.441l0.352,0.176
		c0.328,0.164,0.363,0.41,0.105,0.738c-0.211,0.234-0.563,0.387-1.055,0.457c-0.399,0.141-0.668,0.445-0.809,0.914
		c-0.352,0.984-0.715,1.969-1.09,2.953c-0.188,0.422-0.105,0.633,0.246,0.633h2.215c0.375,0,0.75-0.188,1.125-0.563
		c0.398-0.398,0.796-0.773,1.195-1.125c0.422-0.352,0.773-0.457,1.055-0.316c0.937,0.445,1.863,1.09,2.777,1.934
		c0.844,0.563,0.891,1.102,0.141,1.617c-0.61,0.211-0.984,0.54-1.125,0.984c-0.305,0.821-0.586,1.652-0.844,2.496
		c-0.094,0.375-0.07,0.563,0.07,0.563c0.164,0,0.41-0.188,0.738-0.563c0.867-1.031,1.559-1.57,2.074-1.617
		c1.102,0.516,2.25,1.336,3.445,2.461c0.469,0.469,0.387,0.902-0.246,1.301l-0.527,0.316c-0.399,0.281-0.656,0.645-0.773,1.09
		c-0.234,0.75-0.434,1.5-0.598,2.25c-0.141,0.492-0.012,0.492,0.387,0c0.304-0.422,0.703-0.879,1.195-1.371
		c0.211-0.188,0.387-0.269,0.527-0.246c0.352,0.023,0.879,0.305,1.582,0.844c0.867,0.633,1.559,1.266,2.074,1.898
		c0.234,0.375,0.117,0.691-0.352,0.949c-0.234,0.211-0.41,0.445-0.527,0.703c-0.094,0.281-0.164,0.75-0.211,1.406
		c-0.188,1.781-0.469,3.633-0.844,5.555c-0.118,0.563-0.352,1.266-0.703,2.109c-0.118,0.445-0.48,0.949-1.09,1.512
		c-1.172,0.961-2.496,1.406-3.973,1.336c-0.656-0.164-0.973-0.516-0.949-1.055c-0.094-1.148-0.387-2.016-0.879-2.602
		c-0.563-0.586-1.148-0.973-1.758-1.16c-0.563-0.118-0.797-0.34-0.703-0.668c0.093-0.352,0.363-0.48,0.809-0.387
		c0.703,0.141,1.617,0.258,2.742,0.352c0.539,0.047,0.937,0.035,1.195-0.035c0.304,0,0.55-0.234,0.738-0.703
		c0.422-1.734,0.715-3.844,0.879-6.328c0.023-0.375-0.153-0.563-0.527-0.563H65.321c-0.352,0-0.727,0.234-1.125,0.703
		c-2.086,2.414-4.465,4.43-7.137,6.047c-0.469,0.281-0.786,0.329-0.949,0.141c-0.188-0.234-0.094-0.55,0.281-0.949
		c2.531-2.835,4.535-5.625,6.012-8.367c1.453-2.602,2.648-5.391,3.586-8.367c0.093-0.375-0.047-0.563-0.422-0.563h-3.902
		c-1.289,0.07-2.355,0.153-3.199,0.246c-0.445,0.047-0.797-0.199-1.055-0.738l-0.176-0.352c-0.211-0.469-0.083-0.668,0.387-0.598
		c1.336,0.164,2.707,0.246,4.113,0.246c0.422,0,0.504-0.058,0.246-0.176c-0.352-0.258-0.575-0.609-0.668-1.055
		c-0.118-1.289-0.281-2.215-0.492-2.777c-0.164-0.445-0.469-0.902-0.914-1.371c-0.54-0.515-0.738-0.867-0.598-1.055
		c0.141-0.234,0.445-0.339,0.914-0.316c1.875,0.094,3.503,0.727,4.887,1.898c0.984,0.938,1.218,2.122,0.703,3.551
		c-0.352,0.61-0.738,0.997-1.16,1.16c-0.375,0.118-0.329,0.188,0.141,0.211c0.375,0,0.761,0.023,1.16,0.07
		c0.398,0.023,0.668-0.199,0.809-0.668C67.465,4.478,67.958,2.45,68.239,0.552z M62.754,24.388c0.093-0.492,0.258-0.738,0.492-0.738
		c0.234,0,0.434,0.234,0.598,0.703c0.563,1.946,0.563,3.855,0,5.73c-0.469,1.195-1.243,1.863-2.32,2.004
		c-0.844,0.164-1.617,0.082-2.32-0.246c-0.516-0.258-0.844-0.668-0.984-1.23c-0.118-0.586-0.105-1.055,0.035-1.406
		c0.164-0.445,0.398-0.773,0.703-0.984C61.067,27.283,62.333,26.005,62.754,24.388z M66.938,22.771
		c0.304-0.093,0.645-0.012,1.02,0.246c2.016,1.547,2.895,3.34,2.637,5.379c0,0.75-0.422,1.394-1.266,1.934
		c-1.055,0.352-1.934,0.387-2.637,0.105c-0.821-0.469-1.125-1.23-0.914-2.285c0.07-0.234,0.176-0.469,0.316-0.703
		c0.633-1.078,0.867-2.332,0.703-3.762C66.704,23.146,66.75,22.841,66.938,22.771z M69.223,14.122c-0.352,0-0.633,0.188-0.844,0.563
		c-0.703,1.243-1.477,2.426-2.32,3.551c-0.305,0.375-0.258,0.563,0.141,0.563h11.25c0.375,0,0.621-0.223,0.738-0.668l0.914-3.445
		c0.07-0.375-0.083-0.563-0.457-0.563H69.223z M71.93,8.532c-0.375,0-0.645,0.246-0.809,0.738c-0.469,1.125-0.984,2.18-1.547,3.164
		c-0.188,0.375-0.094,0.563,0.281,0.563h3.516c0.375,0,0.633-0.234,0.773-0.703c0.304-1.055,0.633-2.109,0.984-3.164
		c0.117-0.398-0.012-0.598-0.387-0.598H71.93z M72.141,21.47c0.234-0.164,0.563-0.128,0.984,0.105
		c2.695,1.477,3.785,3.305,3.27,5.484c-0.563,1.266-1.605,1.793-3.129,1.582c-1.032-0.281-1.465-0.926-1.301-1.934
		c0.047-0.469,0.128-0.937,0.246-1.406c0.164-0.984,0.117-1.945-0.141-2.883C71.883,21.904,71.907,21.587,72.141,21.47z
		 M77.028,20.521c0.211-0.141,0.539-0.152,0.984-0.035c1.148,0.305,2.086,0.762,2.813,1.371c1.078,1.008,1.394,2.157,0.949,3.445
		c-0.258,0.68-0.75,1.102-1.477,1.266c-0.656,0.141-1.219,0.118-1.688-0.07c-0.586-0.281-0.879-0.75-0.879-1.406
		c0.047-0.633,0.047-1.277,0-1.934c-0.07-0.585-0.258-1.16-0.563-1.723C76.887,20.99,76.84,20.685,77.028,20.521z"/>
	<path fill="#2E3F2E" d="M62.192,42.091c0.047-0.469,0.304-0.656,0.773-0.563c1.828,0.399,3.433,0.867,4.816,1.406
		c0.539,0.164,0.703,0.434,0.492,0.809c-0.094,0.164-0.316,0.293-0.668,0.387c-0.047,0.023-0.118,0.035-0.211,0.035
		c-0.375,0.118-0.621,0.41-0.738,0.879c-0.516,1.781-1.09,3.387-1.723,4.816c-0.211,0.469-0.083,0.773,0.387,0.914
		c0.563,0.164,0.879,0.41,0.949,0.738c0,0.258-0.234,0.504-0.703,0.738c-0.375,0.211-0.563,0.504-0.563,0.879v14.309l0.141,5.484
		c0.117,0.585-0.176,0.984-0.879,1.195c-1.078,0.281-2.157,0.375-3.234,0.281c-0.445-0.094-0.738-0.281-0.879-0.563
		c-0.047-0.07-0.07-0.34-0.07-0.809l0.105-4.816V56.857c0-0.375-0.188-0.363-0.563,0.035c-0.656,0.656-1.441,1.289-2.355,1.898
		c-0.563,0.329-0.926,0.399-1.09,0.211c-0.164-0.188-0.105-0.515,0.176-0.984C59.59,53.259,61.536,47.951,62.192,42.091z
		 M74.04,42.197c-0.07-0.469,0.117-0.68,0.563-0.633c2.484,0.305,4.207,0.586,5.168,0.844c0.726,0.188,0.891,0.54,0.492,1.055
		c-0.047,0.047-0.188,0.105-0.422,0.176c-0.234,0.07-0.41,0.153-0.527,0.246c-0.118,0.094-0.176,0.329-0.176,0.703v8.719
		c0,0.375,0.188,0.563,0.563,0.563h1.125c0.375,0,0.738-0.234,1.09-0.703c1.031-1.336,1.793-2.18,2.285-2.531
		c0.141-0.093,0.304-0.105,0.492-0.035c1.125,0.633,2.391,1.7,3.797,3.199c0.515,0.445,0.598,0.879,0.246,1.301
		c-0.094,0.07-0.375,0.105-0.844,0.105h-8.156c-0.375,0-0.563,0.188-0.563,0.563v12.621l0.211,4.676
		c0.047,0.422-0.153,0.75-0.598,0.984c-0.867,0.281-1.898,0.41-3.094,0.387c-0.375,0.023-0.75-0.047-1.125-0.211
		c-0.258-0.211-0.41-0.41-0.457-0.598v-1.898c0.023-1.383,0.058-2.79,0.105-4.219V55.767c0-0.375-0.176-0.563-0.527-0.563H70.84
		c-1.289,0.023-2.566,0.094-3.832,0.211c-0.469,0.047-0.809-0.164-1.02-0.633l-0.211-0.492c-0.211-0.445-0.047-0.656,0.492-0.633
		c1.71,0.118,3.222,0.188,4.535,0.211h2.848c0.375,0,0.563-0.188,0.563-0.563v-7.629C74.215,44.201,74.157,43.041,74.04,42.197z"/>
	<path fill="#2E3F2E" d="M69.329,82.927c1.851-0.328,3.48-0.246,4.887,0.246c1.102,0.61,1.57,1.465,1.406,2.566
		c-0.141,0.445-0.023,0.668,0.352,0.668h4.852c0.375,0,0.761-0.234,1.16-0.703c0.563-0.585,1.137-1.172,1.723-1.758
		c0.469-0.281,0.926-0.304,1.371-0.07c0.609,0.399,1.242,0.914,1.898,1.547c0.867,0.68,1.359,1.266,1.477,1.758
		c0.023,0.164-0.094,0.305-0.352,0.422c-0.07,0.023-0.34,0.035-0.809,0.035H62.965c-0.375,0-0.575,0.234-0.598,0.703v2.25
		c0,0.375,0.234,0.598,0.703,0.668c0.961,0.118,1.957,0.188,2.988,0.211c0.375,0,0.574-0.234,0.598-0.703
		c0-0.609-0.07-1.348-0.211-2.215c-0.094-0.539,0.093-0.785,0.563-0.738c2.086,0.234,3.539,0.527,4.359,0.879
		c0.422,0.329,0.293,0.68-0.387,1.055c-0.375,0.329-0.563,0.691-0.563,1.09c0,0.422,0.035,0.633,0.105,0.633
		s0.234-0.188,0.492-0.563c0.304-0.422,0.621-0.855,0.949-1.301c0.328-0.352,0.609-0.574,0.844-0.668
		c0.328,0.023,0.703,0.223,1.125,0.598l1.301,1.371c0.375,0.375,0.738,0.563,1.09,0.563h1.688c0.375,0,0.563-0.188,0.563-0.563
		c0-0.656-0.059-1.477-0.176-2.461c-0.07-0.492,0.128-0.703,0.598-0.633c1.453,0.234,2.719,0.54,3.797,0.914
		c0.492,0.258,0.738,0.445,0.738,0.563c-0.07,0.305-0.27,0.54-0.598,0.703c-0.188,0.07-0.329,0.153-0.422,0.246
		c-0.094,0.094-0.141,0.316-0.141,0.668c0,0.375,0.093,0.563,0.281,0.563c0.211,0,0.469-0.234,0.773-0.703
		c0.352-0.445,0.715-0.902,1.09-1.371c0.375-0.422,0.726-0.539,1.055-0.352c1.242,0.891,2.167,1.84,2.777,2.848
		c0.07,0.211,0.058,0.375-0.035,0.492c-0.211,0.211-0.563,0.281-1.055,0.211h-4.324c-0.399,0-0.598,0.188-0.598,0.563v4.641
		l0.105,3.691c0.117,0.399-0.047,0.75-0.492,1.055c-0.844,0.305-1.77,0.399-2.777,0.281c-0.61-0.117-0.856-0.422-0.738-0.914
		c0.047-1.945,0.082-3.902,0.105-5.871c0-0.445-0.035-0.656-0.105-0.633c-0.07,0.07-0.129,0.164-0.176,0.281
		c-0.118,1.102-0.316,2.016-0.598,2.742c-0.352,0.938-1.02,1.875-2.004,2.813c-0.469,0.352-0.821,0.445-1.055,0.281
		c-0.234-0.164-0.258-0.48-0.07-0.949c0.656-2.109,0.844-4.23,0.563-6.363c-0.023-0.469,0.199-0.656,0.668-0.563
		c0.726,0.118,1.464,0.258,2.215,0.422c0.398,0.07,0.598-0.07,0.598-0.422v-0.457c0-0.375-0.188-0.563-0.563-0.563h-7.031
		c-0.375,0-0.563,0.188-0.563,0.563v4.746l0.105,4.043c0.07,0.586-0.223,0.961-0.879,1.125c-0.773,0.211-1.617,0.258-2.531,0.141
		c-0.445-0.141-0.645-0.457-0.598-0.949l0.105-6.047c0-0.375-0.035-0.55-0.105-0.527c-0.07,0.07-0.129,0.164-0.176,0.281
		c-0.118,1.148-0.293,2.074-0.527,2.777c-0.399,1.266-1.219,2.414-2.461,3.445c-0.445,0.329-0.762,0.399-0.949,0.211
		c-0.188-0.211-0.176-0.55,0.035-1.02c0.82-2.273,1.09-4.582,0.809-6.926c-0.047-0.469,0.152-0.68,0.598-0.633l2.215,0.422
		c0.375,0.07,0.563-0.082,0.563-0.457v-0.633c0-0.375-0.188-0.574-0.563-0.598c-0.844,0.023-1.665,0.094-2.461,0.211
		c-0.445,0.07-0.762-0.07-0.949-0.422c-0.188-0.352-0.281-0.328-0.281,0.07v1.898c0.047,5.906-0.41,10.465-1.371,13.676
		c-0.797,2.578-2.063,4.945-3.797,7.102c-0.399,0.469-0.727,0.621-0.984,0.457c-0.234-0.118-0.27-0.457-0.105-1.02
		c0.796-2.977,1.336-6.691,1.617-11.145c0.117-2.062,0.188-3.797,0.211-5.203v-3.973l0.035-1.371v-4.289
		c-0.023-1.102-0.105-2.167-0.246-3.199c-0.07-0.445,0.164-0.598,0.703-0.457c1.313,0.399,2.473,0.797,3.48,1.195
		c0.422,0.234,0.855,0.329,1.301,0.281h7.277c0.375,0,0.457-0.234,0.246-0.703c-0.281-0.82-0.832-1.418-1.652-1.793
		c-0.54-0.141-0.75-0.304-0.633-0.492C68.567,83.185,68.859,83.021,69.329,82.927z M71.403,101.7
		c0.164-0.492,0.469-0.656,0.914-0.492c1.359,0.54,2.73,1.09,4.113,1.652c0.563,0.118,0.785,0.41,0.668,0.879
		c-0.305,0.352-0.797,0.469-1.477,0.352c-0.211,0.023-0.445,0.118-0.703,0.281c-1.078,0.516-2.145,0.914-3.199,1.195
		c-0.329,0.094-0.27,0.164,0.176,0.211l2.145,0.141h2.25c0.164,0,0.328-0.035,0.492-0.105c0.585-0.398,1.207-1.02,1.863-1.863
		c0.304-0.469,0.691-0.621,1.16-0.457c1.898,0.68,3.292,1.23,4.184,1.652c0.492,0.352,0.726,0.621,0.703,0.809
		c-0.211,0.445-0.598,0.621-1.16,0.527c-0.305-0.07-0.527-0.07-0.668,0c-3.469,2.109-7.02,3.516-10.652,4.219
		c-0.375,0.093-0.387,0.152-0.035,0.176l4.289,0.176H81l1.406-0.07c0.375,0,0.445-0.234,0.211-0.703
		c-0.258-0.469-0.621-0.996-1.09-1.582c-0.422-0.445-0.551-0.761-0.387-0.949c0.188-0.188,0.515-0.211,0.984-0.07
		c1.5,0.399,2.895,1.137,4.184,2.215c1.547,1.359,2.004,2.824,1.371,4.395c-0.258,0.515-0.668,0.867-1.23,1.055
		c-0.375,0.117-0.879,0.141-1.512,0.07c-0.516-0.118-0.891-0.48-1.125-1.09c-0.094-0.281-0.188-0.75-0.281-1.406l-0.07-0.316
		c-0.118-0.375-0.399-0.516-0.844-0.422c-5.695,1.148-11.508,1.91-17.438,2.285c-0.399,0.023-0.691,0.258-0.879,0.703
		c-0.352,0.703-0.715,0.726-1.09,0.07c-0.445-1.359-0.821-2.86-1.125-4.5c-0.07-0.445,0.152-0.633,0.668-0.563
		c1.195,0.188,2.813,0.328,4.852,0.422c0.164,0.047,0.398,0,0.703-0.141c1.828-0.563,3.75-1.453,5.766-2.672
		c0.352-0.234,0.328-0.293-0.07-0.176c-1.852,0.586-3.867,1.02-6.047,1.301c-0.422,0.047-0.68,0.141-0.773,0.281
		c-0.118,0.54-0.364,0.75-0.738,0.633c-0.07-0.023-0.211-0.269-0.422-0.738c-0.234-0.75-0.504-1.886-0.809-3.41
		c-0.118-0.469,0.082-0.656,0.598-0.563c0.844,0.141,1.699,0.258,2.566,0.352c0.352,0.023,0.691-0.152,1.02-0.527
		C70.313,103.903,70.981,102.825,71.403,101.7z M71.157,94.388c-0.047-0.492,0.152-0.691,0.598-0.598
		c0.844,0.188,1.699,0.399,2.566,0.633c0.563,0.118,0.785,0.364,0.668,0.738c-0.07,0.118-0.211,0.246-0.422,0.387
		c-0.234,0.188-0.352,0.469-0.352,0.844v1.793l0.105,1.371c-0.118,0.492-0.516,0.762-1.195,0.809
		c-0.352,0.07-0.797,0.094-1.336,0.07c-0.281,0-0.469-0.164-0.563-0.492l0.07-1.477v-0.211v-2.602L71.157,94.388z M82.969,94.458
		c-0.047-0.469,0.152-0.68,0.598-0.633c1.172,0.234,2.086,0.445,2.742,0.633c0.234,0.094,0.41,0.188,0.527,0.281
		c0.093,0.118,0.128,0.223,0.105,0.316c0,0.211-0.129,0.375-0.387,0.492c-0.399,0.188-0.54,0.504-0.422,0.949
		c0,0.516,0.012,1.055,0.035,1.617c0.047,0.07,0.093,0.129,0.141,0.176c0.07,0.023,0.199-0.07,0.387-0.281
		c0.211-0.398,0.515-0.585,0.914-0.563c0.398-0.023,0.726,0.164,0.984,0.563c0.304,0.563,0.387,1.266,0.246,2.109
		c-0.258,0.633-0.645,0.973-1.16,1.02c-0.821,0.281-1.746,0.305-2.777,0.07c-0.469-0.047-0.914-0.363-1.336-0.949
		c-0.234-0.398-0.387-0.902-0.457-1.512v-3.059L82.969,94.458z"/>
	<path fill="#2E3F2E" d="M72.563,127.399c0-0.469,0.223-0.703,0.668-0.703h0.457c0.445,0,0.668,0.234,0.668,0.703v30.551
		c0,0.469-0.223,0.703-0.668,0.703h-0.422c-0.469,0-0.703-0.234-0.703-0.703V127.399z"/>
	<path fill="#2E3F2E" d="M72.563,147.2c0-0.469,0.223-0.703,0.668-0.703h0.457c0.445,0,0.668,0.234,0.668,0.703v30.551
		c0,0.469-0.223,0.703-0.668,0.703h-0.422c-0.469,0-0.703-0.234-0.703-0.703V147.2z"/>
	<path fill="#2E3F2E" d="M72.563,167c0-0.469,0.223-0.703,0.668-0.703h0.457c0.445,0,0.668,0.234,0.668,0.703v30.551
		c0,0.469-0.223,0.703-0.668,0.703h-0.422c-0.469,0-0.703-0.234-0.703-0.703V167z"/>
	<path fill="#2E3F2E" d="M16.493,14.489c0.492-0.492,0.937-0.68,1.336-0.563c0.609,0.329,1.266,0.809,1.969,1.441
		c0.469,0.516,0.703,0.844,0.703,0.984c-0.047,0.281-0.246,0.54-0.598,0.773l-0.352,0.352c-0.047,0.563-0.047,1.125,0,1.688
		c0.07,0.399,0.223,0.621,0.457,0.668c0.281,0.023,0.422,0.27,0.422,0.738c-0.118,0.563-0.047,0.997,0.211,1.301
		c0.258,0.329,0.387,0.293,0.387-0.105l0.035-1.617v-2.918l-0.211-2.637c-0.047-0.469,0.164-0.633,0.633-0.492
		c1.313,0.445,2.637,0.914,3.973,1.406h0.492c0.375,0,0.75-0.176,1.125-0.527c0.539-0.515,0.949-0.844,1.23-0.984
		c0.304-0.164,0.656-0.105,1.055,0.176c0.422,0.258,0.844,0.563,1.266,0.914c0.515,0.469,0.82,0.832,0.914,1.09
		c0.117,0.234-0.023,0.516-0.422,0.844c-0.352,0.329-0.527,0.68-0.527,1.055c0,0.375,0.023,0.773,0.07,1.195
		c0.047,0.329,0.211,0.516,0.492,0.563c0.281,0.023,0.41,0.27,0.387,0.738c-0.094,0.54,0,0.949,0.281,1.23
		c0.68,0.633,0.902,1.313,0.668,2.039c-0.188,0.492-0.586,0.902-1.195,1.23c-0.914,0.375-1.922,0.586-3.023,0.633h-2.391
		c-1.008-0.023-1.934-0.117-2.777-0.281c-0.563-0.07-1.078-0.375-1.547-0.914c-0.211-0.422-0.469-0.41-0.773,0.035
		c-0.329,0.305-0.773,0.563-1.336,0.773c-0.656,0.234-1.454,0.364-2.391,0.387h-1.793c-0.352,0-0.305,0.035,0.141,0.105
		c2.156,0.234,3.668,0.54,4.535,0.914c0.234,0.188,0.281,0.399,0.141,0.633c-0.118,0.211-0.305,0.352-0.563,0.422
		c-0.375,0.281-0.563,0.575-0.563,0.879c0,0.305,0.188,0.457,0.563,0.457h1.582c0.375,0,0.574-0.234,0.598-0.703
		c-0.023-0.539-0.105-1.195-0.246-1.969c-0.141-0.539,0-0.773,0.422-0.703c1.71,0.188,3.281,0.457,4.711,0.809
		c0.445,0.234,0.68,0.387,0.703,0.457c0.07,0.281-0.094,0.54-0.492,0.773c-0.329,0.258-0.492,0.551-0.492,0.879
		c0,0.399,0.176,0.352,0.527-0.141c0.703-0.914,1.266-1.523,1.688-1.828c0.164-0.047,0.469,0.083,0.914,0.387
		c1.313,1.102,2.145,2.027,2.496,2.777c0.047,0.094-0.012,0.211-0.176,0.352c-0.07,0.07-0.329,0.105-0.773,0.105h-4.078
		c-0.399,0-0.598,0.188-0.598,0.563v2.391c0,0.375,0.082,0.563,0.246,0.563c0.188,0,0.445-0.234,0.773-0.703
		c0.75-0.984,1.359-1.652,1.828-2.004c0.141-0.047,0.293-0.012,0.457,0.105c0.891,0.586,1.863,1.512,2.918,2.777
		c0.469,0.773,0.211,1.113-0.773,1.02H16.387c-0.445,0-0.41,0.094,0.105,0.281c1.617,0.633,2.895,1.208,3.832,1.723
		c0.422,0.281,0.633,0.469,0.633,0.563c-0.023,0.399-0.27,0.598-0.738,0.598l-0.492-0.07c-0.352-0.07-0.727,0.047-1.125,0.352
		c-1.969,1.148-4.078,1.922-6.328,2.32c-0.399,0.07-0.387,0.141,0.035,0.211c1.453,0.234,3.094,0.375,4.922,0.422h3.867
		c2.789-0.07,5.168-0.176,7.137-0.316c0.422-0.023,0.375-0.164-0.141-0.422c-0.352-0.234-0.797-0.656-1.336-1.266
		c-1.383-1.664-2.86-2.684-4.43-3.059c-0.445-0.093-0.61-0.281-0.492-0.563c0.07-0.258,0.339-0.398,0.809-0.422
		c1.429-0.07,2.777-0.035,4.043,0.105c0.961,0.07,1.886,0.281,2.777,0.633c1.734,0.727,2.32,2.004,1.758,3.832
		c-0.118,0.234-0.258,0.457-0.422,0.668c-0.258,0.188-0.141,0.258,0.352,0.211l1.055-0.105c0.539-0.093,0.796,0.082,0.773,0.527
		c-0.023,0.141-0.153,0.328-0.387,0.563c-0.305,0.398-0.516,0.984-0.633,1.758L31.75,44.97c-0.164,0.469-0.434,0.75-0.809,0.844
		h-3.48c-4.969-0.023-9.234-0.399-12.797-1.125c-2.039-0.375-3.891-1.184-5.555-2.426c-0.305-0.234-0.75-0.668-1.336-1.301
		c-0.258-0.352-0.54-0.304-0.844,0.141c-1.665,2.297-3.633,4.008-5.906,5.133c-0.469,0.211-0.786,0.223-0.949,0.035
		c-0.164-0.188-0.059-0.516,0.316-0.984C3.297,41.63,5.067,37.529,5.7,32.981c0.047-0.375,0-0.563-0.141-0.563
		c-0.164,0-0.34,0.234-0.527,0.703c-0.047,0.352-0.316,0.633-0.809,0.844C3.59,34.2,2.583,34.2,1.2,33.966
		c-0.329-0.047-0.586-0.152-0.773-0.316c-0.258-0.258-0.27-0.585-0.035-0.984c0.585-1.078,1.042-2.004,1.371-2.777l1.898-5.379
		c0.117-0.398-0.047-0.598-0.492-0.598c-0.61,0.023-1.219,0.059-1.828,0.105c-0.54,0.07-0.902-0.117-1.09-0.563
		c-0.023-0.093-0.059-0.199-0.105-0.316c-0.211-0.515-0.105-0.738,0.316-0.668c0.961,0.164,1.969,0.246,3.023,0.246
		c0.352,0,0.761-0.211,1.23-0.633c0.703-0.773,1.289-1.042,1.758-0.809c1.102,0.61,2.004,1.313,2.707,2.109
		c0.352,0.586,0.128,1.008-0.668,1.266c-0.375,0.164-0.656,0.48-0.844,0.949l-1.723,4.992c-0.118,0.375-0.129,0.575-0.035,0.598
		c0.093,0,0.375-0.246,0.844-0.738c0.445-0.445,0.855-0.726,1.23-0.844c0.328-0.023,0.809,0.199,1.441,0.668
		c0.445,0.305,0.914,0.68,1.406,1.125c0.515,0.422,0.738,0.786,0.668,1.09c-0.094,0.234-0.305,0.399-0.633,0.492
		c-0.375,0.211-0.575,0.375-0.598,0.492c0,0.07,0.199,0.129,0.598,0.176c0.961,0.094,1.921,0.153,2.883,0.176
		c0.398,0,0.598-0.188,0.598-0.563v-2.391c0-0.375-0.188-0.563-0.563-0.563c-0.773,0-1.5,0.047-2.18,0.141
		c-0.469,0.047-0.821-0.152-1.055-0.598l-0.246-0.457c-0.211-0.469-0.059-0.645,0.457-0.527c0.914,0.164,1.91,0.246,2.988,0.246
		c0.375,0,0.574-0.234,0.598-0.703c-0.023-0.82-0.129-1.559-0.316-2.215c-0.118-0.375-0.41-0.585-0.879-0.633l-1.371-0.246
		c-1.055-0.398-1.629-1.183-1.723-2.355v-5.309c-0.047-1.031-0.118-2.062-0.211-3.094c-0.047-0.445,0.199-0.585,0.738-0.422
		c1.172,0.399,2.332,0.809,3.48,1.23c0.281,0.094,0.563,0.141,0.844,0.141c0.328,0,0.68-0.176,1.055-0.527L16.493,14.489z
		 M1.797,13.716c0.141-0.234,0.434-0.304,0.879-0.211c1.828,0.211,3.211,0.633,4.148,1.266c0.445,0.281,0.867,0.703,1.266,1.266
		c0.539,0.984,0.668,1.957,0.387,2.918c-0.399,1.172-1.184,1.735-2.355,1.688c-0.563,0-1.02-0.082-1.371-0.246
		c-0.469-0.328-0.773-0.773-0.914-1.336c-0.094-0.469-0.153-0.937-0.176-1.406c-0.188-1.172-0.68-2.215-1.477-3.129
		C1.762,14.173,1.633,13.904,1.797,13.716z M10.059,34.985c-0.094-0.211-0.199-0.105-0.316,0.316
		c-0.329,0.984-0.821,2.133-1.477,3.445c-0.211,0.399-0.105,0.738,0.316,1.02c0.117,0.07,0.223,0.129,0.316,0.176
		c0.469,0.211,0.937,0.164,1.406-0.141c1.945-1.266,3.41-2.66,4.395-4.184c0.258-0.398,0.211-0.598-0.141-0.598
		c-1.336-0.023-2.555,0.023-3.656,0.141C10.434,35.208,10.152,35.149,10.059,34.985z M14.946,20.396
		c-0.492,0-0.738,0.176-0.738,0.527c-0.118,0.469,0.035,0.856,0.457,1.16c0.703,0.258,1.652,0.316,2.848,0.176
		c0.445-0.023,0.855-0.117,1.23-0.281c0.234-0.141,0.41-0.41,0.527-0.809c0.117-0.352-0.059-0.398-0.527-0.141
		c-0.54,0.164-1.23,0.246-2.074,0.246c-0.258-0.023-0.504-0.105-0.738-0.246c-0.141-0.141-0.223-0.293-0.246-0.457
		C15.684,20.454,15.438,20.396,14.946,20.396z M14.946,16.704c-0.492,0-0.738,0.188-0.738,0.563v1.406
		c0,0.375,0.234,0.563,0.703,0.563c0.515,0,0.773-0.188,0.773-0.563v-1.406C15.684,16.892,15.438,16.704,14.946,16.704z
		 M19.446,30.345c-0.375,0-0.563,0.188-0.563,0.563v2.391c0,0.375,0.188,0.563,0.563,0.563h1.582c0.398,0,0.598-0.188,0.598-0.563
		v-2.391c0-0.375-0.188-0.563-0.563-0.563H19.446z M25.985,16.704c-0.492,0-0.738,0.188-0.738,0.563v1.406
		c0,0.375,0.246,0.563,0.738,0.563c0.515,0,0.773-0.188,0.773-0.563v-1.406C26.758,16.892,26.5,16.704,25.985,16.704z M26.02,20.396
		c-0.516,0-0.773,0.176-0.773,0.527s0.023,0.621,0.07,0.809c0.234,0.305,0.48,0.457,0.738,0.457
		c1.078,0.234,2.308,0.176,3.691-0.176c0.304-0.117,0.515-0.375,0.633-0.773c0.141-0.445,0.188-0.633,0.141-0.563
		c-0.773,0.516-1.793,0.691-3.059,0.527c-0.352,0-0.586-0.211-0.703-0.633C26.758,20.454,26.512,20.396,26.02,20.396z"/>
	<path fill="#2E3F2E" d="M3.801,55.504c-0.07-0.492,0.117-0.715,0.563-0.668c2.062,0.211,3.679,0.504,4.852,0.879
		c0.539,0.164,0.656,0.445,0.352,0.844c-0.07,0.094-0.234,0.199-0.492,0.316c-0.352,0.305-0.527,0.645-0.527,1.02v3.938
		c0,0.422,0.093,0.387,0.281-0.105c0.093-0.328,0.223-0.656,0.387-0.984c0.328-0.445,0.539-0.668,0.633-0.668
		c0.281,0.047,0.563,0.329,0.844,0.844c0.234,0.399,0.445,0.809,0.633,1.23c0.188,0.422,0.281,0.399,0.281-0.07v-3.902
		c-0.023-0.773-0.083-1.547-0.176-2.32c-0.07-0.469,0.128-0.656,0.598-0.563c1.289,0.281,2.672,0.703,4.148,1.266h10.195
		c0.328,0,0.726-0.234,1.195-0.703c0.773-0.703,1.348-1.031,1.723-0.984c0.773,0.329,1.594,0.844,2.461,1.547
		c0.82,0.563,0.832,1.137,0.035,1.723c-0.281,0.305-0.422,0.633-0.422,0.984v2.566c0.023,0.399,0.023,0.786,0,1.16
		c0.164,0.727-0.129,1.195-0.879,1.406c-0.469,0.141-0.961,0.211-1.477,0.211c-0.399,0-0.364,0.188,0.105,0.563
		c0.937,0.68,1.617,1.313,2.039,1.898c0.093,0.188,0.082,0.352-0.035,0.492c-0.164,0.141-0.48,0.188-0.949,0.141h-5.977
		c-0.375,0-0.563,0.188-0.563,0.563v1.793c0,0.375,0.188,0.563,0.563,0.563h2.074c0.375,0,0.715-0.234,1.02-0.703
		c0.352-0.445,0.726-0.902,1.125-1.371c0.469-0.633,0.914-0.761,1.336-0.387c1.102,0.773,2.109,1.676,3.023,2.707
		c0.328,0.375,0.304,0.656-0.07,0.844c-0.047,0.047-0.305,0.07-0.773,0.07H25.95c-0.352,0-0.305,0.047,0.141,0.141
		c1.313,0.258,2.238,0.48,2.777,0.668c0.585,0.164,0.809,0.422,0.668,0.773c-0.023,0.047,0.199,0.199,0.668,0.457
		c0.796,0.656,1.605,1.43,2.426,2.32c0.469,0.422,0.527,0.809,0.176,1.16c-0.118,0.047-0.41,0.07-0.879,0.07h-7.734
		c-0.375,0-0.563,0.188-0.563,0.563v1.969c0,0.399,0.188,0.598,0.563,0.598h1.652c0.375,0,0.726-0.234,1.055-0.703
		c0.422-0.633,0.82-1.148,1.195-1.547c0.422-0.656,0.82-0.785,1.195-0.387c0.984,0.68,1.934,1.559,2.848,2.637
		c0.422,0.399,0.492,0.738,0.211,1.02c-0.188,0.094-0.516,0.141-0.984,0.141h-7.207c-0.375,0-0.563,0.188-0.563,0.563v2.215
		c0.047,0.633,0.07,1.277,0.07,1.934c0.164,0.867-0.258,1.359-1.266,1.477c-1.43,0.234-2.496,0.223-3.199-0.035
		c-0.375-0.211-0.516-0.48-0.422-0.809l0.07-4.746c0-0.375-0.223-0.563-0.668-0.563h-0.598h-2.777
		c-0.656,0.023-1.324,0.07-2.004,0.141c-0.54,0.07-0.926-0.117-1.16-0.563l-0.176-0.281c-0.258-0.563-0.153-0.809,0.316-0.738
		c1.078,0.141,2.332,0.223,3.762,0.246h2.777c0.375,0,0.563-0.176,0.563-0.527v-1.969c0-0.398-0.188-0.598-0.563-0.598h-4.465
		c-0.727,0.047-1.454,0.105-2.18,0.176c-0.445,0.047-0.786-0.164-1.02-0.633l-0.176-0.316c-0.258-0.492-0.153-0.715,0.316-0.668
		c1.453,0.164,2.988,0.246,4.605,0.246c0.398,0.023,0.492-0.199,0.281-0.668c-0.047-0.539-0.141-1.007-0.281-1.406
		c-0.164-0.656-0.563-1.16-1.195-1.512c-0.234-0.07-0.305-0.223-0.211-0.457c0.093-0.234-0.059-0.339-0.457-0.316
		c-0.375,0-0.762,0.023-1.16,0.07c-0.445,0.047-0.738-0.058-0.879-0.316c-0.094-0.211-0.34-0.141-0.738,0.211
		c-0.54,0.469-1.067,0.902-1.582,1.301c-0.445,0.305-0.668,0.645-0.668,1.02v9.633c-0.07,1.148-0.492,2.062-1.266,2.742
		c-1.195,0.844-2.32,1.289-3.375,1.336c-0.492,0.093-0.809-0.094-0.949-0.563c-0.141-1.102-0.422-2.027-0.844-2.777
		c-0.305-0.422-0.75-0.727-1.336-0.914c-0.492-0.188-0.715-0.445-0.668-0.773c0.047-0.305,0.328-0.445,0.844-0.422
		c0.609,0.117,1.418,0.128,2.426,0.035c0.234,0,0.398-0.035,0.492-0.105c0.047-0.047,0.082-0.316,0.105-0.809v-5.484
		c0-0.375-0.223-0.469-0.668-0.281c-0.445,0.047-0.715,0.293-0.809,0.738c-0.047,0.422-0.211,0.691-0.492,0.809
		c-0.329,0-0.551-0.176-0.668-0.527c-0.234-0.609-0.492-1.547-0.773-2.813L0.04,71.43c-0.118-0.445,0.093-0.645,0.633-0.598
		c0.891,0.023,1.805,0.012,2.742-0.035c0.375,0,0.563-0.188,0.563-0.563v-5.309c0-0.375-0.176-0.563-0.527-0.563
		c-0.61,0-1.324,0.035-2.145,0.105c-0.469,0.07-0.809-0.117-1.02-0.563l-0.211-0.492c-0.188-0.445-0.012-0.609,0.527-0.492
		c0.914,0.188,1.851,0.281,2.813,0.281c0.375,0,0.563-0.188,0.563-0.563v-4.219C3.954,57.438,3.895,56.465,3.801,55.504z
		 M16.528,63.977c-0.329,0-0.516,0.094-0.563,0.281c-0.094,0.469-0.527,0.786-1.301,0.949c-1.055,0.164-1.934,0.153-2.637-0.035
		c-0.329-0.164-0.492-0.387-0.492-0.668c0-0.117-0.188-0.176-0.563-0.176H9.145c-0.399,0-0.598,0.188-0.598,0.563v4.746
		c0,0.375,0.234,0.516,0.703,0.422c0.773-0.188,1.464-0.398,2.074-0.633c0.563-0.234,0.902-0.246,1.02-0.035
		c0.093,0.211,0.093,0.41,0,0.598c-0.141,0.188-0.012,0.316,0.387,0.387c0.68,0.07,1.371,0.118,2.074,0.141h3.551
		c0.375,0,0.563-0.188,0.563-0.563V68.16c0-0.375-0.188-0.563-0.563-0.563H16c-0.727,0.047-1.441,0.105-2.145,0.176
		c-0.54,0.047-0.926-0.128-1.16-0.527L12.52,66.93c-0.281-0.563-0.188-0.809,0.281-0.738c1.898,0.188,3.75,0.27,5.555,0.246
		c0.375,0,0.563-0.176,0.563-0.527v-1.371c0-0.375-0.188-0.563-0.563-0.563H16.528z M16.563,57.824
		c-0.399,0-0.598,0.188-0.598,0.563v3.902c0,0.375,0.188,0.563,0.563,0.563c0.422,0,0.633-0.176,0.633-0.527v-3.938
		C17.161,58.012,16.961,57.824,16.563,57.824z M17.793,71.781l0.422,0.141c1.148,0.469,1.723,1.336,1.723,2.602
		c0,0.375-0.141,0.75-0.422,1.125c-0.258,0.305-0.199,0.457,0.176,0.457h2.32c0.375,0,0.668-0.234,0.879-0.703
		c0.398-1.031,0.668-2.097,0.809-3.199c0.023-0.375-0.141-0.563-0.492-0.563h-5.52C17.336,71.641,17.372,71.688,17.793,71.781z
		 M21.415,57.824c-0.375,0-0.563,0.188-0.563,0.563v3.902c0,0.375,0.188,0.563,0.563,0.563c0.375,0,0.563-0.176,0.563-0.527v-3.938
		C21.977,58.012,21.789,57.824,21.415,57.824z M24.192,63.941c-0.375,0-0.563,0.188-0.563,0.563v1.336
		c0,0.375,0.188,0.563,0.563,0.563H25c0.375,0,0.738-0.223,1.09-0.668c0.164-0.234,0.339-0.469,0.527-0.703
		c0.422-0.445,0.609-0.703,0.563-0.773c-0.07-0.304-0.329-0.41-0.773-0.316H24.192z M28.305,73.715
		c-0.141,0.023-0.258,0.07-0.352,0.141c-0.61,0.75-1.477,1.406-2.602,1.969c-0.399,0.188-0.422,0.281-0.07,0.281h1.16
		c0.375,0,0.715-0.234,1.02-0.703l0.949-1.23C28.785,73.773,28.75,73.622,28.305,73.715z M26.336,57.824
		c-0.445,0-0.668,0.188-0.668,0.563v3.902c0,0.375,0.211,0.563,0.633,0.563c0.445,0,0.668-0.176,0.668-0.527v-3.938
		C26.969,58.012,26.758,57.824,26.336,57.824z"/>
	<path fill="#2E3F2E" d="M26.231,97.536c0.515-0.469,1.113-0.363,1.793,0.316c0.867,0.68,1.898,1.605,3.094,2.777
		c0.469,0.516,0.48,0.973,0.035,1.371c-0.188,0.07-0.54,0.105-1.055,0.105c-0.188,0.023-0.375,0.023-0.563,0
		c-0.118,0.023-0.234,0.07-0.352,0.141c-2.297,1.617-4.899,2.953-7.805,4.008c-0.422,0.118-0.575,0.199-0.457,0.246
		c0.422,0.234,0.585,0.551,0.492,0.949c-0.07,0.258-0.316,0.48-0.738,0.668c-0.375,0.305-0.563,0.68-0.563,1.125l0.035,0.633v9.07
		c0,1.805-0.012,3.609-0.035,5.414c-0.375,2.859-2.297,4.488-5.766,4.887c-0.399,0-0.656-0.023-0.773-0.07
		c-0.211-0.118-0.34-0.281-0.387-0.492c-0.164-1.055-0.399-1.981-0.703-2.777c-0.211-0.68-0.656-1.195-1.336-1.547
		c-0.773-0.352-1.7-0.645-2.777-0.879c-0.492-0.117-0.715-0.363-0.668-0.738c0.047-0.398,0.352-0.585,0.914-0.563
		c0.891,0.023,1.816,0.059,2.777,0.105h2.32c0.82,0.188,1.195-0.188,1.125-1.125v-11.18c-0.023-1.453-0.083-2.765-0.176-3.938
		c-0.023-0.469,0.188-0.656,0.633-0.563l2.637,0.422c0.398,0.07,0.761-0.058,1.09-0.387c1.383-1.359,2.765-2.684,4.148-3.973
		l0.176-0.176c0.328-0.422,0.328-0.633,0-0.633H7c-1.125,0.07-2.25,0.153-3.375,0.246c-0.469,0.07-0.797-0.128-0.984-0.598
		l-0.316-0.809c-0.188-0.469-0.023-0.656,0.492-0.563c1.898,0.234,3.679,0.375,5.344,0.422h15.328c0.375,0,0.75-0.188,1.125-0.563
		C25.153,98.333,25.691,97.888,26.231,97.536z"/>
	<path fill="#2E3F2E" d="M19.235,138.389c0.047-0.539,0.304-0.761,0.773-0.668c1.781,0.305,3.41,0.691,4.887,1.16
		c0.352,0.07,0.645,0.211,0.879,0.422c0.164,0.164,0.188,0.329,0.07,0.492c-0.141,0.234-0.352,0.375-0.633,0.422l-0.809,0.105
		c-0.961,0.609-1.911,1.066-2.848,1.371c-0.375,0.117-0.387,0.176-0.035,0.176h2.566c0.375,0,0.761-0.223,1.16-0.668
		c0.328-0.422,0.68-0.832,1.055-1.23c0.492-0.398,0.949-0.504,1.371-0.316c0.515,0.305,1.429,1.031,2.742,2.18
		c0.445,0.422,0.492,0.797,0.141,1.125c-0.094,0.023-0.375,0.035-0.844,0.035h-2.566c-0.422,0-0.387,0.141,0.105,0.422
		c0.984,0.75,1.758,1.441,2.32,2.074c0.117,0.281,0.082,0.516-0.105,0.703c-0.047,0.047,0.164,0.258,0.633,0.633
		c0.891,0.703,1.617,1.359,2.18,1.969c0.304,0.773,0,1.078-0.914,0.914h-9.387c-0.399,0-0.364,0.164,0.105,0.492
		c2.976,1.875,6.386,2.824,10.23,2.848c0.445,0,0.645,0.141,0.598,0.422c-0.07,0.305-0.188,0.48-0.352,0.527
		c-0.281,0.117-0.563,0.387-0.844,0.809c-0.305,0.609-0.492,1.313-0.563,2.109c-0.211,0.938-0.773,1.219-1.688,0.844
		c-0.914-0.234-2.074-0.773-3.48-1.617c-0.047,0.047-0.094,0.129-0.141,0.246v1.828l0.105,2.32c0.023,0.422,0.093,0.516,0.211,0.281
		c0.141-0.281,0.434-0.305,0.879-0.07c1.429,0.727,2.566,1.359,3.41,1.898c0.773,0.352,1.007,0.727,0.703,1.125
		c-0.047,0.07-0.305,0.094-0.773,0.07c-0.352-0.117-0.68-0.082-0.984,0.105c-1.289,0.563-2.508,0.902-3.656,1.02
		c-0.422,0.07-0.399,0.152,0.07,0.246c2.132,0.375,4.23,0.469,6.293,0.281c0.515-0.07,0.726,0.047,0.633,0.352
		c-0.023,0.352-0.083,0.527-0.176,0.527c-0.211,0.023-0.375,0.117-0.492,0.281c-0.399,0.609-0.68,1.535-0.844,2.777
		c-0.07,0.398-0.27,0.738-0.598,1.02c-0.305,0.141-0.715,0.188-1.23,0.141c-2.672-0.281-5.449-1.359-8.332-3.234
		c-0.867-0.539-1.688-1.16-2.461-1.863c-0.445-0.445-0.633-0.563-0.563-0.352c0.047,0.164-0.164,0.398-0.633,0.703
		c-1.735,1.031-3.539,1.805-5.414,2.32c-1.852,0.539-3.809,0.973-5.871,1.301c-0.352,0.07-0.551,0.211-0.598,0.422
		c0,0.328-0.129,0.586-0.387,0.773c-0.375,0.094-0.621,0-0.738-0.281c-0.492-0.891-1.02-2.508-1.582-4.852
		c-0.118-0.469,0.058-0.668,0.527-0.598c0.82,0.141,1.723,0.223,2.707,0.246c0.398,0.023,0.598-0.152,0.598-0.527V156.6
		c0-0.375-0.234-0.434-0.703-0.176c-1.43,0.797-3.059,1.441-4.887,1.934c-0.469,0.117-0.773,0.07-0.914-0.141
		s0.047-0.48,0.563-0.809c2.976-2.016,5.437-4.395,7.383-7.137c0.234-0.375,0.164-0.563-0.211-0.563H5.383
		c-1.008,0.023-2.004,0.094-2.988,0.211c-0.469,0.07-0.797-0.129-0.984-0.598l-0.176-0.352c-0.281-0.516-0.188-0.75,0.281-0.703
		c1.383,0.164,2.93,0.27,4.641,0.316h7.172c0.398,0,0.598-0.188,0.598-0.563v-1.125c0-0.398-0.188-0.598-0.563-0.598H9.11
		c-1.243,0.047-2.473,0.105-3.691,0.176c-0.469,0.07-0.832-0.129-1.09-0.598c-0.07-0.141-0.129-0.293-0.176-0.457
		c-0.211-0.422-0.047-0.598,0.492-0.527c1.359,0.164,2.742,0.258,4.148,0.281h4.535c0.398,0,0.598-0.188,0.598-0.563v-1.055
		c0-0.375-0.188-0.563-0.563-0.563H6.79c-0.984,0.023-1.981,0.094-2.988,0.211c-0.563,0.07-0.961-0.129-1.195-0.598l-0.176-0.387
		c-0.234-0.469-0.118-0.68,0.352-0.633c1.64,0.164,3.305,0.258,4.992,0.281h1.828c0.375,0,0.434-0.223,0.176-0.668
		c-0.258-0.961-0.809-1.734-1.652-2.32c-0.54-0.281-0.773-0.515-0.703-0.703c0.07-0.258,0.328-0.398,0.773-0.422
		c1.781-0.023,3.34,0.176,4.676,0.598c1.383,0.54,1.886,1.512,1.512,2.918c-0.258,0.398-0.223,0.598,0.105,0.598h3.164
		c0.375,0,0.656-0.223,0.844-0.668C18.801,140.334,19.047,139.396,19.235,138.389z M13.786,150.904
		c-0.164-0.047-0.434,0.141-0.809,0.563c-0.656,0.727-1.348,1.383-2.074,1.969c-0.399,0.328-0.399,0.563,0,0.703
		c0.375,0.211,0.75,0.281,1.125,0.211h3.27c0.375,0,0.434-0.234,0.176-0.703c-0.164-0.797-0.434-1.488-0.809-2.074
		C14.383,151.174,14.09,150.951,13.786,150.904z M11.852,161.803c-0.375,0-0.563,0.188-0.563,0.563v2.25
		c0,0.375,0.188,0.563,0.563,0.563c1.898-0.023,3.679-0.164,5.344-0.422c0.375-0.047,0.398-0.258,0.07-0.633
		c-0.469-0.539-0.856-1.09-1.16-1.652c-0.258-0.445-0.575-0.668-0.949-0.668H11.852z M11.887,155.545
		c-0.375,0-0.563,0.176-0.563,0.527v0.668c0,0.375,0.188,0.563,0.563,0.563h8.824c0.398,0,0.598-0.188,0.598-0.563v-0.633
		c0-0.375-0.188-0.563-0.563-0.563H11.887z M11.887,158.498c-0.375,0-0.563,0.188-0.563,0.563v0.984
		c0,0.375,0.188,0.563,0.563,0.563h8.824c0.398,0,0.598-0.188,0.598-0.563v-0.984c0-0.375-0.188-0.563-0.563-0.563H11.887z
		 M14.911,149.709c-0.329,0-0.54,0.059-0.633,0.176c-0.118,0.141,0.023,0.211,0.422,0.211c1.125,0,2.132,0.117,3.023,0.352
		c1.266,0.328,1.934,1.031,2.004,2.109c0.023,0.422-0.083,0.832-0.316,1.23c-0.352,0.375-0.34,0.563,0.035,0.563h1.16
		c0.375,0.094,0.785-0.023,1.23-0.352c0.469-0.234,0.492-0.586,0.07-1.055c-0.844-0.961-1.477-1.828-1.898-2.602
		c-0.211-0.422-0.492-0.633-0.844-0.633H14.911z M18.04,161.803c-0.375,0-0.375,0.129,0,0.387c1.453,0.938,2.883,1.641,4.289,2.109
		c0.375,0.117,0.796,0.012,1.266-0.316c0.352-0.305,0.703-0.633,1.055-0.984c0.375-0.422,0.328-0.586-0.141-0.492
		c-0.727,0.164-1.641,0.176-2.742,0.035c-0.305-0.164-0.469-0.34-0.492-0.527c-0.047-0.141-0.258-0.211-0.633-0.211H18.04z
		 M19.305,142.994c-0.375,0-0.563,0.188-0.563,0.563v1.02c0,0.398,0.188,0.598,0.563,0.598h3.867c0.375,0,0.738-0.199,1.09-0.598
		c0.328-0.352,0.668-0.703,1.02-1.055s0.352-0.527,0-0.527H19.305z M19.305,146.299c-0.375,0-0.563,0.188-0.563,0.563v1.125
		c0,0.398,0.188,0.598,0.563,0.598h6.398c0.375,0,0.761-0.234,1.16-0.703c0.258-0.328,0.563-0.656,0.914-0.984
		c0.375-0.398,0.375-0.598,0-0.598H19.305z"/>
	<path fill="#2E3F2E" d="M9.567,179.87c0.211-0.539,0.539-0.75,0.984-0.633c2.016,0.633,3.598,1.195,4.746,1.688
		c0.469,0.305,0.703,0.516,0.703,0.633c-0.118,0.398-0.54,0.609-1.266,0.633c-0.305-0.047-0.575,0.07-0.809,0.352
		c-0.352,0.375-0.34,0.563,0.035,0.563h3.551c0.375,0,0.68-0.07,0.914-0.211c0.703-0.516,1.394-0.996,2.074-1.441
		c0.281-0.141,0.515-0.199,0.703-0.176c0.375,0.117,0.844,0.375,1.406,0.773c0.796,0.563,1.488,1.113,2.074,1.652
		c0.585,0.445,0.55,0.891-0.105,1.336c-0.352,0.188-0.703,0.34-1.055,0.457c-0.305,0.141-0.516,0.281-0.633,0.422
		c-0.961,1.641-2.122,3.129-3.48,4.465c-0.399,0.375-0.422,0.621-0.07,0.738c1.617,0.492,2.965,0.973,4.043,1.441
		c0.234,0.164,0.316,0.363,0.246,0.598c-0.094,0.305-0.329,0.469-0.703,0.492c-0.68,0.07-1.137,0.234-1.371,0.492
		c-0.234,0.234-0.153,0.352,0.246,0.352h2.848c0.375,0,0.68-0.07,0.914-0.211c0.703-0.445,1.394-0.867,2.074-1.266
		c0.375-0.258,0.726-0.305,1.055-0.141c1.477,0.891,2.648,1.77,3.516,2.637c0.281,0.352,0.199,0.68-0.246,0.984
		c-0.234,0.188-0.469,0.316-0.703,0.387c-0.445,0.188-0.738,0.445-0.879,0.773c-1.547,3.258-3.809,6.047-6.785,8.367
		c-2.414,1.828-5.203,3.258-8.367,4.289c-3.422,1.125-7.066,1.711-10.934,1.758c-0.469,0-0.738-0.117-0.809-0.352
		c-0.047-0.281,0.141-0.469,0.563-0.563c3.938-0.82,7.641-2.227,11.109-4.219c0.726-0.422,1.441-0.891,2.145-1.406
		c0.352-0.234,0.258-0.34-0.281-0.316c-1.125,0.047-1.805-0.504-2.039-1.652c-0.023-0.398,0.07-0.914,0.281-1.547
		c0.141-0.586,0.152-1.324,0.035-2.215c-0.047-0.094-0.281,0-0.703,0.281c-2.461,1.523-5.133,2.707-8.016,3.551
		c-0.54,0.141-0.879,0.117-1.02-0.07c-0.188-0.234-0.07-0.492,0.352-0.773c3.352-2.086,6.562-5.004,9.633-8.754
		c0.328-0.422,0.304-0.492-0.07-0.211c-3.117,2.391-6.773,3.973-10.969,4.746c-0.914,0.188-1.898,0.34-2.953,0.457
		c-0.469,0.047-0.75-0.07-0.844-0.352c-0.141-0.258,0.058-0.457,0.598-0.598c2.93-0.867,5.824-2.402,8.684-4.605
		c0.375-0.305,0.328-0.457-0.141-0.457c-0.938,0.047-1.535-0.352-1.793-1.195c-0.164-0.586-0.07-1.359,0.281-2.32
		c0.141-0.469,0.188-0.949,0.141-1.441c-0.07-0.422-0.293-0.516-0.668-0.281c-1.711,1.148-3.621,2.063-5.73,2.742
		c-0.445,0.164-0.762,0.117-0.949-0.141c-0.141-0.234,0.023-0.504,0.492-0.809c2.25-1.711,4.136-3.668,5.66-5.871
		C8.148,182.554,8.911,181.276,9.567,179.87z M12.766,184.335c-0.352,0-0.727,0.176-1.125,0.527
		c-0.492,0.469-1.008,0.902-1.547,1.301c-0.422,0.328-0.434,0.539-0.035,0.633c0.398,0.141,0.809,0.328,1.23,0.563
		c1.148,0.75,1.699,1.781,1.652,3.094c-0.047,0.375,0.164,0.34,0.633-0.105c1.781-1.781,3.152-3.586,4.113-5.414
		c0.211-0.398,0.141-0.598-0.211-0.598H12.766z M20.571,195.761c-0.375,0-0.738,0.176-1.09,0.527
		c-0.797,0.75-1.582,1.418-2.355,2.004c-0.469,0.352-0.516,0.574-0.141,0.668c2.156,0.703,3.176,2.004,3.059,3.902
		c-0.07,0.398,0.082,0.422,0.457,0.07c2.086-1.992,3.609-4.184,4.57-6.574c0.117-0.398-0.012-0.598-0.387-0.598H20.571z"/>
	<path fill="#2E3F2E" d="M13.434,221.183c-0.047-0.469,0.164-0.668,0.633-0.598c1.921,0.211,3.633,0.516,5.133,0.914
		c0.469,0.211,0.703,0.387,0.703,0.527c0.023,0.281-0.211,0.516-0.703,0.703c-0.469,0.305-0.703,0.691-0.703,1.16
		c-0.023,0.75-0.094,1.547-0.211,2.391c-0.023,0.375,0.152,0.563,0.527,0.563h6.012c0.352,0,0.761-0.199,1.23-0.598
		c0.445-0.352,0.891-0.668,1.336-0.949c0.469-0.211,0.961-0.199,1.477,0.035c1.266,0.68,2.18,1.348,2.742,2.004
		c0.304,0.469,0.105,0.902-0.598,1.301c-0.399,0.328-0.575,0.738-0.527,1.23v5.59l0.07,14.063c-0.118,1.078-0.703,1.945-1.758,2.602
		c-1.219,0.703-2.438,1.137-3.656,1.301c-0.399-0.094-0.656-0.434-0.773-1.02c-0.118-0.867-0.364-1.57-0.738-2.109
		c-0.445-0.633-1.324-1.078-2.637-1.336c-0.445-0.094-0.668-0.328-0.668-0.703c0.023-0.305,0.316-0.445,0.879-0.422
		c0.539,0.023,1.09,0.07,1.652,0.141h2.074c0.796,0,1.113-0.352,0.949-1.055v-18.316c0-0.398-0.176-0.598-0.527-0.598h-6.645
		c-0.375,0-0.633,0.234-0.773,0.703c-0.094,0.375-0.223,0.75-0.387,1.125c-0.164,0.352-0.035,0.551,0.387,0.598
		c1.921,0.211,3.727,0.773,5.414,1.688c2.297,1.453,3.035,3.199,2.215,5.238c-0.54,0.844-1.301,1.207-2.285,1.09
		c-0.891-0.234-1.605-0.867-2.145-1.898c-0.891-1.875-2.203-3.469-3.938-4.781c-0.352-0.188-0.645-0.094-0.879,0.281
		c-0.352,0.586-0.821,1.184-1.406,1.793c-0.445,0.469-0.445,0.75,0,0.844c0.937,0.141,1.875,0.293,2.813,0.457
		c0.469,0.07,0.926,0.199,1.371,0.387c0.633,0.188,0.879,0.457,0.738,0.809c-0.118,0.281-0.434,0.469-0.949,0.563
		c-0.352,0.141-0.586,0.41-0.703,0.809c-0.047,0.211-0.118,0.434-0.211,0.668c-0.164,0.375-0.012,0.609,0.457,0.703
		c2.156,0.422,3.996,1.383,5.52,2.883c0.796,0.938,1.148,1.91,1.055,2.918c-0.118,1.195-0.715,1.957-1.793,2.285
		c-0.445,0.141-0.938,0.152-1.477,0.035c-0.492-0.094-0.938-0.422-1.336-0.984c-0.234-0.375-0.399-0.844-0.492-1.406
		c-0.188-1.57-0.856-2.977-2.004-4.219c-0.399-0.328-0.715-0.281-0.949,0.141c-0.445,0.844-1.09,1.758-1.934,2.742
		c-1.969,2.016-4.196,3.598-6.68,4.746c-0.469,0.211-0.797,0.199-0.984-0.035c-0.188-0.234-0.023-0.598,0.492-1.09
		c1.594-1.5,2.953-3.492,4.078-5.977c0.75-1.523,1.289-3.328,1.617-5.414c0.023-0.398-0.176-0.445-0.598-0.141
		c-1.359,1.078-3.094,2.051-5.203,2.918c-0.54,0.211-0.891,0.246-1.055,0.105c-0.188-0.188-0.281-0.094-0.281,0.281v8.965
		l0.07,4.184c0.093,0.773-0.305,1.219-1.195,1.336c-0.75,0.188-1.676,0.246-2.777,0.176c-0.797-0.07-1.102-0.527-0.914-1.371
		c0-1.617,0.035-3.246,0.105-4.887v-17.402c-0.023-1.359-0.118-2.695-0.281-4.008c-0.07-0.445,0.164-0.586,0.703-0.422
		c1.055,0.305,2.496,0.773,4.324,1.406h6.398c0.375,0,0.585-0.234,0.633-0.703C13.563,224.054,13.551,222.401,13.434,221.183z
		 M6.965,228.038c-0.375,0-0.563,0.188-0.563,0.563v8.965c0,0.375,0.234,0.375,0.703,0c1.57-1.313,2.871-2.789,3.902-4.43
		c1.125-1.758,1.828-3.27,2.109-4.535c0.047-0.375-0.105-0.563-0.457-0.563H6.965z"/>
	<path fill="#2E3F2E" d="M15.227,264.776c1.664-0.094,3.046,0.047,4.148,0.422c2.25,0.75,3.762,2.168,4.535,4.254
		c0.703,2.32-0.364,4.699-3.199,7.137c-1.195,0.984-2.192,1.922-2.988,2.813c-0.727,0.797-1.067,1.887-1.02,3.27
		c0,0.492-0.234,0.727-0.703,0.703h-0.563c-0.492,0-0.738-0.234-0.738-0.703c-0.023-0.75-0.023-1.5,0-2.25
		c0.093-1.922,0.914-3.785,2.461-5.59c1.125-1.617,1.477-3.551,1.055-5.801c-0.094-0.492-0.27-0.961-0.527-1.406
		c-0.727-0.984-1.7-1.348-2.918-1.09c-0.445,0.023-0.797,0.152-1.055,0.387c-0.329,0.375-0.469,0.715-0.422,1.02
		c-0.023,0.258,0.105,0.48,0.387,0.668c1.007,0.773,1.383,1.723,1.125,2.848c-0.305,1.242-1.008,1.898-2.109,1.969
		c-1.055,0.141-1.992-0.082-2.813-0.668c-0.258-0.188-0.445-0.41-0.563-0.668c-0.445-0.984-0.563-2.063-0.352-3.234
		c0.234-1.078,0.937-2.016,2.109-2.813C12.367,265.245,13.75,264.823,15.227,264.776z M14.418,285.8
		c1.195-0.258,2.191-0.152,2.988,0.316c0.515,0.328,0.844,0.75,0.984,1.266c0.281,0.984,0.234,1.934-0.141,2.848
		c-0.329,0.563-0.75,0.926-1.266,1.09c-1.266,0.398-2.403,0.293-3.41-0.316c-0.727-0.82-1.032-1.77-0.914-2.848
		c0.047-0.445,0.188-0.902,0.422-1.371C13.457,286.269,13.903,285.94,14.418,285.8z"/>
</g>
</svg>
