<?xml version="1.0" encoding="utf-8"?>
<!-- Generator: Adobe Illustrator 16.0.0, SVG Export Plug-In . SVG Version: 6.00 Build 0)  -->
<!DOCTYPE svg PUBLIC "-//W3C//DTD SVG 1.1//EN" "http://www.w3.org/Graphics/SVG/1.1/DTD/svg11.dtd">
<svg version="1.1" id="圖層_1" xmlns="http://www.w3.org/2000/svg" xmlns:xlink="http://www.w3.org/1999/xlink" x="0px" y="0px"
	 width="433.763px" height="115.989px" viewBox="0 0 433.763 115.989" enable-background="new 0 0 433.763 115.989"
	 xml:space="preserve">
<g>
	<path fill="#2E3F2E" d="M74.102,30.673c0.094-0.625,0.328-0.891,0.703-0.797c0.375,0.063,0.609,0.406,0.703,1.031
		c0.156,1.938,0.125,3.532-0.094,4.781c-0.188,1.437-0.609,2.672-1.266,3.703c-0.781,1.031-1.672,1.625-2.672,1.781
		c-0.438,0.094-1.094,0.094-1.969,0c-1.656-0.281-2.531-1.188-2.625-2.719c-0.188-1.531,0.406-2.672,1.781-3.422
		c1.656-0.406,2.891-0.953,3.703-1.641C73.368,32.518,73.946,31.611,74.102,30.673z M75.508,0.908
		c-0.094-0.687,0.156-0.984,0.75-0.891c2.813,0.344,5,0.781,6.563,1.313c0.938,0.313,0.938,0.781,0,1.406
		c-0.125,0.031-0.344,0.125-0.656,0.281c-0.344,0.25-0.516,0.625-0.516,1.125v2.859c0,0.469,0.047,0.719,0.141,0.75
		c0.125,0,0.359-0.25,0.703-0.75c0.375-0.563,0.797-1.141,1.266-1.734c0.344-0.563,0.734-0.859,1.172-0.891
		c1.063,0.563,2.25,1.704,3.563,3.422c0.5,0.469,0.594,0.922,0.281,1.359c-0.156,0.157-0.547,0.234-1.172,0.234h-5.156
		c-0.531,0-0.797,0.234-0.797,0.703v1.219c0,0.5,0.313,0.797,0.938,0.891c1.75,0.25,3.297,0.875,4.641,1.875
		c1.313,1.156,1.813,2.422,1.5,3.797c-0.438,1.531-1.5,2.266-3.188,2.203c-0.563-0.031-1.031-0.281-1.406-0.75
		c-0.375-0.563-0.594-1.188-0.656-1.875c-0.094-0.968-0.438-1.891-1.031-2.766c-0.531-0.625-0.797-0.687-0.797-0.188v4.078
		l0.188,6.844c0.156,0.594-0.063,1.078-0.656,1.453c-1.031,0.5-2.406,0.703-4.125,0.609c-1.094-0.063-1.578-0.609-1.453-1.641
		l0.094-6.609c0.031-0.563-0.172-0.516-0.609,0.141c-1.625,2.313-3.594,4.125-5.906,5.438c-0.688,0.344-1.156,0.391-1.406,0.141
		c-0.25-0.281-0.094-0.75,0.469-1.406c1.875-2.281,3.328-4.75,4.359-7.406c0.719-1.75,1.281-3.766,1.688-6.047
		c0.063-0.469-0.156-0.703-0.656-0.703c-1.188,0-2.391,0.047-3.609,0.141c-0.719,0.063-1.234-0.218-1.547-0.844l-0.094-0.281
		C68.04,7.689,68.18,7.376,68.805,7.47c1.281,0.125,2.563,0.219,3.844,0.281h2.391c0.531,0,0.797-0.25,0.797-0.75V4.376
		C75.805,3.221,75.696,2.064,75.508,0.908z M78.227,28.751c-0.063-0.656,0.219-0.953,0.844-0.891c2.438,0.281,4.5,0.688,6.188,1.219
		c0.625,0.344,0.953,0.563,0.984,0.656c0,0.406-0.234,0.688-0.703,0.844c-0.469,0.125-0.797,0.328-0.984,0.609
		c-0.031,0.063-0.047,0.344-0.047,0.844v3.797c0.156,0.813,0.594,1.266,1.313,1.359c0.531,0.094,1.422,0.171,2.672,0.234h4.781
		c0.844-0.031,1.797-0.125,2.859-0.281c0.625-0.094,1.094-0.313,1.406-0.656c0.656-0.875,1.156-2.219,1.5-4.031
		c0.125-0.625,0.391-0.938,0.797-0.938c0.438,0,0.656,0.313,0.656,0.938v2.672c-0.031,0.656,0.359,1.203,1.172,1.641
		c1.406,1.062,1.766,2.234,1.078,3.516c-0.5,0.781-1.063,1.296-1.688,1.547c-2.031,0.813-4.797,1.234-8.297,1.266h-5.625
		c-2.406-0.094-4.344-0.297-5.813-0.609c-1.25-0.219-2.141-1.031-2.672-2.438c-0.125-0.406-0.219-0.938-0.281-1.594v-7.453
		L78.227,28.751z M104.196,0.767c0.25-0.156,0.438-0.234,0.563-0.234s0.375,0.078,0.75,0.234c1,0.532,2.234,1.359,3.703,2.484
		c0.906,0.781,0.828,1.531-0.234,2.25c-0.594,0.594-0.891,1.141-0.891,1.641v11.813l0.094,6.469c0.031,0.5-0.031,0.907-0.188,1.219
		c-0.344,0.313-0.969,0.547-1.875,0.703c-0.969,0.157-1.922,0.219-2.859,0.188c-1.156-0.094-1.625-0.656-1.406-1.688
		c0-0.687-0.25-1.031-0.75-1.031h-5.109c-0.5,0-0.766,0.25-0.797,0.75c-0.125,0.75-0.563,1.172-1.313,1.266
		c-0.563,0.188-1.234,0.313-2.016,0.375c-0.469,0.031-0.406,0.125,0.188,0.281c0.75,0.25,1.375,0.547,1.875,0.891
		c0.75,0.532,1.219,1.125,1.406,1.781c0.469,1.625,0.219,2.969-0.75,4.031c-0.469,0.438-1.094,0.703-1.875,0.797
		c-0.719,0.125-1.328,0.031-1.828-0.281c-0.594-0.438-0.984-1.047-1.172-1.828l-0.563-1.828c-0.219-0.719-0.797-1.531-1.734-2.438
		c-0.719-0.563-1.031-0.968-0.938-1.219c0.125-0.312,0.484-0.469,1.078-0.469c0.25-0.031,0.5-0.031,0.75,0
		c0.563,0.031,0.766-0.031,0.609-0.188c-0.094-0.188-0.125-0.469-0.094-0.844c0.031-2.625,0.094-5.281,0.188-7.969V5.83
		c-0.063-1.343-0.141-2.703-0.234-4.078c-0.094-0.625,0.188-0.828,0.844-0.609c1.719,0.5,3.422,1.063,5.109,1.688
		c0.375,0.125,0.813,0.188,1.313,0.188h4.688c0.5,0,1.063-0.265,1.688-0.797L104.196,0.767z M96.04,4.611
		c-0.531,0-0.797,0.234-0.797,0.703V8.97c0,0.532,0.25,0.797,0.75,0.797h5.109c0.5,0,0.75-0.25,0.75-0.75V5.361
		c0-0.5-0.25-0.75-0.75-0.75H96.04z M95.946,11.361c-0.469,0-0.703,0.266-0.703,0.797v3.422c0,0.5,0.25,0.75,0.75,0.75h5.109
		c0.5,0,0.75-0.25,0.75-0.75v-3.422c0-0.531-0.25-0.797-0.75-0.797H95.946z M95.946,17.97c-0.469,0-0.703,0.25-0.703,0.75v3.797
		c0,0.532,0.25,0.797,0.75,0.797h5.109c0.5,0,0.75-0.25,0.75-0.75V18.72c0-0.5-0.25-0.75-0.75-0.75H95.946z M101.711,30.064
		c0.25-0.281,0.672-0.359,1.266-0.234c1.906,0.469,3.75,1.406,5.531,2.813c2.125,1.844,2.672,3.984,1.641,6.422
		c-0.625,1.031-1.469,1.547-2.531,1.547c-0.844,0.063-1.5-0.078-1.969-0.422c-0.719-0.5-1.109-1.406-1.172-2.719
		c-0.156-2.25-0.906-4.266-2.25-6.047C101.665,30.736,101.493,30.283,101.711,30.064z"/>
	<path fill="#2E3F2E" d="M150.17,0.955c0.063-0.719,0.406-1.015,1.031-0.891c2.375,0.406,4.547,0.922,6.516,1.547
		c0.469,0.094,0.859,0.281,1.172,0.563c0.219,0.219,0.25,0.438,0.094,0.656c-0.188,0.313-0.469,0.5-0.844,0.563l-1.078,0.141
		c-1.281,0.813-2.547,1.422-3.797,1.828c-0.5,0.157-0.516,0.234-0.047,0.234h3.422c0.5,0,1.016-0.297,1.547-0.891
		c0.438-0.563,0.906-1.109,1.406-1.641c0.656-0.531,1.266-0.672,1.828-0.422c0.688,0.406,1.906,1.375,3.656,2.906
		c0.594,0.563,0.656,1.063,0.188,1.5c-0.125,0.031-0.5,0.047-1.125,0.047h-3.422c-0.563,0-0.516,0.188,0.141,0.563
		c1.313,1,2.344,1.922,3.094,2.766c0.156,0.375,0.109,0.688-0.141,0.938c-0.063,0.063,0.219,0.344,0.844,0.844
		c1.188,0.938,2.156,1.813,2.906,2.625c0.406,1.031,0,1.438-1.219,1.219h-12.516c-0.531,0-0.484,0.219,0.141,0.656
		c3.969,2.5,8.516,3.766,13.641,3.797c0.594,0,0.859,0.188,0.797,0.563c-0.094,0.406-0.25,0.641-0.469,0.703
		c-0.375,0.157-0.75,0.516-1.125,1.078c-0.406,0.813-0.656,1.75-0.75,2.813c-0.281,1.25-1.031,1.625-2.25,1.125
		c-1.219-0.312-2.766-1.031-4.641-2.156c-0.063,0.063-0.125,0.172-0.188,0.328v2.438l0.141,3.094
		c0.031,0.563,0.125,0.688,0.281,0.375c0.188-0.375,0.578-0.406,1.172-0.094c1.906,0.969,3.422,1.813,4.547,2.531
		c1.031,0.469,1.344,0.969,0.938,1.5c-0.063,0.094-0.406,0.125-1.031,0.094c-0.469-0.156-0.906-0.109-1.313,0.141
		c-1.719,0.75-3.344,1.203-4.875,1.359c-0.563,0.094-0.531,0.203,0.094,0.328c2.844,0.5,5.641,0.625,8.391,0.375
		c0.688-0.094,0.969,0.063,0.844,0.469c-0.031,0.469-0.109,0.703-0.234,0.703c-0.281,0.031-0.5,0.156-0.656,0.375
		c-0.531,0.813-0.906,2.046-1.125,3.703c-0.094,0.531-0.359,0.984-0.797,1.359c-0.406,0.188-0.953,0.25-1.641,0.188
		c-3.563-0.375-7.266-1.813-11.109-4.313c-1.156-0.719-2.25-1.547-3.281-2.484c-0.594-0.594-0.844-0.75-0.75-0.469
		c0.063,0.218-0.219,0.531-0.844,0.938c-2.313,1.375-4.719,2.406-7.219,3.094c-2.469,0.719-5.078,1.296-7.828,1.734
		c-0.469,0.094-0.734,0.281-0.797,0.563c0,0.438-0.172,0.781-0.516,1.031c-0.5,0.125-0.828,0-0.984-0.375
		c-0.656-1.188-1.359-3.344-2.109-6.469c-0.156-0.625,0.078-0.891,0.703-0.797c1.094,0.188,2.297,0.297,3.609,0.328
		c0.531,0.031,0.797-0.204,0.797-0.703V25.236c0-0.5-0.313-0.578-0.938-0.234c-1.906,1.063-4.078,1.922-6.516,2.578
		c-0.625,0.157-1.031,0.094-1.219-0.188s0.063-0.64,0.75-1.078c3.969-2.688,7.25-5.859,9.844-9.516c0.313-0.5,0.219-0.75-0.281-0.75
		h-3.328c-1.344,0.031-2.672,0.125-3.984,0.281c-0.625,0.094-1.063-0.171-1.313-0.797l-0.234-0.469c-0.375-0.687-0.25-1,0.375-0.938
		c1.844,0.219,3.906,0.359,6.188,0.422h9.563c0.531,0,0.797-0.25,0.797-0.75v-1.5c0-0.531-0.25-0.797-0.75-0.797h-5.672
		c-1.656,0.063-3.297,0.141-4.922,0.234c-0.625,0.094-1.109-0.171-1.453-0.797c-0.094-0.188-0.172-0.391-0.234-0.609
		c-0.281-0.563-0.063-0.797,0.656-0.703c1.813,0.219,3.656,0.344,5.531,0.375h6.047c0.531,0,0.797-0.25,0.797-0.75V7.845
		c0-0.5-0.25-0.75-0.75-0.75h-8.766c-1.313,0.031-2.641,0.125-3.984,0.281c-0.75,0.094-1.281-0.171-1.594-0.797l-0.234-0.516
		c-0.313-0.625-0.156-0.906,0.469-0.844c2.188,0.219,4.406,0.344,6.656,0.375h2.438c0.5,0,0.578-0.297,0.234-0.891
		c-0.344-1.281-1.078-2.313-2.203-3.094c-0.719-0.375-1.031-0.687-0.938-0.938c0.094-0.344,0.438-0.531,1.031-0.563
		c2.375-0.031,4.453,0.234,6.234,0.797c1.844,0.719,2.516,2.016,2.016,3.891c-0.344,0.532-0.297,0.797,0.141,0.797h4.219
		c0.5,0,0.875-0.297,1.125-0.891C149.592,3.549,149.92,2.298,150.17,0.955z M142.905,17.642c-0.219-0.063-0.578,0.188-1.078,0.75
		c-0.875,0.969-1.797,1.844-2.766,2.625c-0.531,0.438-0.531,0.75,0,0.938c0.5,0.281,1,0.375,1.5,0.281h4.359
		c0.5,0,0.578-0.312,0.234-0.938c-0.219-1.062-0.578-1.984-1.078-2.766C143.702,18.001,143.311,17.705,142.905,17.642z
		 M140.327,32.173c-0.5,0-0.75,0.25-0.75,0.75v3c0,0.5,0.25,0.75,0.75,0.75c2.531-0.031,4.906-0.219,7.125-0.563
		c0.5-0.063,0.531-0.344,0.094-0.844c-0.625-0.719-1.141-1.453-1.547-2.203c-0.344-0.593-0.766-0.891-1.266-0.891H140.327z
		 M140.374,23.83c-0.5,0-0.75,0.234-0.75,0.703v0.891c0,0.5,0.25,0.75,0.75,0.75h11.766c0.531,0,0.797-0.25,0.797-0.75V24.58
		c0-0.5-0.25-0.75-0.75-0.75H140.374z M140.374,27.767c-0.5,0-0.75,0.25-0.75,0.75v1.313c0,0.5,0.25,0.75,0.75,0.75h11.766
		c0.531,0,0.797-0.25,0.797-0.75v-1.313c0-0.5-0.25-0.75-0.75-0.75H140.374z M144.405,16.048c-0.438,0-0.719,0.078-0.844,0.234
		c-0.156,0.188,0.031,0.281,0.563,0.281c1.5,0,2.844,0.157,4.031,0.469c1.688,0.438,2.578,1.375,2.672,2.813
		c0.031,0.563-0.109,1.109-0.422,1.641c-0.469,0.5-0.453,0.75,0.047,0.75h1.547c0.5,0.125,1.047-0.031,1.641-0.469
		c0.625-0.312,0.656-0.781,0.094-1.406c-1.125-1.281-1.969-2.438-2.531-3.469c-0.281-0.563-0.656-0.844-1.125-0.844H144.405z
		 M148.577,32.173c-0.5,0-0.5,0.172,0,0.516c1.938,1.25,3.844,2.188,5.719,2.813c0.5,0.157,1.063,0.016,1.688-0.422
		c0.469-0.406,0.938-0.844,1.406-1.313c0.5-0.563,0.438-0.781-0.188-0.656c-0.969,0.219-2.188,0.234-3.656,0.047
		c-0.406-0.218-0.625-0.453-0.656-0.703c-0.063-0.188-0.344-0.281-0.844-0.281H148.577z M150.264,7.095c-0.5,0-0.75,0.25-0.75,0.75
		v1.359c0,0.532,0.25,0.797,0.75,0.797h5.156c0.5,0,0.984-0.265,1.453-0.797c0.438-0.469,0.891-0.938,1.359-1.406
		s0.469-0.703,0-0.703H150.264z M150.264,11.501c-0.5,0-0.75,0.25-0.75,0.75v1.5c0,0.532,0.25,0.797,0.75,0.797h8.531
		c0.5,0,1.016-0.312,1.547-0.938c0.344-0.438,0.75-0.875,1.219-1.313c0.5-0.531,0.5-0.797,0-0.797H150.264z"/>
	<path fill="#2E3F2E" d="M194.88,1.048c0.281-0.719,0.719-1,1.313-0.844c2.688,0.844,4.797,1.594,6.328,2.25
		c0.625,0.406,0.938,0.688,0.938,0.844c-0.156,0.532-0.719,0.813-1.688,0.844c-0.406-0.063-0.766,0.094-1.078,0.469
		c-0.469,0.5-0.453,0.75,0.047,0.75h4.734c0.5,0,0.906-0.094,1.219-0.281c0.938-0.687,1.859-1.328,2.766-1.922
		c0.375-0.188,0.688-0.265,0.938-0.234c0.5,0.157,1.125,0.5,1.875,1.031c1.063,0.75,1.984,1.484,2.766,2.203
		c0.781,0.594,0.734,1.188-0.141,1.781c-0.469,0.25-0.938,0.453-1.406,0.609c-0.406,0.188-0.688,0.375-0.844,0.563
		c-1.281,2.188-2.828,4.172-4.641,5.953c-0.531,0.5-0.563,0.828-0.094,0.984c2.156,0.656,3.953,1.297,5.391,1.922
		c0.313,0.219,0.422,0.485,0.328,0.797c-0.125,0.406-0.438,0.625-0.938,0.656c-0.906,0.094-1.516,0.313-1.828,0.656
		c-0.313,0.313-0.203,0.469,0.328,0.469h3.797c0.5,0,0.906-0.094,1.219-0.281c0.938-0.593,1.859-1.156,2.766-1.688
		c0.5-0.344,0.969-0.406,1.406-0.188c1.969,1.188,3.531,2.36,4.688,3.516c0.375,0.469,0.266,0.907-0.328,1.313
		c-0.313,0.25-0.625,0.422-0.938,0.516c-0.594,0.25-0.984,0.594-1.172,1.031c-2.063,4.344-5.078,8.063-9.047,11.156
		c-3.219,2.438-6.938,4.343-11.156,5.719c-4.563,1.5-9.422,2.281-14.578,2.344c-0.625,0-0.984-0.157-1.078-0.469
		c-0.063-0.375,0.188-0.625,0.75-0.75c5.25-1.094,10.188-2.969,14.813-5.625c0.969-0.563,1.922-1.188,2.859-1.875
		c0.469-0.312,0.344-0.453-0.375-0.422c-1.5,0.063-2.406-0.672-2.719-2.203c-0.031-0.531,0.094-1.219,0.375-2.063
		c0.188-0.781,0.203-1.765,0.047-2.953c-0.063-0.125-0.375,0-0.938,0.375c-3.281,2.032-6.844,3.609-10.688,4.734
		c-0.719,0.188-1.172,0.157-1.359-0.094c-0.25-0.312-0.094-0.656,0.469-1.031c4.469-2.781,8.75-6.672,12.844-11.672
		c0.438-0.563,0.406-0.656-0.094-0.281c-4.156,3.188-9.031,5.297-14.625,6.328c-1.219,0.25-2.531,0.453-3.938,0.609
		c-0.625,0.063-1-0.094-1.125-0.469c-0.188-0.344,0.078-0.609,0.797-0.797c3.906-1.156,7.766-3.203,11.578-6.141
		c0.5-0.406,0.438-0.609-0.188-0.609c-1.25,0.063-2.047-0.469-2.391-1.594c-0.219-0.781-0.094-1.812,0.375-3.094
		c0.188-0.625,0.25-1.266,0.188-1.922c-0.094-0.563-0.391-0.687-0.891-0.375c-2.281,1.531-4.828,2.75-7.641,3.656
		c-0.594,0.219-1.016,0.157-1.266-0.188c-0.188-0.312,0.031-0.672,0.656-1.078c3-2.281,5.516-4.891,7.547-7.828
		C192.99,4.627,194.005,2.923,194.88,1.048z M199.146,7.001c-0.469,0-0.969,0.234-1.5,0.703c-0.656,0.625-1.344,1.203-2.063,1.734
		c-0.563,0.438-0.578,0.719-0.047,0.844c0.531,0.188,1.078,0.438,1.641,0.75c1.531,1,2.266,2.375,2.203,4.125
		c-0.063,0.5,0.219,0.453,0.844-0.141c2.375-2.375,4.203-4.781,5.484-7.219c0.281-0.531,0.188-0.797-0.281-0.797H199.146z
		 M209.552,22.236c-0.5,0-0.984,0.234-1.453,0.703c-1.063,1-2.109,1.891-3.141,2.672c-0.625,0.469-0.688,0.766-0.188,0.891
		c2.875,0.938,4.234,2.672,4.078,5.203c-0.094,0.532,0.109,0.563,0.609,0.094c2.781-2.656,4.813-5.578,6.094-8.766
		c0.156-0.531-0.016-0.797-0.516-0.797H209.552z"/>
	<path fill="#2E3F2E" d="M257.636,0.955c-0.063-0.625,0.219-0.891,0.844-0.797c2.563,0.281,4.844,0.688,6.844,1.219
		c0.625,0.281,0.938,0.516,0.938,0.703c0.031,0.375-0.281,0.688-0.938,0.938c-0.625,0.406-0.938,0.922-0.938,1.547
		c-0.031,1-0.125,2.063-0.281,3.188c-0.031,0.5,0.203,0.75,0.703,0.75h8.016c0.469,0,1.016-0.265,1.641-0.797
		c0.594-0.469,1.188-0.891,1.781-1.266c0.625-0.281,1.281-0.265,1.969,0.047c1.688,0.907,2.906,1.797,3.656,2.672
		c0.406,0.625,0.141,1.203-0.797,1.734c-0.531,0.438-0.766,0.984-0.703,1.641v7.453l0.094,18.75
		c-0.156,1.437-0.938,2.594-2.344,3.469c-1.625,0.938-3.25,1.516-4.875,1.734c-0.531-0.125-0.875-0.579-1.031-1.359
		c-0.156-1.156-0.484-2.094-0.984-2.813c-0.594-0.844-1.766-1.438-3.516-1.781c-0.594-0.125-0.891-0.438-0.891-0.938
		c0.031-0.406,0.422-0.594,1.172-0.563c0.719,0.031,1.453,0.094,2.203,0.188h2.766c1.063,0,1.484-0.469,1.266-1.406V10.845
		c0-0.531-0.234-0.797-0.703-0.797h-8.859c-0.5,0-0.844,0.313-1.031,0.938c-0.125,0.5-0.297,1-0.516,1.5
		c-0.219,0.469-0.047,0.734,0.516,0.797c2.563,0.281,4.969,1.031,7.219,2.25c3.063,1.938,4.047,4.266,2.953,6.984
		c-0.719,1.125-1.734,1.61-3.047,1.453c-1.188-0.312-2.141-1.156-2.859-2.531c-1.188-2.5-2.938-4.625-5.25-6.375
		c-0.469-0.25-0.859-0.125-1.172,0.375c-0.469,0.781-1.094,1.578-1.875,2.391c-0.594,0.625-0.594,1,0,1.125
		c1.25,0.188,2.5,0.391,3.75,0.609c0.625,0.094,1.234,0.266,1.828,0.516c0.844,0.25,1.172,0.609,0.984,1.078
		c-0.156,0.375-0.578,0.625-1.266,0.75c-0.469,0.188-0.781,0.547-0.938,1.078c-0.063,0.281-0.156,0.579-0.281,0.891
		c-0.219,0.5-0.016,0.813,0.609,0.938c2.875,0.563,5.328,1.844,7.359,3.844c1.063,1.25,1.531,2.547,1.406,3.891
		c-0.156,1.594-0.953,2.609-2.391,3.047c-0.594,0.188-1.25,0.204-1.969,0.047c-0.656-0.125-1.25-0.563-1.781-1.313
		c-0.313-0.5-0.531-1.125-0.656-1.875c-0.25-2.093-1.141-3.968-2.672-5.625c-0.531-0.438-0.953-0.375-1.266,0.188
		c-0.594,1.125-1.453,2.344-2.578,3.656c-2.625,2.688-5.594,4.797-8.906,6.328c-0.625,0.281-1.063,0.265-1.313-0.047
		c-0.25-0.313-0.031-0.797,0.656-1.453c2.125-2,3.938-4.656,5.438-7.969c1-2.031,1.719-4.437,2.156-7.219
		c0.031-0.531-0.234-0.593-0.797-0.188c-1.813,1.438-4.125,2.735-6.938,3.891c-0.719,0.281-1.188,0.328-1.406,0.141
		c-0.25-0.25-0.375-0.125-0.375,0.375v11.953l0.094,5.578c0.125,1.031-0.406,1.625-1.594,1.781c-1,0.25-2.234,0.328-3.703,0.234
		c-1.063-0.094-1.469-0.703-1.219-1.828c0-2.156,0.047-4.329,0.141-6.516V12.533c-0.031-1.812-0.156-3.593-0.375-5.344
		c-0.094-0.593,0.219-0.781,0.938-0.563c1.406,0.406,3.328,1.031,5.766,1.875h8.531c0.5,0,0.781-0.312,0.844-0.938
		C257.808,4.783,257.792,2.58,257.636,0.955z M249.011,10.095c-0.5,0-0.75,0.25-0.75,0.75v11.953c0,0.5,0.313,0.5,0.938,0
		c2.094-1.75,3.828-3.719,5.203-5.906c1.5-2.344,2.438-4.359,2.813-6.047c0.063-0.5-0.141-0.75-0.609-0.75H249.011z"/>
	<path fill="#2E3F2E" d="M295.033,22.001c0-0.625,0.313-0.938,0.938-0.938h46.078c0.625,0,0.938,0.313,0.938,0.938
		c0,0.625-0.313,0.938-0.938,0.938H295.97C295.345,22.939,295.033,22.627,295.033,22.001z"/>
	<path fill="#2E3F2E" d="M340.633,22.001c0-0.625,0.313-0.938,0.938-0.938h46.078c0.625,0,0.938,0.313,0.938,0.938
		c0,0.625-0.313,0.938-0.938,0.938h-46.078C340.946,22.939,340.633,22.627,340.633,22.001z"/>
	<path fill="#2E3F2E" d="M37.042,89.97c0.656-0.593,1.266-0.781,1.828-0.563c1.5,1.125,2.937,2.484,4.313,4.078
		c0.406,0.438,0.453,0.86,0.141,1.266c-0.063,0.094-0.406,0.141-1.031,0.141H26.636c-0.5,0-0.75,0.25-0.75,0.75v4.781
		c0,0.532,0.25,0.797,0.75,0.797h3.609c0.5,0,0.968-0.312,1.406-0.938c0.719-0.968,1.453-1.906,2.203-2.813
		c0.312-0.344,0.625-0.484,0.938-0.422c0.656,0.344,1.281,0.797,1.875,1.359c0.906,0.813,1.844,1.719,2.813,2.719
		c0.563,0.469,0.687,0.922,0.375,1.359c-0.125,0.125-0.5,0.188-1.125,0.188H26.636c-0.5,0-0.75,0.25-0.75,0.75v4.266
		c0,0.5,0.312,0.797,0.938,0.891l2.766,0.234h4.688c3.156-0.063,5.969-0.297,8.438-0.703c0.625-0.125,0.953-0.016,0.984,0.328
		c0,0.406-0.297,0.813-0.891,1.219c-0.563,0.625-0.875,1.563-0.938,2.813v1.781c-0.188,0.719-0.594,1.094-1.219,1.125h-2.859
		c-6.594-0.063-11.906-0.797-15.938-2.203c-3.781-1.282-6.766-3.86-8.953-7.734c-0.281-0.531-0.532-0.484-0.75,0.141
		c-0.313,0.563-0.625,1.172-0.938,1.828c-2.188,4.094-5.5,6.875-9.938,8.344c-0.656,0.188-1.063,0.156-1.219-0.094
		c-0.188-0.281,0.078-0.719,0.797-1.313c1.219-1.063,2.281-2.391,3.188-3.984c1.875-3.687,2.734-7.906,2.578-12.656
		c-0.031-0.656,0.25-0.921,0.844-0.797c3.25,0.532,5.703,1.141,7.359,1.828c0.375,0.125,0.531,0.313,0.469,0.563
		c-0.063,0.469-0.375,0.75-0.938,0.844c-0.469,0.281-0.75,0.688-0.844,1.219l-0.188,0.844c-0.094,0.469,0.109,0.969,0.609,1.5
		c1.469,1.344,3,2.36,4.594,3.047c0.469,0.219,0.703,0.078,0.703-0.422V95.595c0-0.5-0.234-0.75-0.703-0.75h-12
		c-1.438,0.063-2.891,0.157-4.359,0.281c-0.75,0.031-1.297-0.265-1.641-0.891l-0.234-0.469c-0.313-0.656-0.172-0.938,0.422-0.844
		c1.594,0.219,4.453,0.344,8.578,0.375h21.234l3.141,0.047c0.5,0,0.968-0.312,1.406-0.938C35.699,91.595,36.355,90.783,37.042,89.97
		z M31.98,72.486c0.375-0.406,0.828-0.484,1.359-0.234c1.313,0.719,2.547,1.547,3.703,2.484c0.813,0.594,1.219,1.094,1.219,1.5
		c0.031,0.281-0.063,0.532-0.281,0.75l-1.406,1.125c-0.188,0.219-0.281,0.579-0.281,1.078v3.609l0.188,5.719
		c0.094,0.781,0.047,1.329-0.141,1.641c-0.25,0.313-0.703,0.579-1.359,0.797c-1.313,0.313-2.813,0.313-4.5,0
		c-0.594-0.156-0.828-0.531-0.703-1.125c0-0.5-0.25-0.75-0.75-0.75H13.886c-0.532,0-0.797,0.313-0.797,0.938
		c0.094,0.688-0.328,1.172-1.266,1.453c-1.188,0.375-2.547,0.469-4.078,0.281c-1.031-0.156-1.453-0.687-1.266-1.594l0.234-5.063
		v-6.469c-0.063-1.375-0.188-2.875-0.375-4.5c-0.063-0.625,0.218-0.875,0.844-0.75c2.468,0.532,4.547,1.031,6.234,1.5h15.281
		c0.469,0,0.953-0.25,1.453-0.75C30.933,73.376,31.542,72.83,31.98,72.486z M13.98,76.564c-0.5,0-0.75,0.234-0.75,0.703v3.047
		c0,0.532,0.25,0.797,0.75,0.797h15.094c0.5,0,0.75-0.25,0.75-0.75v-3.047c0-0.5-0.25-0.75-0.75-0.75H13.98z M14.027,82.611
		c-0.532,0-0.797,0.25-0.797,0.75v3.375c0,0.5,0.25,0.75,0.75,0.75h15.094c0.5,0,0.75-0.234,0.75-0.703v-3.375
		c0-0.531-0.25-0.797-0.75-0.797H14.027z"/>
	<path fill="#2E3F2E" d="M94.548,72.345c0.344-0.25,0.891-0.094,1.641,0.469c1.563,1.25,2.984,2.547,4.266,3.891
		c0.625,0.563,0.719,1.109,0.281,1.641c-0.188,0.125-0.578,0.188-1.172,0.188h-12.75c-0.5,0-0.875,0.313-1.125,0.938
		c-0.781,1.688-1.75,3.391-2.906,5.109c-0.406,0.563-0.344,0.922,0.188,1.078c0.656,0.188,1.047,0.547,1.172,1.078
		c-0.031,0.375-0.266,0.688-0.703,0.938c-0.563,0.438-0.844,0.907-0.844,1.406v17.344l0.141,7.172
		c0.219,1.094-0.297,1.781-1.547,2.063c-1.219,0.281-2.563,0.375-4.031,0.281c-0.625-0.063-1.109-0.359-1.453-0.891
		c-0.063-0.157-0.094-0.547-0.094-1.172c0.031-2.719,0.094-5.484,0.188-8.297V93.439c0-0.5-0.266-0.5-0.797,0
		c-5,4.719-10.359,7.969-16.078,9.75c-0.688,0.219-1.141,0.172-1.359-0.141c-0.281-0.375-0.125-0.797,0.469-1.266
		c9.093-6.5,15.64-13.969,19.64-22.406c0.25-0.563,0.141-0.844-0.328-0.844H64.455c-1.343,0.063-2.531,0.157-3.562,0.281
		c-0.75,0.063-1.219-0.218-1.406-0.844l-0.281-0.75c-0.281-0.687-0.11-0.968,0.516-0.844c2.063,0.25,5.312,0.391,9.75,0.422h20.25
		c0.625,0.031,1.172-0.265,1.641-0.891l1.5-1.875C93.361,73.376,93.923,72.814,94.548,72.345z M84.47,88.095
		c0.156-0.375,0.531-0.484,1.125-0.328c3.938,1.063,7.641,2.766,11.109,5.109c2.906,2.063,4.375,4.547,4.406,7.453
		c0.094,1.531-0.547,2.672-1.922,3.422c-2.906,1.156-4.891-0.047-5.953-3.609c-0.656-2.187-1.5-4.047-2.531-5.578
		c-1.75-2.531-3.641-4.328-5.672-5.391C84.439,88.83,84.251,88.47,84.47,88.095z"/>
	<path fill="#2E3F2E" d="M148.68,72.111c0.219-0.218,0.594-0.234,1.125-0.047c1.219,0.688,2.609,1.704,4.172,3.047
		c0.531,0.469,0.609,0.891,0.234,1.266c-0.125,0.125-0.469,0.188-1.031,0.188h-12.609c-0.531,0-0.797,0.234-0.797,0.703v1.359
		c0,0.5,0.25,0.75,0.75,0.75h9.094c0.5,0,1.063-0.297,1.688-0.891c0.531-0.531,1.078-1,1.641-1.406
		c0.594-0.5,1.203-0.438,1.828,0.188c2.219,1.688,3.547,3.125,3.984,4.313c0.063,0.281-0.125,0.532-0.563,0.75
		c-0.313,0.094-0.875,0.141-1.688,0.141c-0.313-0.063-0.766,0.063-1.359,0.375l-2.109,0.75c-0.594,0.157-0.656,0.485-0.188,0.984
		c0.531,1.063,0.141,1.516-1.172,1.359h-6.563c-0.906,0.031-1.813,0.094-2.719,0.188c-0.594,0.063-1.063-0.218-1.406-0.844
		l-0.188-0.375c-0.344-0.625-0.203-0.891,0.422-0.797c1.375,0.157,2.781,0.234,4.219,0.234c0.5,0,0.969-0.312,1.406-0.938
		l1.172-1.406c0.5-0.469,1.016-0.578,1.547-0.328c0.5,0.344,0.766,0.313,0.797-0.094c0.031-0.406-0.203-0.609-0.703-0.609h-9.141
		c-0.531,0-0.797,0.25-0.797,0.75v3.984l0.234,6.141c0.125,0.656-0.266,1.156-1.172,1.5c-1.906,0.406-3.469,0.469-4.688,0.188
		c-0.656-0.25-0.953-0.75-0.891-1.5V91.33c0.031-0.5,0-0.687-0.094-0.563c-0.156,0.125-0.313,0.219-0.469,0.281l-2.391,0.047h-5.813
		c-1,0.031-1.984,0.094-2.953,0.188c-0.719,0.094-1.234-0.156-1.547-0.75l-0.188-0.422c-0.344-0.593-0.219-0.875,0.375-0.844
		c1.625,0.188,3.438,0.281,5.438,0.281c0.5,0,0.984-0.312,1.453-0.938c0.313-0.469,0.672-0.938,1.078-1.406
		c0.688-0.563,1.328-0.687,1.922-0.375c0.719,0.532,1.625,1.422,2.719,2.672c0.344,0.532,0.531,0.485,0.563-0.141l0.094-3.047V81.72
		c0-0.5-0.25-0.75-0.75-0.75h-9.375c-0.5,0-0.734,0.313-0.703,0.938v1.594c-0.031,0.625,0.203,0.938,0.703,0.938h2.25
		c0.5,0,0.984-0.312,1.453-0.938c0.344-0.438,0.734-0.891,1.172-1.359c0.5-0.5,1.031-0.609,1.594-0.328
		c1.688,1.313,2.781,2.469,3.281,3.469c0.094,0.219,0.031,0.406-0.188,0.563c-0.25,0.188-0.672,0.25-1.266,0.188h-8.719
		c-0.469,0-0.906,0.297-1.313,0.891c-1.031,1.094-2.453,1.484-4.266,1.172c-1.781-0.406-2.625-1.437-2.531-3.094
		c0-0.968,0.578-1.844,1.734-2.625c2.188-0.968,3.359-2.515,3.516-4.641c0-0.625,0.203-0.953,0.609-0.984
		c0.375,0,0.719,0.297,1.031,0.891l0.375,0.984c0.188,0.532,0.5,0.797,0.938,0.797h9.703c0.531,0,0.797-0.25,0.797-0.75v-1.313
		c0-0.5-0.25-0.75-0.75-0.75h-6.469c-1.313,0-2.625,0.063-3.938,0.188c-0.625,0.063-1.125-0.203-1.5-0.797l-0.328-0.469
		c-0.375-0.719-0.281-1.047,0.281-0.984c2,0.25,4.109,0.406,6.328,0.469h17.813c0.5,0,1.047-0.312,1.641-0.938
		C147.243,73.361,147.961,72.705,148.68,72.111z M149.899,86.783c0.375-0.438,0.703-0.531,0.984-0.281
		c1.594,1.125,2.844,2.328,3.75,3.609c0.25,0.375,0.172,0.672-0.234,0.891c-0.188,0.063-0.031,0.266,0.469,0.609
		c1.344,1.031,2.516,2.125,3.516,3.281c0.219,0.438,0.172,0.781-0.141,1.031c-0.094,0.063-0.453,0.094-1.078,0.094h-16.688
		c-0.5,0-1,0.297-1.5,0.891c-0.969,1.156-2.094,2.063-3.375,2.719c-0.563,0.281-0.563,0.422,0,0.422h12c0.5,0,0.984-0.25,1.453-0.75
		c0.75-0.656,1.313-1.109,1.688-1.359c0.281-0.218,0.578-0.312,0.891-0.281c0.563,0.188,1.188,0.516,1.875,0.984
		c0.625,0.344,1.25,0.766,1.875,1.266c0.906,0.656,1.219,1.25,0.938,1.781c-0.094,0.25-0.359,0.5-0.797,0.75
		c-0.563,0.469-0.844,0.938-0.844,1.406v6.516c-0.031,0.625-0.172,1.234-0.422,1.828c-0.156,0.531-0.547,1.094-1.172,1.688
		c-1.438,1.062-2.906,1.671-4.406,1.828c-0.938-0.063-1.391-0.547-1.359-1.453c-0.063-0.563-0.25-1.329-0.563-2.297
		c-0.063-0.438-0.469-0.922-1.219-1.453c-0.531-0.25-0.813-0.078-0.844,0.516c-0.031,0.406-0.031,0.828,0,1.266
		c0.125,0.75-0.266,1.281-1.172,1.594c-1.75,0.406-3.25,0.438-4.5,0.094c-0.563-0.188-0.766-0.594-0.609-1.219
		c0.031-1.282,0.078-2.594,0.141-3.938v-6.328c0-0.531-0.25-0.797-0.75-0.797h-2.344c-0.531,0-0.797,0.25-0.797,0.75v6.375
		l0.141,3.844c0.125,0.312-0.047,0.687-0.516,1.125c-0.375,0.25-1.078,0.406-2.109,0.469c-1.125,0.156-2.172,0.125-3.141-0.094
		c-0.563-0.219-0.766-0.656-0.609-1.313c0.063-1.469,0.141-3,0.234-4.594v-5.766c0-0.531-0.25-0.797-0.75-0.797h-2.391
		c-0.531,0-0.797,0.25-0.797,0.75v7.406c0.094,1.25,0.141,2.515,0.141,3.797c0,0.625-0.031,1.015-0.094,1.172
		c-0.156,0.312-0.5,0.578-1.031,0.797c-1.031,0.25-2.328,0.344-3.891,0.281l-0.938-0.234c-0.469-0.25-0.641-0.579-0.516-0.984
		c0.063-1.688,0.141-3.375,0.234-5.063v-6.609c-0.063-1.469-0.172-2.766-0.328-3.891c-0.063-0.593,0.266-0.797,0.984-0.609
		c1.438,0.344,3.281,0.86,5.531,1.547h6.609c0.469,0,0.781-0.312,0.938-0.938c0.125-0.625,0.203-1.406,0.234-2.344
		c0.031-0.5-0.203-0.75-0.703-0.75h-9.891c-1.875,0.094-3.438,0.25-4.688,0.469c-0.688,0.219-1.188,0.031-1.5-0.563l-0.469-1.125
		c-0.25-0.593-0.078-0.859,0.516-0.797c2.156,0.219,4.313,0.344,6.469,0.375h27.094c0.5,0,1.016-0.312,1.547-0.938
		c0.438-0.563,0.953-1.125,1.547-1.688c0.531-0.438,0.547-0.656,0.047-0.656h-7.172l-2.766,0.234
		c-0.688,0.063-1.188-0.203-1.5-0.797l-0.234-0.422c-0.344-0.625-0.203-0.906,0.422-0.844c1.656,0.219,3.531,0.313,5.625,0.281
		c0.5,0,0.984-0.312,1.453-0.938C148.868,87.986,149.368,87.376,149.899,86.783z M145.305,101.689c-0.5,0-0.75,0.266-0.75,0.797
		v5.109c0,0.5,0.328,0.781,0.984,0.844c0.875,0.063,1.766,0.063,2.672,0c0.344-0.188,0.469-0.546,0.375-1.078v-4.875
		c0-0.531-0.25-0.797-0.75-0.797H145.305z"/>
	<path fill="#2E3F2E" d="M187.67,94.564c0.219-0.656,0.625-0.921,1.219-0.797c2.656,0.594,4.625,1.141,5.906,1.641
		c0.594,0.313,0.891,0.547,0.891,0.703c-0.094,0.469-0.453,0.719-1.078,0.75c-0.281,0.031-0.578,0.094-0.891,0.188
		c-0.156,0.063-0.281,0.172-0.375,0.328l-0.609,0.891c-0.281,0.5-0.172,0.75,0.328,0.75h13.688c0.5,0,1.016-0.312,1.547-0.938
		c0.75-0.844,1.563-1.688,2.438-2.531c0.219-0.281,0.531-0.297,0.938-0.047c1.906,1.313,3.406,2.594,4.5,3.844
		c0.438,1,0.047,1.422-1.172,1.266h-7.219c-0.5,0-0.891,0.297-1.172,0.891c-0.719,1.781-1.625,3.469-2.719,5.063
		c-0.375,0.5-0.266,0.813,0.328,0.938c1.031,0.157,2.203,0.438,3.516,0.844c1.781,0.593,3.016,1.219,3.703,1.875
		c0.625,0.531,1.047,1.141,1.266,1.828c0.188,0.406,0.188,1.109,0,2.109c-0.563,1.5-1.656,2.078-3.281,1.734
		c-1.219-0.375-2.453-0.938-3.703-1.688c-1.813-1.094-3.656-2.125-5.531-3.094c-0.5-0.219-1.063-0.157-1.688,0.188
		c-3.844,2.281-8.703,3.687-14.578,4.219c-1.969,0.188-4.016,0.297-6.141,0.328h-3.609c-0.688-0.031-1.094-0.204-1.219-0.516
		c-0.125-0.375,0.172-0.625,0.891-0.75c5.125-0.656,10.078-1.844,14.859-3.563c1.094-0.406,2.391-1.047,3.891-1.922
		c0.531-0.281,0.469-0.532-0.188-0.75c-1.625-0.563-3.203-1.062-4.734-1.5c-0.438-0.125-0.875,0.094-1.313,0.656l-0.563,0.703
		c-0.594,1.031-1.484,1.5-2.672,1.406c-1.313-0.125-2.547-0.391-3.703-0.797c-0.781-0.188-1.047-0.531-0.797-1.031
		c1.344-1.5,2.328-2.734,2.953-3.703l2.063-2.766c0.375-0.469,0.313-0.703-0.188-0.703h-5.156c-1.156,0.031-2.297,0.094-3.422,0.188
		c-0.656,0.063-1.125-0.218-1.406-0.844l-0.234-0.422c-0.344-0.719-0.234-1.031,0.328-0.938c1.625,0.219,3.406,0.359,5.344,0.422
		h5.625c0.469,0,0.938-0.312,1.406-0.938C186.811,96.736,187.389,95.564,187.67,94.564z M209.467,72.392
		c0.531-0.563,1.031-0.64,1.5-0.234c1.938,1.344,3.516,2.703,4.734,4.078c0.031,0.813-0.344,1.141-1.125,0.984h-11.063
		c-0.531,0-0.797,0.234-0.797,0.703v3.281c0,0.532,0.25,0.797,0.75,0.797h2.109c0.5,0,0.984-0.25,1.453-0.75
		c0.531-0.5,1.063-0.984,1.594-1.453c0.406-0.375,0.875-0.422,1.406-0.141c1.156,0.625,2.391,1.453,3.703,2.484
		c1.031,0.813,1,1.531-0.094,2.156c-0.594,0.532-0.891,1.047-0.891,1.547v3.75l0.188,4.453c0,0.25-0.141,0.485-0.422,0.703
		c-0.969,0.532-2.547,0.75-4.734,0.656c-0.938-0.188-1.375-0.656-1.313-1.406c0-0.438-0.234-0.656-0.703-0.656h-21.469
		c-0.531,0-0.797,0.281-0.797,0.844c0.219,0.969-0.188,1.578-1.219,1.828c-1.219,0.25-2.5,0.344-3.844,0.281
		c-0.5-0.094-0.891-0.265-1.172-0.516c-0.125-0.156-0.188-0.546-0.188-1.172c0.063-1.5,0.141-3.047,0.234-4.641v-4.594
		c-0.125-2.031-0.266-3.734-0.422-5.109c0.031-0.031,0.359,0.016,0.984,0.141c1.938,0.5,3.891,1.031,5.859,1.594h2.578
		c0.531,0,0.797-0.25,0.797-0.75V77.97c0-0.5-0.25-0.75-0.75-0.75h-6.703c-1.313,0.031-2.625,0.094-3.938,0.188
		c-0.719,0.094-1.234-0.171-1.547-0.797c-0.125-0.218-0.219-0.438-0.281-0.656c-0.313-0.593-0.094-0.828,0.656-0.703
		c1.625,0.219,3.281,0.344,4.969,0.375h26.063c0.5,0,1.047-0.312,1.641-0.938C207.936,73.939,208.686,73.173,209.467,72.392z
		 M184.342,83.548c-0.531,0-0.797,0.25-0.797,0.75v6.656c0,0.5,0.25,0.75,0.75,0.75h2.063c0.531,0,0.797-0.234,0.797-0.703v-6.656
		c0-0.531-0.25-0.797-0.75-0.797H184.342z M192.03,100.611c-0.438,0-0.859,0.234-1.266,0.703l-2.484,3.469
		c-0.344,0.5-0.203,0.781,0.422,0.844c2.219,0.188,4.453,0.422,6.703,0.703c0.5,0.063,0.953-0.156,1.359-0.656
		c1.063-1.313,1.953-2.75,2.672-4.313c0.219-0.5,0.094-0.75-0.375-0.75H192.03z M193.811,77.22c-0.5,0-0.75,0.25-0.75,0.75v3.234
		c0,0.532,0.25,0.797,0.75,0.797h2.203c0.531,0,0.797-0.25,0.797-0.75V77.97c0-0.5-0.25-0.75-0.75-0.75H193.811z M193.858,83.548
		c-0.531,0-0.797,0.25-0.797,0.75v6.656c0,0.5,0.25,0.75,0.75,0.75h2.203c0.531,0,0.797-0.234,0.797-0.703v-6.656
		c0-0.531-0.25-0.797-0.75-0.797H193.858z M203.514,83.548c-0.531,0-0.797,0.25-0.797,0.75v6.656c0,0.5,0.25,0.75,0.75,0.75h2.297
		c0.5,0,0.75-0.234,0.75-0.703v-6.656c0-0.531-0.234-0.797-0.703-0.797H203.514z"/>
	<path fill="#2E3F2E" d="M268.099,72.767c0.5-0.188,1.109,0.047,1.828,0.703c1.188,0.781,2.125,1.484,2.813,2.109
		c0.5,0.656,0.469,1.188-0.094,1.594c-0.813,0.594-1.125,1.219-0.938,1.875v10.688l0.188,5.625c0.094,0.813,0.047,1.375-0.141,1.688
		c-0.313,0.438-0.766,0.719-1.359,0.844c-1.438,0.344-2.703,0.406-3.797,0.188c-0.25,0-0.516-0.188-0.797-0.563
		c-0.063-0.125-0.094-0.484-0.094-1.078c0-0.625-0.25-0.938-0.75-0.938h-1.5c-0.5,0-0.75,0.25-0.75,0.75v6.094
		c0,0.5,0.266,0.75,0.797,0.75c0.563,0,1.078-0.312,1.547-0.938c0.844-1.25,1.656-2.156,2.438-2.719
		c0.219-0.125,0.5-0.031,0.844,0.281c0.906,0.656,1.844,1.484,2.813,2.484c0.719,0.656,1.172,1.282,1.359,1.875
		c-0.156,0.563-0.609,0.766-1.359,0.609h-7.688c-0.5,0-0.75,0.25-0.75,0.75v6.141c0,0.5,0.25,0.75,0.75,0.75h0.984
		c0.5,0,0.969-0.313,1.406-0.938c0.688-0.907,1.422-1.828,2.203-2.766c0.531-0.531,1-0.625,1.406-0.281
		c1.031,0.687,2.391,1.953,4.078,3.797c0.688,0.687,0.797,1.25,0.328,1.688c-0.125,0.094-0.5,0.141-1.125,0.141h-23.203
		c-1.219,0.031-2.422,0.094-3.609,0.188c-0.656,0.063-1.125-0.219-1.406-0.844l-0.188-0.422c-0.281-0.719-0.125-1.031,0.469-0.938
		c1.813,0.25,3.688,0.375,5.625,0.375h5.391c0.5,0,0.75-0.25,0.75-0.75v-6.094c0-0.5-0.25-0.75-0.75-0.75h-2.813
		c-1.125,0.031-2.266,0.094-3.422,0.188c-0.563,0.063-1-0.265-1.313-0.984l-0.234-0.469c-0.344-0.593-0.188-0.844,0.469-0.75
		c2.406,0.344,4.844,0.485,7.313,0.422c0.5,0,0.75-0.25,0.75-0.75v-6.094c0-0.5-0.25-0.75-0.75-0.75h-1.219
		c-0.5,0-0.75,0.25-0.75,0.75v0.375c0,0.625-0.047,1.047-0.141,1.266c-0.219,0.344-0.578,0.579-1.078,0.703
		c-1.063,0.25-2.266,0.344-3.609,0.281c-0.781-0.094-1.25-0.406-1.406-0.938l0.141-5.953c0-0.469-0.047-0.687-0.141-0.656
		c-0.094,0.063-0.438,0.094-1.031,0.094h-3.938c-0.5,0-0.75,0.234-0.75,0.703v9.281c0,0.5,0.313,0.688,0.938,0.563
		c1.063-0.25,2.453-0.703,4.172-1.359c0.688-0.281,1.109-0.234,1.266,0.141c0.188,0.375-0.031,0.86-0.656,1.453
		c-3.969,3.532-8.203,6.063-12.703,7.594c-0.5,0.188-0.797,0.578-0.891,1.172c-0.063,0.687-0.422,1.031-1.078,1.031
		c-0.344-0.25-0.641-0.719-0.891-1.406c-0.563-1.594-1.156-3.609-1.781-6.047c-0.156-0.75,0.063-1.125,0.656-1.125
		c1.281,0,2.672-0.063,4.172-0.188c0.469-0.094,0.703-0.391,0.703-0.891V92.22c0-0.5-0.234-0.75-0.703-0.75
		c-1.188,0-2.375,0.094-3.563,0.281c-0.063-0.063-0.219-0.391-0.469-0.984l-0.234-0.563c-0.281-0.625-0.109-0.875,0.516-0.75
		c1.281,0.219,2.5,0.328,3.656,0.328c0.531,0,0.797-0.234,0.797-0.703v-9.797c0-0.531-0.234-0.797-0.703-0.797
		c-1.188,0-2.25,0.063-3.188,0.188c-0.656,0.094-1.125-0.188-1.406-0.844l-0.188-0.469c-0.313-0.687-0.172-0.984,0.422-0.891
		c1.25,0.219,2.547,0.344,3.891,0.375h4.688c0.5,0,0.984-0.312,1.453-0.938c0.469-0.625,0.984-1.25,1.547-1.875
		c0.625-0.5,1.25-0.593,1.875-0.281c1.031,0.813,1.969,1.704,2.813,2.672c0.469,0.5,0.688,0.438,0.656-0.188
		c-0.031-0.813-0.094-1.625-0.188-2.438c-0.063-0.593,0.266-0.781,0.984-0.563c2,0.563,3.703,1.109,5.109,1.641
		c0.406,0.157,0.828,0.234,1.266,0.234h9.797c0.5,0,1.063-0.297,1.688-0.891C266.974,73.627,267.568,73.142,268.099,72.767z
		 M246.818,78.486l-4.125,0.047c-0.531-0.031-0.797,0.188-0.797,0.656v9.469c0,0.532,0.203,0.485,0.609-0.141
		c0.156-0.312,0.359-0.625,0.609-0.938c0.594-0.687,0.984-1.031,1.172-1.031c0.25,0.031,0.563,0.25,0.938,0.656
		c0.594,0.563,1.281,1.344,2.063,2.344c0.344,0.563,0.516,0.563,0.516,0V79.283C247.771,78.658,247.443,78.392,246.818,78.486z
		 M254.505,76.705c-0.469,0-0.703,0.234-0.703,0.703v6.141c0,0.5,0.234,0.75,0.703,0.75h1.313c0.5,0,0.75-0.25,0.75-0.75v-6.094
		c0-0.5-0.25-0.75-0.75-0.75H254.505z M254.505,85.986c-0.469,0-0.703,0.25-0.703,0.75v6.422c0,0.5,0.234,0.75,0.703,0.75h1.313
		c0.5,0,0.75-0.25,0.75-0.75v-6.422c0-0.5-0.25-0.75-0.75-0.75H254.505z M263.458,76.705c-0.5,0-0.75,0.234-0.75,0.703v6.141
		c0,0.5,0.25,0.75,0.75,0.75h1.5c0.5,0,0.75-0.25,0.75-0.75v-6.094c0-0.5-0.25-0.75-0.75-0.75H263.458z M263.458,85.986
		c-0.5,0-0.75,0.25-0.75,0.75v6.422c0,0.5,0.25,0.75,0.75,0.75h1.5c0.5,0,0.75-0.25,0.75-0.75v-6.422c0-0.5-0.25-0.75-0.75-0.75
		H263.458z"/>
	<path fill="#2E3F2E" d="M306.105,72.767c-0.063-0.625,0.219-0.891,0.844-0.797c1.219,0.157,2.453,0.328,3.703,0.516
		c1.563,0.219,2.797,0.516,3.703,0.891c0.688,0.281,0.813,0.688,0.375,1.219l-0.891,0.563c-0.5,0.375-0.75,0.813-0.75,1.313v6
		c0,0.5,0.313,0.766,0.938,0.797c2.031,0,4.078,0.016,6.141,0.047c0.625,0,1.234-0.281,1.828-0.844
		c0.625-0.563,1.25-1.078,1.875-1.547c0.563-0.406,1.188-0.469,1.875-0.188c1.844,1.282,3.063,2.266,3.656,2.953
		c0.938,0.688,0.797,1.391-0.422,2.109c-0.469,0.469-0.703,0.954-0.703,1.453v17.766l0.141,7.969
		c0.281,1.094-0.25,1.781-1.594,2.063c-1.375,0.25-2.609,0.328-3.703,0.234c-0.625-0.063-1.094-0.204-1.406-0.422
		c-0.188-0.219-0.25-0.453-0.188-0.703c-0.031-0.813-0.031-1.641,0-2.484c0-0.5-0.25-0.75-0.75-0.75h-21.703
		c-0.5,0-0.766,0.312-0.797,0.938v1.828c0.156,0.719-0.156,1.234-0.938,1.547c-1.25,0.375-2.672,0.5-4.266,0.375
		c-1.406,0-1.969-0.656-1.688-1.969c0.031-3.094,0.078-6.218,0.141-9.375v-16.5c-0.063-1.906-0.141-3.828-0.234-5.766
		c-0.063-0.593,0.234-0.797,0.891-0.609c2.906,0.781,5.016,1.406,6.328,1.875h7.125c0.531,0,0.797-0.25,0.797-0.75v-3.234
		C306.371,76.751,306.261,74.58,306.105,72.767z M299.027,85.001c-0.5,0-0.75,0.25-0.75,0.75v8.766c0,0.532,0.25,0.797,0.75,0.797
		h6.609c0.531,0,0.797-0.25,0.797-0.75v-8.813c0-0.5-0.25-0.75-0.75-0.75H299.027z M299.027,96.861c-0.5,0-0.75,0.25-0.75,0.75
		v10.922c0,0.531,0.25,0.797,0.75,0.797h6.609c0.531,0,0.797-0.25,0.797-0.75V97.658c0-0.531-0.25-0.797-0.75-0.797H299.027z
		 M313.933,85.001c-0.5,0-0.75,0.25-0.75,0.75v8.766c0,0.532,0.25,0.797,0.75,0.797h6.844c0.531,0,0.797-0.25,0.797-0.75v-8.813
		c0-0.5-0.25-0.75-0.75-0.75H313.933z M313.933,96.861c-0.5,0-0.75,0.25-0.75,0.75v10.922c0,0.531,0.25,0.797,0.75,0.797h6.844
		c0.531,0,0.797-0.25,0.797-0.75V97.658c0-0.531-0.25-0.797-0.75-0.797H313.933z"/>
	<path fill="#2E3F2E" d="M369.095,72.814c0.031-0.625,0.344-0.875,0.938-0.75c2.719,0.563,5.203,1.313,7.453,2.25
		c0.375,0.219,0.469,0.5,0.281,0.844c-0.188,0.438-0.625,0.688-1.313,0.75c-0.5,0.125-0.844,0.5-1.031,1.125
		c-0.281,1.063-0.672,2.266-1.172,3.609c-0.188,0.532-0.031,0.797,0.469,0.797h5.25c0.5,0,1.063-0.312,1.688-0.938l0.938-0.938
		c0.781-1,1.563-1.234,2.344-0.703c1.375,0.938,2.609,1.938,3.703,3c0.719,0.844,0.5,1.516-0.656,2.016
		c-0.625,0.469-0.938,0.938-0.938,1.406c0,7.625-0.594,14.875-1.781,21.75c-0.375,2.093-1.063,3.953-2.063,5.578
		c-0.969,1.375-2.141,2.328-3.516,2.859c-0.531,0.188-1.156,0.344-1.875,0.469c-0.906,0.125-1.594,0.016-2.063-0.328
		c-0.219-0.157-0.344-0.453-0.375-0.891c-0.031-0.625-0.094-1.25-0.188-1.875c-0.219-0.844-0.531-1.469-0.938-1.875
		c-0.844-0.625-1.922-1.219-3.234-1.781c-0.594-0.219-0.859-0.532-0.797-0.938c0.125-0.406,0.5-0.563,1.125-0.469
		c2.063,0.313,4.016,0.438,5.859,0.375c0.875-0.188,1.406-0.578,1.594-1.172c0.406-1.125,0.703-2.359,0.891-3.703
		c0.781-6,1.266-12.484,1.453-19.453c0-0.5-0.313-0.766-0.938-0.797h-4.547h-1.313c-0.625-0.031-1.078,0.266-1.359,0.891
		c-1.344,3.157-3.563,6.219-6.656,9.188c-0.594,0.532-0.969,0.719-1.125,0.563c-0.188-0.188-0.281-0.031-0.281,0.469v12.234
		l0.141,6.234c0.219,0.5-0.031,1.015-0.75,1.547c-1.5,0.469-2.984,0.609-4.453,0.422c-0.5-0.157-0.766-0.469-0.797-0.938v-1.734
		c0-0.532-0.25-0.797-0.75-0.797h-4.406c-0.5,0-0.75,0.25-0.75,0.75v1.359c0,0.625-0.094,1.094-0.281,1.406
		c-0.25,0.375-0.703,0.609-1.359,0.703c-1.063,0.281-2.219,0.359-3.469,0.234c-0.844-0.313-1.156-0.969-0.938-1.969
		c0-2.407,0.047-4.844,0.141-7.313V83.923c-0.031-1.219-0.094-2.438-0.188-3.656c-0.094-0.687,0.172-0.938,0.797-0.75
		c1.406,0.438,2.828,0.907,4.266,1.406c0.5,0.188,0.766-0.031,0.797-0.656c0-0.438,0.031-0.891,0.094-1.359v-2.719
		c-0.063-1.062-0.141-2.125-0.234-3.188c-0.094-0.625,0.172-0.891,0.797-0.797c2.125,0.344,4.203,0.844,6.234,1.5
		c0.75,0.25,1.141,0.594,1.172,1.031c-0.188,0.563-0.578,0.844-1.172,0.844c-0.5,0.063-0.875,0.359-1.125,0.891
		c-0.688,1.375-1.703,2.719-3.047,4.031c-0.531,0.5-0.547,0.75-0.047,0.75h2.484c0.5,0,1.047-0.312,1.641-0.938l0.75-0.797
		c0.688-0.531,1.328-0.703,1.922-0.516c1.063,0.563,2.281,1.453,3.656,2.672c0.594,0.469,0.797,0.891,0.609,1.266
		c-0.063,0.094-0.234,0.281-0.516,0.563l-0.469,0.375c-0.5,0.438-0.75,0.907-0.75,1.406v6.375c0,0.563,0.125,0.516,0.375-0.141
		C367.611,85.142,368.876,78.908,369.095,72.814z M353.814,82.751c-0.469,0-0.703,0.266-0.703,0.797v9.797
		c0,0.5,0.25,0.75,0.75,0.75h4.406c0.531,0,0.797-0.25,0.797-0.75v-9.797c0-0.531-0.25-0.797-0.75-0.797H353.814z M353.814,95.689
		c-0.469,0-0.703,0.25-0.703,0.75v12.281c0,0.531,0.25,0.797,0.75,0.797h4.406c0.531,0,0.797-0.25,0.797-0.75V96.439
		c0-0.5-0.25-0.75-0.75-0.75H353.814z M369.658,90.158c0.281-0.25,0.734-0.265,1.359-0.047c1.344,0.625,2.578,1.438,3.703,2.438
		c1.969,1.75,2.938,3.625,2.906,5.625c-0.063,1.594-0.719,2.75-1.969,3.469c-0.969,0.313-1.906,0.391-2.813,0.234
		c-0.625-0.188-1.125-0.687-1.5-1.5c-0.188-0.719-0.266-1.609-0.234-2.672c0.219-2.125-0.156-4.203-1.125-6.234
		C369.548,90.845,369.439,90.408,369.658,90.158z"/>
	<path fill="#2E3F2E" d="M423.836,85.798c2.594-0.406,4.891,0.188,6.891,1.781c1.188,1,2.031,2.203,2.531,3.609
		c0.656,1.719,0.672,3.656,0.047,5.813c-0.75,2.188-2.188,3.813-4.313,4.875c-2.719,1.125-5.313,1.047-7.781-0.234
		c-1.188-0.593-2.281-1.641-3.281-3.141c-1.25-2.375-1.422-4.844-0.516-7.406c0.406-1.343,1.313-2.594,2.719-3.75
		C421.227,86.533,422.461,86.017,423.836,85.798z M426.227,91.142c-0.969-0.125-1.813-0.047-2.531,0.234
		c-0.75,0.438-1.172,1-1.266,1.688c-0.188,0.875-0.172,1.641,0.047,2.297c0.25,0.781,0.719,1.282,1.406,1.5
		c0.594,0.281,1.313,0.344,2.156,0.188c1.531-0.25,2.313-1.203,2.344-2.859c0-0.719-0.156-1.343-0.469-1.875
		C427.571,91.689,427.008,91.299,426.227,91.142z"/>
</g>
</svg>
