<?xml version="1.0" encoding="utf-8"?>
<!-- Generator: Adobe Illustrator 16.0.0, SVG Export Plug-In . SVG Version: 6.00 Build 0)  -->
<!DOCTYPE svg PUBLIC "-//W3C//DTD SVG 1.1//EN" "http://www.w3.org/Graphics/SVG/1.1/DTD/svg11.dtd">
<svg version="1.1" id="圖層_1" xmlns="http://www.w3.org/2000/svg" xmlns:xlink="http://www.w3.org/1999/xlink" x="0px" y="0px"
	 width="377.76px" height="116.176px" viewBox="0 0 377.76 116.176" enable-background="new 0 0 377.76 116.176"
	 xml:space="preserve">
<g>
	<path fill="#2E3F2E" d="M83.519,0.825c0.125-0.593,0.484-0.828,1.078-0.703c3.188,0.656,5.672,1.297,7.453,1.922l0.469,0.234
		c0.438,0.219,0.484,0.547,0.141,0.984c-0.281,0.313-0.75,0.516-1.406,0.609c-0.531,0.188-0.891,0.594-1.078,1.219
		c-0.469,1.313-0.953,2.625-1.453,3.938c-0.25,0.563-0.141,0.844,0.328,0.844h2.953c0.5,0,1-0.25,1.5-0.75
		c0.531-0.531,1.063-1.031,1.594-1.5c0.563-0.469,1.031-0.609,1.406-0.422c1.25,0.594,2.484,1.453,3.703,2.578
		c1.125,0.75,1.188,1.469,0.188,2.156c-0.813,0.281-1.313,0.719-1.5,1.313c-0.406,1.094-0.781,2.203-1.125,3.328
		c-0.125,0.5-0.094,0.75,0.094,0.75c0.219,0,0.547-0.25,0.984-0.75c1.156-1.375,2.078-2.093,2.766-2.156
		c1.469,0.688,3,1.781,4.594,3.281c0.625,0.625,0.516,1.203-0.328,1.734l-0.703,0.422c-0.531,0.375-0.875,0.86-1.031,1.453
		c-0.313,1-0.578,2-0.797,3c-0.188,0.656-0.016,0.656,0.516,0c0.406-0.563,0.938-1.172,1.594-1.828
		c0.281-0.25,0.516-0.359,0.703-0.328c0.469,0.031,1.172,0.406,2.109,1.125c1.156,0.844,2.078,1.688,2.766,2.531
		c0.313,0.5,0.156,0.922-0.469,1.266c-0.313,0.281-0.547,0.594-0.703,0.938c-0.125,0.375-0.219,1-0.281,1.875
		c-0.25,2.375-0.625,4.844-1.125,7.406c-0.156,0.75-0.469,1.688-0.938,2.813c-0.156,0.593-0.641,1.266-1.453,2.016
		c-1.563,1.281-3.328,1.875-5.297,1.781c-0.875-0.219-1.297-0.688-1.266-1.406c-0.125-1.531-0.516-2.688-1.172-3.469
		c-0.75-0.781-1.531-1.297-2.344-1.547c-0.75-0.157-1.063-0.453-0.938-0.891c0.125-0.469,0.484-0.64,1.078-0.516
		c0.938,0.188,2.156,0.344,3.656,0.469c0.719,0.063,1.25,0.047,1.594-0.047c0.406,0,0.734-0.312,0.984-0.938
		c0.563-2.313,0.953-5.125,1.172-8.438c0.031-0.5-0.203-0.75-0.703-0.75H79.628c-0.469,0-0.969,0.313-1.5,0.938
		c-2.781,3.219-5.953,5.906-9.516,8.063c-0.625,0.375-1.047,0.438-1.266,0.188c-0.25-0.312-0.125-0.734,0.375-1.266
		c3.375-3.781,6.047-7.5,8.016-11.156c1.938-3.469,3.531-7.188,4.781-11.156c0.125-0.5-0.063-0.75-0.563-0.75h-5.203
		c-1.719,0.094-3.141,0.204-4.266,0.328c-0.594,0.063-1.063-0.265-1.406-0.984l-0.234-0.469c-0.281-0.625-0.109-0.891,0.516-0.797
		c1.781,0.219,3.609,0.328,5.484,0.328c0.563,0,0.672-0.078,0.328-0.234c-0.469-0.344-0.766-0.813-0.891-1.406
		c-0.156-1.718-0.375-2.953-0.656-3.703c-0.219-0.593-0.625-1.203-1.219-1.828c-0.719-0.687-0.984-1.156-0.797-1.406
		c0.188-0.312,0.594-0.453,1.219-0.422c2.5,0.125,4.672,0.969,6.516,2.531c1.313,1.25,1.625,2.829,0.938,4.734
		C79.816,8.716,79.3,9.232,78.738,9.45c-0.5,0.157-0.438,0.25,0.188,0.281c0.5,0,1.016,0.031,1.547,0.094
		c0.531,0.031,0.891-0.265,1.078-0.891C82.488,6.06,83.144,3.356,83.519,0.825z M76.207,32.606c0.125-0.656,0.344-0.984,0.656-0.984
		s0.578,0.313,0.797,0.938c0.75,2.594,0.75,5.14,0,7.641c-0.625,1.594-1.656,2.484-3.094,2.672
		c-1.125,0.218-2.156,0.109-3.094-0.328c-0.688-0.344-1.125-0.891-1.313-1.641c-0.156-0.781-0.141-1.406,0.047-1.875
		c0.219-0.594,0.531-1.031,0.938-1.313C73.957,36.466,75.644,34.763,76.207,32.606z M81.785,30.45
		c0.406-0.125,0.859-0.016,1.359,0.328c2.688,2.063,3.859,4.453,3.516,7.172c0,1-0.563,1.859-1.688,2.578
		c-1.406,0.469-2.578,0.516-3.516,0.141c-1.094-0.625-1.5-1.641-1.219-3.047c0.094-0.313,0.234-0.625,0.422-0.938
		c0.844-1.437,1.156-3.109,0.938-5.016C81.472,30.95,81.535,30.544,81.785,30.45z M84.832,18.919c-0.469,0-0.844,0.25-1.125,0.75
		c-0.938,1.657-1.969,3.234-3.094,4.734c-0.406,0.5-0.344,0.75,0.188,0.75h15c0.5,0,0.828-0.297,0.984-0.891l1.219-4.594
		c0.094-0.5-0.109-0.75-0.609-0.75H84.832z M88.441,11.466c-0.5,0-0.859,0.328-1.078,0.984c-0.625,1.5-1.313,2.906-2.063,4.219
		c-0.25,0.5-0.125,0.75,0.375,0.75h4.688c0.5,0,0.844-0.312,1.031-0.938c0.406-1.406,0.844-2.813,1.313-4.219
		c0.156-0.531-0.016-0.797-0.516-0.797H88.441z M88.722,28.716c0.313-0.218,0.75-0.171,1.313,0.141
		c3.594,1.969,5.047,4.406,4.359,7.313c-0.75,1.688-2.141,2.391-4.172,2.109c-1.375-0.375-1.953-1.235-1.734-2.578
		c0.063-0.625,0.172-1.25,0.328-1.875c0.219-1.313,0.156-2.594-0.188-3.844C88.378,29.294,88.41,28.873,88.722,28.716z
		 M95.238,27.45c0.281-0.188,0.719-0.203,1.313-0.047c1.531,0.406,2.781,1.016,3.75,1.828c1.438,1.344,1.859,2.875,1.266,4.594
		c-0.344,0.907-1,1.469-1.969,1.688c-0.875,0.188-1.625,0.157-2.25-0.094c-0.781-0.375-1.172-1-1.172-1.875
		c0.063-0.844,0.063-1.703,0-2.578c-0.094-0.781-0.344-1.547-0.75-2.297C95.05,28.076,94.988,27.669,95.238,27.45z"/>
	<path fill="#2E3F2E" d="M133.056,1.013c0.063-0.625,0.406-0.875,1.031-0.75c2.438,0.532,4.578,1.156,6.422,1.875
		c0.719,0.219,0.938,0.579,0.656,1.078c-0.125,0.219-0.422,0.391-0.891,0.516c-0.063,0.031-0.156,0.047-0.281,0.047
		c-0.5,0.157-0.828,0.547-0.984,1.172c-0.688,2.375-1.453,4.516-2.297,6.422c-0.281,0.625-0.109,1.031,0.516,1.219
		c0.75,0.219,1.172,0.547,1.266,0.984c0,0.344-0.313,0.672-0.938,0.984c-0.5,0.281-0.75,0.672-0.75,1.172V34.81l0.188,7.313
		c0.156,0.781-0.234,1.313-1.172,1.594c-1.438,0.375-2.875,0.5-4.313,0.375c-0.594-0.125-0.984-0.375-1.172-0.75
		c-0.063-0.094-0.094-0.453-0.094-1.078l0.141-6.422V20.7c0-0.5-0.25-0.484-0.75,0.047c-0.875,0.875-1.922,1.719-3.141,2.531
		c-0.75,0.438-1.234,0.532-1.453,0.281c-0.219-0.25-0.141-0.687,0.234-1.313C129.587,15.903,132.181,8.825,133.056,1.013z
		 M148.853,1.153c-0.094-0.625,0.156-0.906,0.75-0.844c3.313,0.406,5.609,0.781,6.891,1.125c0.969,0.25,1.188,0.719,0.656,1.406
		c-0.063,0.063-0.25,0.141-0.563,0.234s-0.547,0.204-0.703,0.328c-0.156,0.125-0.234,0.438-0.234,0.938v11.625
		c0,0.5,0.25,0.75,0.75,0.75h1.5c0.5,0,0.984-0.312,1.453-0.938c1.375-1.781,2.391-2.906,3.047-3.375
		c0.188-0.125,0.406-0.141,0.656-0.047c1.5,0.844,3.188,2.266,5.063,4.266c0.688,0.594,0.797,1.172,0.328,1.734
		c-0.125,0.094-0.5,0.141-1.125,0.141h-10.875c-0.5,0-0.75,0.25-0.75,0.75v16.828l0.281,6.234c0.063,0.563-0.203,1-0.797,1.313
		c-1.156,0.375-2.531,0.546-4.125,0.516c-0.5,0.031-1-0.063-1.5-0.281c-0.344-0.281-0.547-0.547-0.609-0.797v-2.531
		c0.031-1.844,0.078-3.719,0.141-5.625V19.247c0-0.5-0.234-0.75-0.703-0.75h-3.797c-1.719,0.031-3.422,0.125-5.109,0.281
		c-0.625,0.063-1.078-0.218-1.359-0.844l-0.281-0.656c-0.281-0.593-0.063-0.875,0.656-0.844c2.281,0.157,4.297,0.25,6.047,0.281
		h3.797c0.5,0,0.75-0.25,0.75-0.75V5.794C149.087,3.825,149.009,2.278,148.853,1.153z"/>
	<path fill="#2E3F2E" d="M200.172,0.263c2.469-0.438,4.641-0.328,6.516,0.328c1.469,0.813,2.094,1.953,1.875,3.422
		c-0.188,0.594-0.031,0.891,0.469,0.891h6.469c0.5,0,1.016-0.312,1.547-0.938c0.75-0.781,1.516-1.563,2.297-2.344
		c0.625-0.375,1.234-0.406,1.828-0.094c0.813,0.532,1.656,1.219,2.531,2.063c1.156,0.907,1.813,1.688,1.969,2.344
		c0.031,0.219-0.125,0.406-0.469,0.563c-0.094,0.031-0.453,0.047-1.078,0.047h-32.438c-0.5,0-0.766,0.313-0.797,0.938v3
		c0,0.5,0.313,0.797,0.938,0.891c1.281,0.157,2.609,0.25,3.984,0.281c0.5,0,0.766-0.312,0.797-0.938
		c0-0.813-0.094-1.797-0.281-2.953c-0.125-0.719,0.125-1.047,0.75-0.984c2.781,0.313,4.719,0.703,5.813,1.172
		c0.563,0.438,0.391,0.907-0.516,1.406c-0.5,0.438-0.75,0.922-0.75,1.453c0,0.563,0.047,0.844,0.141,0.844s0.313-0.25,0.656-0.75
		c0.406-0.563,0.828-1.141,1.266-1.734c0.438-0.469,0.813-0.766,1.125-0.891c0.438,0.031,0.938,0.297,1.5,0.797l1.734,1.828
		c0.5,0.5,0.984,0.75,1.453,0.75h2.25c0.5,0,0.75-0.25,0.75-0.75c0-0.875-0.078-1.969-0.234-3.281
		c-0.094-0.656,0.172-0.938,0.797-0.844c1.938,0.313,3.625,0.719,5.063,1.219c0.656,0.344,0.984,0.594,0.984,0.75
		c-0.094,0.406-0.359,0.719-0.797,0.938c-0.25,0.094-0.438,0.204-0.563,0.328c-0.125,0.125-0.188,0.422-0.188,0.891
		c0,0.5,0.125,0.75,0.375,0.75c0.281,0,0.625-0.312,1.031-0.938c0.469-0.593,0.953-1.203,1.453-1.828
		c0.5-0.563,0.969-0.719,1.406-0.469c1.656,1.188,2.891,2.454,3.703,3.797c0.094,0.281,0.078,0.5-0.047,0.656
		c-0.281,0.281-0.75,0.375-1.406,0.281h-5.766c-0.531,0-0.797,0.25-0.797,0.75v6.188l0.141,4.922c0.156,0.532-0.063,1-0.656,1.406
		c-1.125,0.406-2.359,0.532-3.703,0.375c-0.813-0.156-1.141-0.563-0.984-1.219c0.063-2.594,0.109-5.203,0.141-7.828
		c0-0.593-0.047-0.875-0.141-0.844c-0.094,0.094-0.172,0.219-0.234,0.375c-0.156,1.469-0.422,2.688-0.797,3.656
		c-0.469,1.25-1.359,2.5-2.672,3.75c-0.625,0.469-1.094,0.594-1.406,0.375c-0.313-0.218-0.344-0.64-0.094-1.266
		c0.875-2.813,1.125-5.641,0.75-8.484c-0.031-0.625,0.266-0.875,0.891-0.75c0.969,0.157,1.953,0.344,2.953,0.563
		c0.531,0.094,0.797-0.094,0.797-0.563V13.95c0-0.5-0.25-0.75-0.75-0.75h-9.375c-0.5,0-0.75,0.25-0.75,0.75v6.328l0.141,5.391
		c0.094,0.781-0.297,1.282-1.172,1.5c-1.031,0.281-2.156,0.344-3.375,0.188c-0.594-0.188-0.859-0.609-0.797-1.266l0.141-8.063
		c0-0.5-0.047-0.734-0.141-0.703c-0.094,0.094-0.172,0.219-0.234,0.375c-0.156,1.531-0.391,2.766-0.703,3.703
		c-0.531,1.688-1.625,3.219-3.281,4.594c-0.594,0.438-1.016,0.532-1.266,0.281c-0.25-0.281-0.234-0.734,0.047-1.359
		c1.094-3.031,1.453-6.109,1.078-9.234c-0.063-0.625,0.203-0.906,0.797-0.844l2.953,0.563c0.5,0.094,0.75-0.109,0.75-0.609V13.95
		c0-0.5-0.25-0.766-0.75-0.797c-1.125,0.031-2.219,0.125-3.281,0.281c-0.594,0.094-1.016-0.094-1.266-0.563
		s-0.375-0.438-0.375,0.094v2.531c0.063,7.875-0.547,13.953-1.828,18.234C188,37.169,186.313,40.325,184,43.2
		c-0.531,0.625-0.969,0.828-1.313,0.609c-0.313-0.157-0.359-0.609-0.141-1.359c1.063-3.969,1.781-8.922,2.156-14.859
		c0.156-2.75,0.25-5.063,0.281-6.938v-5.297l0.047-1.828V7.81c-0.031-1.469-0.141-2.89-0.328-4.266
		c-0.094-0.593,0.219-0.797,0.938-0.609c1.75,0.532,3.297,1.063,4.641,1.594c0.563,0.313,1.141,0.438,1.734,0.375h9.703
		c0.5,0,0.609-0.312,0.328-0.938c-0.375-1.094-1.109-1.891-2.203-2.391c-0.719-0.188-1-0.406-0.844-0.656
		C199.157,0.607,199.547,0.388,200.172,0.263z M202.938,25.294c0.219-0.656,0.625-0.875,1.219-0.656
		c1.813,0.719,3.641,1.453,5.484,2.203c0.75,0.157,1.047,0.547,0.891,1.172c-0.406,0.469-1.063,0.625-1.969,0.469
		c-0.281,0.031-0.594,0.157-0.938,0.375c-1.438,0.688-2.859,1.219-4.266,1.594c-0.438,0.125-0.359,0.219,0.234,0.281l2.859,0.188h3
		c0.219,0,0.438-0.047,0.656-0.141c0.781-0.531,1.609-1.359,2.484-2.484c0.406-0.625,0.922-0.828,1.547-0.609
		c2.531,0.907,4.391,1.641,5.578,2.203c0.656,0.469,0.969,0.828,0.938,1.078c-0.281,0.594-0.797,0.828-1.547,0.703
		c-0.406-0.094-0.703-0.094-0.891,0c-4.625,2.813-9.359,4.688-14.203,5.625c-0.5,0.125-0.516,0.203-0.047,0.234l5.719,0.234h6.047
		l1.875-0.094c0.5,0,0.594-0.313,0.281-0.938c-0.344-0.625-0.828-1.328-1.453-2.109c-0.563-0.593-0.734-1.015-0.516-1.266
		c0.25-0.25,0.688-0.281,1.313-0.094c2,0.532,3.859,1.516,5.578,2.953c2.063,1.812,2.672,3.766,1.828,5.859
		c-0.344,0.687-0.891,1.156-1.641,1.406c-0.5,0.156-1.172,0.188-2.016,0.094c-0.688-0.157-1.188-0.641-1.5-1.453
		c-0.125-0.375-0.25-1-0.375-1.875l-0.094-0.422c-0.156-0.5-0.531-0.688-1.125-0.563c-7.594,1.531-15.344,2.547-23.25,3.047
		c-0.531,0.031-0.922,0.344-1.172,0.938c-0.469,0.938-0.953,0.968-1.453,0.094c-0.594-1.813-1.094-3.813-1.5-6
		c-0.094-0.594,0.203-0.844,0.891-0.75c1.594,0.25,3.75,0.438,6.469,0.563c0.219,0.063,0.531,0,0.938-0.188
		c2.438-0.75,5-1.938,7.688-3.563c0.469-0.312,0.438-0.391-0.094-0.234c-2.469,0.781-5.156,1.359-8.063,1.734
		c-0.563,0.063-0.906,0.188-1.031,0.375c-0.156,0.719-0.484,1-0.984,0.844c-0.094-0.031-0.281-0.359-0.563-0.984
		c-0.313-1-0.672-2.515-1.078-4.547c-0.156-0.625,0.109-0.875,0.797-0.75c1.125,0.188,2.266,0.344,3.422,0.469
		c0.469,0.031,0.922-0.203,1.359-0.703C201.485,28.231,202.375,26.794,202.938,25.294z M202.61,15.544
		c-0.063-0.656,0.203-0.921,0.797-0.797c1.125,0.25,2.266,0.532,3.422,0.844c0.75,0.157,1.047,0.485,0.891,0.984
		c-0.094,0.157-0.281,0.328-0.563,0.516c-0.313,0.25-0.469,0.625-0.469,1.125v2.391l0.141,1.828
		c-0.156,0.656-0.688,1.016-1.594,1.078c-0.469,0.094-1.063,0.125-1.781,0.094c-0.375,0-0.625-0.218-0.75-0.656l0.094-1.969V20.7
		v-3.469L202.61,15.544z M218.36,15.638c-0.063-0.625,0.203-0.906,0.797-0.844c1.563,0.313,2.781,0.594,3.656,0.844
		c0.313,0.125,0.547,0.25,0.703,0.375c0.125,0.157,0.172,0.297,0.141,0.422c0,0.281-0.172,0.5-0.516,0.656
		c-0.531,0.25-0.719,0.672-0.563,1.266c0,0.688,0.016,1.406,0.047,2.156c0.063,0.094,0.125,0.172,0.188,0.234
		c0.094,0.031,0.266-0.094,0.516-0.375c0.281-0.531,0.688-0.781,1.219-0.75c0.531-0.031,0.969,0.219,1.313,0.75
		c0.406,0.75,0.516,1.688,0.328,2.813c-0.344,0.844-0.859,1.297-1.547,1.359c-1.094,0.375-2.328,0.406-3.703,0.094
		c-0.625-0.063-1.219-0.484-1.781-1.266c-0.313-0.531-0.516-1.203-0.609-2.016v-4.078L218.36,15.638z"/>
	<path fill="#2E3F2E" d="M237.709,22.06c0-0.625,0.313-0.938,0.938-0.938h46.078c0.625,0,0.938,0.313,0.938,0.938
		c0,0.625-0.313,0.938-0.938,0.938h-46.078C238.022,22.997,237.709,22.685,237.709,22.06z"/>
	<path fill="#2E3F2E" d="M283.309,22.06c0-0.625,0.313-0.938,0.938-0.938h46.078c0.625,0,0.938,0.313,0.938,0.938
		c0,0.625-0.313,0.938-0.938,0.938h-46.078C283.622,22.997,283.309,22.685,283.309,22.06z"/>
	<path fill="#2E3F2E" d="M21.991,73.435c0.656-0.656,1.25-0.906,1.781-0.75c0.813,0.438,1.688,1.078,2.625,1.922
		c0.625,0.688,0.938,1.125,0.938,1.313c-0.063,0.375-0.328,0.719-0.797,1.031l-0.469,0.469c-0.063,0.75-0.063,1.5,0,2.25
		c0.094,0.532,0.297,0.828,0.609,0.891c0.375,0.031,0.563,0.359,0.563,0.984c-0.157,0.75-0.063,1.329,0.281,1.734
		c0.344,0.438,0.516,0.391,0.516-0.141l0.047-2.156v-3.891l-0.281-3.516c-0.063-0.625,0.218-0.844,0.844-0.656
		c1.75,0.594,3.516,1.219,5.297,1.875H34.6c0.5,0,1-0.234,1.5-0.703c0.719-0.687,1.266-1.125,1.641-1.313
		c0.406-0.218,0.875-0.141,1.406,0.234c0.563,0.344,1.125,0.75,1.688,1.219c0.687,0.625,1.094,1.109,1.219,1.453
		c0.156,0.313-0.031,0.688-0.563,1.125c-0.469,0.438-0.703,0.907-0.703,1.406c0,0.5,0.031,1.031,0.094,1.594
		c0.063,0.438,0.281,0.688,0.656,0.75c0.375,0.031,0.546,0.359,0.516,0.984c-0.125,0.719,0,1.266,0.375,1.641
		c0.906,0.844,1.203,1.75,0.891,2.719c-0.25,0.656-0.781,1.203-1.594,1.641c-1.219,0.5-2.563,0.781-4.031,0.844h-3.188
		c-1.344-0.031-2.578-0.156-3.703-0.375c-0.75-0.094-1.438-0.5-2.063-1.219c-0.281-0.563-0.625-0.546-1.031,0.047
		c-0.438,0.406-1.031,0.75-1.781,1.031c-0.875,0.313-1.938,0.485-3.188,0.516H20.35c-0.469,0-0.406,0.047,0.188,0.141
		c2.875,0.313,4.891,0.719,6.047,1.219c0.312,0.25,0.375,0.532,0.188,0.844c-0.157,0.281-0.406,0.469-0.75,0.563
		c-0.5,0.375-0.75,0.766-0.75,1.172c0,0.406,0.25,0.609,0.75,0.609h2.109c0.5,0,0.766-0.312,0.797-0.938
		c-0.031-0.719-0.141-1.594-0.328-2.625c-0.188-0.719,0-1.031,0.563-0.938c2.281,0.25,4.375,0.609,6.281,1.078
		c0.593,0.313,0.906,0.516,0.938,0.609c0.094,0.375-0.125,0.719-0.656,1.031c-0.438,0.344-0.656,0.734-0.656,1.172
		c0,0.532,0.234,0.469,0.703-0.188c0.938-1.219,1.688-2.031,2.25-2.438c0.218-0.063,0.625,0.11,1.219,0.516
		c1.75,1.469,2.859,2.703,3.328,3.703c0.063,0.125-0.016,0.281-0.234,0.469c-0.094,0.094-0.438,0.141-1.031,0.141h-5.438
		c-0.532,0-0.797,0.25-0.797,0.75v3.188c0,0.5,0.109,0.75,0.328,0.75c0.25,0,0.593-0.312,1.031-0.938
		c1-1.313,1.812-2.203,2.438-2.672c0.188-0.063,0.391-0.016,0.609,0.141c1.188,0.781,2.484,2.016,3.891,3.703
		c0.625,1.031,0.281,1.484-1.031,1.359H21.85c-0.594,0-0.547,0.125,0.141,0.375c2.156,0.844,3.859,1.61,5.109,2.297
		c0.563,0.375,0.844,0.625,0.844,0.75c-0.031,0.532-0.359,0.797-0.984,0.797l-0.656-0.094c-0.469-0.094-0.969,0.063-1.5,0.469
		c-2.625,1.531-5.438,2.563-8.438,3.094c-0.532,0.094-0.516,0.188,0.047,0.281c1.938,0.312,4.125,0.5,6.563,0.563h5.156
		c3.719-0.094,6.891-0.234,9.516-0.422c0.563-0.031,0.5-0.219-0.188-0.563c-0.469-0.312-1.063-0.875-1.781-1.688
		c-1.844-2.219-3.813-3.578-5.906-4.078c-0.594-0.125-0.813-0.375-0.656-0.75c0.094-0.344,0.453-0.531,1.078-0.563
		c1.906-0.094,3.703-0.047,5.391,0.141c1.281,0.094,2.515,0.375,3.703,0.844c2.313,0.969,3.094,2.672,2.344,5.109
		c-0.157,0.313-0.344,0.609-0.563,0.891c-0.344,0.25-0.188,0.344,0.469,0.281l1.406-0.141c0.719-0.125,1.062,0.109,1.031,0.703
		c-0.031,0.188-0.204,0.438-0.516,0.75c-0.406,0.531-0.688,1.313-0.844,2.344l-0.281,1.875c-0.219,0.625-0.579,1-1.078,1.125h-4.641
		c-6.625-0.031-12.313-0.532-17.063-1.5c-2.719-0.5-5.188-1.578-7.406-3.234c-0.406-0.313-1-0.891-1.781-1.734
		c-0.344-0.469-0.719-0.406-1.125,0.188c-2.219,3.063-4.844,5.344-7.875,6.844c-0.625,0.281-1.047,0.297-1.266,0.047
		c-0.219-0.25-0.078-0.688,0.422-1.313c3.875-4.875,6.234-10.343,7.078-16.406c0.063-0.5,0-0.75-0.188-0.75
		c-0.219,0-0.453,0.313-0.703,0.938c-0.063,0.469-0.422,0.844-1.078,1.125c-0.844,0.313-2.188,0.313-4.031,0
		c-0.438-0.063-0.781-0.203-1.031-0.422c-0.344-0.344-0.359-0.781-0.047-1.313c0.781-1.437,1.39-2.672,1.828-3.703l2.531-7.172
		c0.156-0.531-0.063-0.797-0.656-0.797c-0.813,0.031-1.625,0.078-2.438,0.141c-0.719,0.094-1.203-0.156-1.453-0.75
		c-0.031-0.125-0.078-0.265-0.141-0.422c-0.281-0.687-0.141-0.984,0.422-0.891c1.281,0.219,2.625,0.328,4.031,0.328
		c0.469,0,1.015-0.281,1.641-0.844c0.938-1.031,1.718-1.39,2.344-1.078c1.469,0.813,2.672,1.75,3.609,2.813
		c0.469,0.781,0.171,1.344-0.891,1.688c-0.5,0.219-0.875,0.641-1.125,1.266l-2.297,6.656c-0.157,0.5-0.172,0.766-0.047,0.797
		c0.125,0,0.5-0.328,1.125-0.984c0.593-0.593,1.141-0.968,1.641-1.125c0.438-0.031,1.078,0.266,1.922,0.891
		c0.593,0.406,1.219,0.907,1.875,1.5c0.687,0.563,0.984,1.047,0.891,1.453c-0.125,0.313-0.406,0.532-0.844,0.656
		c-0.5,0.281-0.766,0.5-0.797,0.656c0,0.094,0.265,0.172,0.797,0.234c1.281,0.125,2.562,0.204,3.844,0.234
		c0.531,0,0.797-0.25,0.797-0.75v-3.188c0-0.5-0.25-0.75-0.75-0.75c-1.031,0-2,0.063-2.906,0.188
		c-0.625,0.063-1.094-0.203-1.406-0.797l-0.328-0.609c-0.281-0.625-0.078-0.859,0.609-0.703c1.219,0.219,2.547,0.328,3.984,0.328
		c0.5,0,0.766-0.312,0.797-0.938c-0.031-1.094-0.172-2.078-0.422-2.953c-0.157-0.5-0.547-0.781-1.172-0.844l-1.828-0.328
		c-1.406-0.531-2.172-1.578-2.297-3.141v-7.078c-0.063-1.375-0.157-2.75-0.281-4.125c-0.063-0.593,0.265-0.781,0.984-0.563
		c1.563,0.532,3.109,1.078,4.641,1.641c0.375,0.125,0.75,0.188,1.125,0.188c0.438,0,0.906-0.234,1.406-0.703L21.991,73.435z
		 M2.397,72.403c0.188-0.312,0.578-0.406,1.172-0.281C6.006,72.403,7.85,72.966,9.1,73.81c0.593,0.375,1.156,0.938,1.688,1.688
		c0.719,1.313,0.891,2.609,0.516,3.891c-0.532,1.563-1.578,2.313-3.141,2.25c-0.75,0-1.359-0.109-1.828-0.328
		c-0.625-0.438-1.031-1.031-1.219-1.781c-0.125-0.625-0.204-1.25-0.234-1.875c-0.25-1.563-0.907-2.953-1.969-4.172
		C2.35,73.013,2.178,72.654,2.397,72.403z M13.413,100.763c-0.125-0.281-0.266-0.141-0.422,0.422
		c-0.438,1.313-1.094,2.844-1.969,4.594c-0.281,0.532-0.141,0.984,0.422,1.359c0.156,0.094,0.297,0.172,0.422,0.234
		c0.625,0.281,1.25,0.219,1.875-0.188c2.594-1.688,4.547-3.546,5.859-5.578c0.344-0.531,0.281-0.797-0.188-0.797
		c-1.781-0.031-3.406,0.031-4.875,0.188C13.912,101.06,13.537,100.981,13.413,100.763z M19.928,81.31
		c-0.656,0-0.984,0.234-0.984,0.703c-0.157,0.625,0.047,1.141,0.609,1.547c0.938,0.344,2.203,0.422,3.797,0.234
		c0.593-0.031,1.141-0.156,1.641-0.375c0.312-0.188,0.546-0.546,0.703-1.078c0.156-0.469-0.078-0.531-0.703-0.188
		c-0.719,0.219-1.641,0.328-2.766,0.328c-0.344-0.031-0.672-0.141-0.984-0.328c-0.188-0.188-0.297-0.391-0.328-0.609
		C20.913,81.388,20.584,81.31,19.928,81.31z M19.928,76.388c-0.656,0-0.984,0.25-0.984,0.75v1.875c0,0.5,0.312,0.75,0.938,0.75
		c0.687,0,1.031-0.25,1.031-0.75v-1.875C20.913,76.638,20.584,76.388,19.928,76.388z M25.928,94.575c-0.5,0-0.75,0.25-0.75,0.75
		v3.188c0,0.5,0.25,0.75,0.75,0.75h2.109c0.531,0,0.797-0.25,0.797-0.75v-3.188c0-0.5-0.25-0.75-0.75-0.75H25.928z M34.647,76.388
		c-0.656,0-0.984,0.25-0.984,0.75v1.875c0,0.5,0.328,0.75,0.984,0.75c0.687,0,1.031-0.25,1.031-0.75v-1.875
		C35.678,76.638,35.334,76.388,34.647,76.388z M34.694,81.31c-0.688,0-1.031,0.234-1.031,0.703s0.031,0.828,0.094,1.078
		c0.312,0.406,0.64,0.609,0.984,0.609c1.437,0.313,3.078,0.234,4.922-0.234c0.406-0.156,0.687-0.5,0.844-1.031
		c0.188-0.593,0.25-0.844,0.188-0.75c-1.031,0.688-2.391,0.922-4.078,0.703c-0.469,0-0.781-0.281-0.938-0.844
		C35.678,81.388,35.35,81.31,34.694,81.31z"/>
	<path fill="#2E3F2E" d="M62.669,72.919c-0.094-0.656,0.156-0.953,0.75-0.891c2.75,0.281,4.906,0.672,6.468,1.172
		c0.719,0.219,0.875,0.594,0.469,1.125c-0.094,0.125-0.313,0.266-0.656,0.422c-0.469,0.406-0.703,0.86-0.703,1.359v5.25
		c0,0.563,0.125,0.516,0.375-0.141c0.125-0.438,0.297-0.875,0.516-1.313c0.438-0.593,0.719-0.891,0.844-0.891
		c0.375,0.063,0.75,0.438,1.125,1.125c0.313,0.532,0.594,1.078,0.844,1.641s0.375,0.532,0.375-0.094v-5.203
		c-0.031-1.031-0.109-2.063-0.234-3.094c-0.094-0.625,0.172-0.875,0.797-0.75c1.719,0.375,3.563,0.938,5.531,1.688h13.594
		c0.438,0,0.969-0.312,1.594-0.938c1.031-0.938,1.797-1.375,2.297-1.313c1.031,0.438,2.125,1.125,3.281,2.063
		c1.094,0.75,1.109,1.516,0.047,2.297c-0.375,0.406-0.563,0.844-0.563,1.313v3.422c0.031,0.532,0.031,1.047,0,1.547
		c0.219,0.969-0.172,1.594-1.172,1.875c-0.625,0.188-1.281,0.281-1.969,0.281c-0.531,0-0.484,0.25,0.141,0.75
		c1.25,0.907,2.156,1.75,2.719,2.531c0.125,0.25,0.109,0.469-0.047,0.656c-0.219,0.188-0.641,0.25-1.266,0.188h-7.969
		c-0.5,0-0.75,0.25-0.75,0.75v2.391c0,0.5,0.25,0.75,0.75,0.75h2.766c0.5,0,0.953-0.312,1.359-0.938
		c0.469-0.593,0.969-1.203,1.5-1.828c0.625-0.844,1.219-1.015,1.781-0.516c1.469,1.031,2.813,2.234,4.031,3.609
		c0.438,0.5,0.406,0.875-0.094,1.125c-0.063,0.063-0.406,0.094-1.031,0.094H92.2c-0.469,0-0.406,0.063,0.188,0.188
		c1.75,0.344,2.984,0.641,3.703,0.891c0.781,0.219,1.078,0.563,0.891,1.031c-0.031,0.063,0.266,0.266,0.891,0.609
		c1.063,0.875,2.141,1.906,3.234,3.094c0.625,0.563,0.703,1.078,0.234,1.547c-0.156,0.063-0.547,0.094-1.172,0.094H89.856
		c-0.5,0-0.75,0.25-0.75,0.75v2.625c0,0.532,0.25,0.797,0.75,0.797h2.203c0.5,0,0.969-0.312,1.406-0.938
		c0.563-0.844,1.094-1.531,1.594-2.063c0.563-0.875,1.094-1.047,1.594-0.516c1.313,0.907,2.578,2.079,3.797,3.516
		c0.563,0.532,0.656,0.984,0.281,1.359c-0.25,0.125-0.688,0.188-1.313,0.188h-9.609c-0.5,0-0.75,0.25-0.75,0.75v2.953
		c0.063,0.844,0.094,1.703,0.094,2.578c0.219,1.156-0.344,1.812-1.688,1.969c-1.906,0.312-3.328,0.297-4.266-0.047
		c-0.5-0.281-0.688-0.641-0.563-1.078l0.094-6.328c0-0.5-0.297-0.75-0.891-0.75h-0.797H77.34c-0.875,0.031-1.766,0.094-2.672,0.188
		c-0.719,0.094-1.234-0.156-1.547-0.75l-0.234-0.375c-0.344-0.75-0.203-1.078,0.422-0.984c1.438,0.188,3.109,0.297,5.016,0.328
		h3.703c0.5,0,0.75-0.234,0.75-0.703v-2.625c0-0.531-0.25-0.797-0.75-0.797h-5.953c-0.969,0.063-1.938,0.141-2.906,0.234
		c-0.594,0.063-1.047-0.218-1.359-0.844l-0.234-0.422c-0.344-0.656-0.203-0.953,0.422-0.891c1.938,0.219,3.984,0.328,6.141,0.328
		c0.531,0.031,0.656-0.265,0.375-0.891c-0.063-0.719-0.188-1.343-0.375-1.875c-0.219-0.875-0.75-1.547-1.594-2.016
		c-0.313-0.094-0.406-0.297-0.281-0.609c0.125-0.312-0.078-0.453-0.609-0.422c-0.5,0-1.016,0.031-1.547,0.094
		c-0.594,0.063-0.984-0.078-1.172-0.422c-0.125-0.281-0.453-0.188-0.984,0.281c-0.719,0.625-1.422,1.203-2.109,1.734
		c-0.594,0.406-0.891,0.86-0.891,1.359v12.844c-0.094,1.531-0.656,2.75-1.688,3.656c-1.594,1.125-3.094,1.718-4.5,1.781
		c-0.656,0.125-1.078-0.125-1.266-0.75c-0.188-1.469-0.563-2.703-1.125-3.703c-0.406-0.563-1-0.969-1.781-1.219
		c-0.656-0.25-0.954-0.594-0.891-1.031c0.063-0.406,0.438-0.594,1.125-0.563c0.813,0.156,1.891,0.171,3.234,0.047
		c0.312,0,0.531-0.047,0.656-0.141c0.063-0.063,0.109-0.422,0.141-1.078v-7.313c0-0.5-0.297-0.625-0.891-0.375
		c-0.594,0.063-0.954,0.391-1.078,0.984c-0.063,0.563-0.281,0.922-0.656,1.078c-0.438,0-0.734-0.234-0.891-0.703
		c-0.313-0.813-0.656-2.063-1.031-3.75l-0.656-3.188c-0.157-0.593,0.125-0.859,0.844-0.797c1.188,0.031,2.406,0.016,3.656-0.047
		c0.5,0,0.75-0.25,0.75-0.75v-7.078c0-0.5-0.234-0.75-0.703-0.75c-0.813,0-1.766,0.047-2.859,0.141
		c-0.625,0.094-1.078-0.156-1.359-0.75L57.7,83.466c-0.25-0.593-0.016-0.813,0.703-0.656c1.219,0.25,2.468,0.375,3.75,0.375
		c0.5,0,0.75-0.25,0.75-0.75V76.81C62.872,75.497,62.793,74.201,62.669,72.919z M79.637,84.216c-0.438,0-0.688,0.125-0.75,0.375
		c-0.125,0.625-0.703,1.047-1.734,1.266c-1.406,0.219-2.578,0.204-3.516-0.047c-0.438-0.218-0.656-0.516-0.656-0.891
		c0-0.156-0.25-0.234-0.75-0.234h-2.438c-0.531,0-0.797,0.25-0.797,0.75v6.328c0,0.5,0.313,0.688,0.938,0.563
		c1.031-0.25,1.953-0.531,2.766-0.844c0.75-0.312,1.203-0.328,1.359-0.047c0.125,0.281,0.125,0.547,0,0.797
		c-0.188,0.25-0.016,0.422,0.516,0.516c0.906,0.094,1.828,0.157,2.766,0.188h4.734c0.5,0,0.75-0.25,0.75-0.75v-2.391
		c0-0.5-0.25-0.75-0.75-0.75h-3.141c-0.969,0.063-1.922,0.141-2.859,0.234c-0.719,0.063-1.234-0.171-1.547-0.703l-0.234-0.422
		c-0.375-0.75-0.25-1.078,0.375-0.984c2.531,0.25,5,0.359,7.406,0.328c0.5,0,0.75-0.234,0.75-0.703v-1.828
		c0-0.5-0.25-0.75-0.75-0.75H79.637z M79.684,76.013c-0.531,0-0.797,0.25-0.797,0.75v5.203c0,0.5,0.25,0.75,0.75,0.75
		c0.563,0,0.844-0.234,0.844-0.703v-5.25C80.481,76.263,80.215,76.013,79.684,76.013z M81.325,94.622l0.563,0.188
		c1.531,0.625,2.297,1.781,2.297,3.469c0,0.5-0.188,1-0.563,1.5c-0.344,0.406-0.266,0.609,0.234,0.609h3.094
		c0.5,0,0.891-0.312,1.172-0.938c0.531-1.375,0.891-2.796,1.078-4.266c0.031-0.5-0.188-0.75-0.656-0.75h-7.359
		C80.715,94.435,80.762,94.498,81.325,94.622z M86.153,76.013c-0.5,0-0.75,0.25-0.75,0.75v5.203c0,0.5,0.25,0.75,0.75,0.75
		s0.75-0.234,0.75-0.703v-5.25C86.903,76.263,86.653,76.013,86.153,76.013z M89.856,84.169c-0.5,0-0.75,0.25-0.75,0.75V86.7
		c0,0.5,0.25,0.75,0.75,0.75h1.078c0.5,0,0.984-0.297,1.453-0.891c0.219-0.312,0.453-0.625,0.703-0.938
		c0.563-0.593,0.813-0.938,0.75-1.031c-0.094-0.406-0.438-0.546-1.031-0.422H89.856z M95.34,97.2
		c-0.188,0.031-0.344,0.094-0.469,0.188c-0.813,1-1.969,1.875-3.469,2.625c-0.531,0.25-0.563,0.375-0.094,0.375h1.547
		c0.5,0,0.953-0.312,1.359-0.938l1.266-1.641C95.981,97.278,95.934,97.076,95.34,97.2z M92.715,76.013
		c-0.594,0-0.891,0.25-0.891,0.75v5.203c0,0.5,0.281,0.75,0.844,0.75c0.594,0,0.891-0.234,0.891-0.703v-5.25
		C93.559,76.263,93.278,76.013,92.715,76.013z"/>
	<path fill="#2E3F2E" d="M150.175,73.763c0.688-0.625,1.484-0.484,2.391,0.422c1.156,0.907,2.531,2.141,4.125,3.703
		c0.625,0.688,0.641,1.297,0.047,1.828c-0.25,0.094-0.719,0.141-1.406,0.141c-0.25,0.031-0.5,0.031-0.75,0
		c-0.156,0.031-0.313,0.094-0.469,0.188c-3.063,2.156-6.531,3.938-10.406,5.344c-0.563,0.157-0.766,0.266-0.609,0.328
		c0.563,0.313,0.781,0.734,0.656,1.266c-0.094,0.344-0.422,0.641-0.984,0.891c-0.5,0.406-0.75,0.907-0.75,1.5l0.047,0.844v12.094
		c0,2.407-0.016,4.813-0.047,7.219c-0.5,3.813-3.063,5.984-7.688,6.516c-0.531,0-0.875-0.031-1.031-0.094
		c-0.281-0.157-0.453-0.375-0.516-0.656c-0.219-1.406-0.531-2.641-0.938-3.703c-0.281-0.907-0.875-1.594-1.781-2.063
		c-1.031-0.469-2.266-0.86-3.703-1.172c-0.656-0.156-0.953-0.484-0.891-0.984c0.063-0.531,0.469-0.781,1.219-0.75
		c1.188,0.031,2.422,0.078,3.703,0.141h3.094c1.094,0.25,1.594-0.25,1.5-1.5V90.356c-0.031-1.938-0.109-3.687-0.234-5.25
		c-0.031-0.625,0.25-0.875,0.844-0.75l3.516,0.563c0.531,0.094,1.016-0.078,1.453-0.516c1.844-1.812,3.688-3.578,5.531-5.297
		l0.234-0.234c0.438-0.563,0.438-0.844,0-0.844h-21.797c-1.5,0.094-3,0.204-4.5,0.328c-0.625,0.094-1.063-0.171-1.313-0.797
		l-0.422-1.078c-0.25-0.625-0.031-0.875,0.656-0.75c2.531,0.313,4.906,0.5,7.125,0.563h20.438c0.5,0,1-0.25,1.5-0.75
		C148.738,74.825,149.457,74.231,150.175,73.763z"/>
	<path fill="#2E3F2E" d="M198.447,73.013c0.063-0.719,0.406-1.015,1.031-0.891c2.375,0.406,4.547,0.922,6.516,1.547
		c0.469,0.094,0.859,0.281,1.172,0.563c0.219,0.219,0.25,0.438,0.094,0.656c-0.188,0.313-0.469,0.5-0.844,0.563l-1.078,0.141
		c-1.281,0.813-2.547,1.422-3.797,1.828c-0.5,0.157-0.516,0.234-0.047,0.234h3.422c0.5,0,1.016-0.297,1.547-0.891
		c0.438-0.563,0.906-1.109,1.406-1.641c0.656-0.531,1.266-0.672,1.828-0.422c0.688,0.406,1.906,1.375,3.656,2.906
		c0.594,0.563,0.656,1.063,0.188,1.5c-0.125,0.031-0.5,0.047-1.125,0.047h-3.422c-0.563,0-0.516,0.188,0.141,0.563
		c1.313,1,2.344,1.922,3.094,2.766c0.156,0.375,0.109,0.688-0.141,0.938c-0.063,0.063,0.219,0.344,0.844,0.844
		c1.188,0.938,2.156,1.813,2.906,2.625c0.406,1.031,0,1.438-1.219,1.219h-12.516c-0.531,0-0.484,0.219,0.141,0.656
		c3.969,2.5,8.516,3.766,13.641,3.797c0.594,0,0.859,0.188,0.797,0.563c-0.094,0.406-0.25,0.641-0.469,0.703
		c-0.375,0.157-0.75,0.516-1.125,1.078c-0.406,0.813-0.656,1.75-0.75,2.813c-0.281,1.25-1.031,1.625-2.25,1.125
		c-1.219-0.312-2.766-1.031-4.641-2.156c-0.063,0.063-0.125,0.172-0.188,0.328v2.438l0.141,3.094
		c0.031,0.563,0.125,0.688,0.281,0.375c0.188-0.375,0.578-0.406,1.172-0.094c1.906,0.969,3.422,1.813,4.547,2.531
		c1.031,0.469,1.344,0.969,0.938,1.5c-0.063,0.094-0.406,0.125-1.031,0.094c-0.469-0.156-0.906-0.109-1.313,0.141
		c-1.719,0.75-3.344,1.203-4.875,1.359c-0.563,0.094-0.531,0.203,0.094,0.328c2.844,0.5,5.641,0.625,8.391,0.375
		c0.688-0.094,0.969,0.063,0.844,0.469c-0.031,0.469-0.109,0.703-0.234,0.703c-0.281,0.031-0.5,0.156-0.656,0.375
		c-0.531,0.813-0.906,2.046-1.125,3.703c-0.094,0.531-0.359,0.984-0.797,1.359c-0.406,0.188-0.953,0.25-1.641,0.188
		c-3.563-0.375-7.266-1.813-11.109-4.313c-1.156-0.719-2.25-1.547-3.281-2.484c-0.594-0.594-0.844-0.75-0.75-0.469
		c0.063,0.218-0.219,0.531-0.844,0.938c-2.313,1.375-4.719,2.406-7.219,3.094c-2.469,0.719-5.078,1.296-7.828,1.734
		c-0.469,0.094-0.734,0.281-0.797,0.563c0,0.438-0.172,0.781-0.516,1.031c-0.5,0.125-0.828,0-0.984-0.375
		c-0.656-1.188-1.359-3.344-2.109-6.469c-0.156-0.625,0.078-0.891,0.703-0.797c1.094,0.188,2.297,0.297,3.609,0.328
		c0.531,0.031,0.797-0.204,0.797-0.703V97.294c0-0.5-0.313-0.578-0.938-0.234c-1.906,1.063-4.078,1.922-6.516,2.578
		c-0.625,0.157-1.031,0.094-1.219-0.188s0.063-0.64,0.75-1.078c3.969-2.688,7.25-5.859,9.844-9.516c0.313-0.5,0.219-0.75-0.281-0.75
		h-3.328c-1.344,0.031-2.672,0.125-3.984,0.281c-0.625,0.094-1.063-0.171-1.313-0.797l-0.234-0.469c-0.375-0.687-0.25-1,0.375-0.938
		c1.844,0.219,3.906,0.359,6.188,0.422h9.563c0.531,0,0.797-0.25,0.797-0.75v-1.5c0-0.531-0.25-0.797-0.75-0.797h-5.672
		c-1.656,0.063-3.297,0.141-4.922,0.234c-0.625,0.094-1.109-0.171-1.453-0.797c-0.094-0.188-0.172-0.391-0.234-0.609
		c-0.281-0.563-0.063-0.797,0.656-0.703c1.813,0.219,3.656,0.344,5.531,0.375h6.047c0.531,0,0.797-0.25,0.797-0.75v-1.406
		c0-0.5-0.25-0.75-0.75-0.75h-8.766c-1.313,0.031-2.641,0.125-3.984,0.281c-0.75,0.094-1.281-0.171-1.594-0.797l-0.234-0.516
		c-0.313-0.625-0.156-0.906,0.469-0.844c2.188,0.219,4.406,0.344,6.656,0.375h2.438c0.5,0,0.578-0.297,0.234-0.891
		c-0.344-1.281-1.078-2.313-2.203-3.094c-0.719-0.375-1.031-0.687-0.938-0.938c0.094-0.344,0.438-0.531,1.031-0.563
		c2.375-0.031,4.453,0.234,6.234,0.797c1.844,0.719,2.516,2.016,2.016,3.891c-0.344,0.532-0.297,0.797,0.141,0.797h4.219
		c0.5,0,0.875-0.297,1.125-0.891C197.869,75.607,198.197,74.356,198.447,73.013z M191.181,89.7c-0.219-0.063-0.578,0.188-1.078,0.75
		c-0.875,0.969-1.797,1.844-2.766,2.625c-0.531,0.438-0.531,0.75,0,0.938c0.5,0.281,1,0.375,1.5,0.281h4.359
		c0.5,0,0.578-0.312,0.234-0.938c-0.219-1.062-0.578-1.984-1.078-2.766C191.978,90.06,191.587,89.763,191.181,89.7z
		 M188.603,104.231c-0.5,0-0.75,0.25-0.75,0.75v3c0,0.5,0.25,0.75,0.75,0.75c2.531-0.031,4.906-0.219,7.125-0.563
		c0.5-0.063,0.531-0.344,0.094-0.844c-0.625-0.719-1.141-1.453-1.547-2.203c-0.344-0.593-0.766-0.891-1.266-0.891H188.603z
		 M188.65,95.888c-0.5,0-0.75,0.234-0.75,0.703v0.891c0,0.5,0.25,0.75,0.75,0.75h11.766c0.531,0,0.797-0.25,0.797-0.75v-0.844
		c0-0.5-0.25-0.75-0.75-0.75H188.65z M188.65,99.825c-0.5,0-0.75,0.25-0.75,0.75v1.313c0,0.5,0.25,0.75,0.75,0.75h11.766
		c0.531,0,0.797-0.25,0.797-0.75v-1.313c0-0.5-0.25-0.75-0.75-0.75H188.65z M192.681,88.106c-0.438,0-0.719,0.078-0.844,0.234
		c-0.156,0.188,0.031,0.281,0.563,0.281c1.5,0,2.844,0.157,4.031,0.469c1.688,0.438,2.578,1.375,2.672,2.813
		c0.031,0.563-0.109,1.109-0.422,1.641c-0.469,0.5-0.453,0.75,0.047,0.75h1.547c0.5,0.125,1.047-0.031,1.641-0.469
		c0.625-0.312,0.656-0.781,0.094-1.406c-1.125-1.281-1.969-2.438-2.531-3.469c-0.281-0.563-0.656-0.844-1.125-0.844H192.681z
		 M196.853,104.231c-0.5,0-0.5,0.172,0,0.516c1.938,1.25,3.844,2.188,5.719,2.813c0.5,0.157,1.063,0.016,1.688-0.422
		c0.469-0.406,0.938-0.844,1.406-1.313c0.5-0.563,0.438-0.781-0.188-0.656c-0.969,0.219-2.188,0.234-3.656,0.047
		c-0.406-0.218-0.625-0.453-0.656-0.703c-0.063-0.188-0.344-0.281-0.844-0.281H196.853z M198.541,79.153c-0.5,0-0.75,0.25-0.75,0.75
		v1.359c0,0.532,0.25,0.797,0.75,0.797h5.156c0.5,0,0.984-0.265,1.453-0.797c0.438-0.469,0.891-0.938,1.359-1.406
		s0.469-0.703,0-0.703H198.541z M198.541,83.56c-0.5,0-0.75,0.25-0.75,0.75v1.5c0,0.532,0.25,0.797,0.75,0.797h8.531
		c0.5,0,1.016-0.312,1.547-0.938c0.344-0.438,0.75-0.875,1.219-1.313c0.5-0.531,0.5-0.797,0-0.797H198.541z"/>
	<path fill="#2E3F2E" d="M243.157,73.106c0.281-0.719,0.719-1,1.313-0.844c2.688,0.844,4.797,1.594,6.328,2.25
		c0.625,0.406,0.938,0.688,0.938,0.844c-0.156,0.532-0.719,0.813-1.688,0.844c-0.406-0.063-0.766,0.094-1.078,0.469
		c-0.469,0.5-0.453,0.75,0.047,0.75h4.734c0.5,0,0.906-0.094,1.219-0.281c0.938-0.687,1.859-1.328,2.766-1.922
		c0.375-0.188,0.688-0.265,0.938-0.234c0.5,0.157,1.125,0.5,1.875,1.031c1.063,0.75,1.984,1.484,2.766,2.203
		c0.781,0.594,0.734,1.188-0.141,1.781c-0.469,0.25-0.938,0.453-1.406,0.609c-0.406,0.188-0.688,0.375-0.844,0.563
		c-1.281,2.188-2.828,4.172-4.641,5.953c-0.531,0.5-0.563,0.828-0.094,0.984c2.156,0.656,3.953,1.297,5.391,1.922
		c0.313,0.219,0.422,0.485,0.328,0.797c-0.125,0.406-0.438,0.625-0.938,0.656c-0.906,0.094-1.516,0.313-1.828,0.656
		c-0.313,0.313-0.203,0.469,0.328,0.469h3.797c0.5,0,0.906-0.094,1.219-0.281c0.938-0.593,1.859-1.156,2.766-1.688
		c0.5-0.344,0.969-0.406,1.406-0.188c1.969,1.188,3.531,2.36,4.688,3.516c0.375,0.469,0.266,0.907-0.328,1.313
		c-0.313,0.25-0.625,0.422-0.938,0.516c-0.594,0.25-0.984,0.594-1.172,1.031c-2.063,4.344-5.078,8.063-9.047,11.156
		c-3.219,2.438-6.938,4.343-11.156,5.719c-4.563,1.5-9.422,2.281-14.578,2.344c-0.625,0-0.984-0.157-1.078-0.469
		c-0.063-0.375,0.188-0.625,0.75-0.75c5.25-1.094,10.188-2.969,14.813-5.625c0.969-0.563,1.922-1.188,2.859-1.875
		c0.469-0.312,0.344-0.453-0.375-0.422c-1.5,0.063-2.406-0.672-2.719-2.203c-0.031-0.531,0.094-1.219,0.375-2.063
		c0.188-0.781,0.203-1.765,0.047-2.953c-0.063-0.125-0.375,0-0.938,0.375c-3.281,2.032-6.844,3.609-10.688,4.734
		c-0.719,0.188-1.172,0.157-1.359-0.094c-0.25-0.312-0.094-0.656,0.469-1.031c4.469-2.781,8.75-6.672,12.844-11.672
		c0.438-0.563,0.406-0.656-0.094-0.281c-4.156,3.188-9.031,5.297-14.625,6.328c-1.219,0.25-2.531,0.453-3.938,0.609
		c-0.625,0.063-1-0.094-1.125-0.469c-0.188-0.344,0.078-0.609,0.797-0.797c3.906-1.156,7.766-3.203,11.578-6.141
		c0.5-0.406,0.438-0.609-0.188-0.609c-1.25,0.063-2.047-0.469-2.391-1.594c-0.219-0.781-0.094-1.812,0.375-3.094
		c0.188-0.625,0.25-1.266,0.188-1.922c-0.094-0.563-0.391-0.687-0.891-0.375c-2.281,1.531-4.828,2.75-7.641,3.656
		c-0.594,0.219-1.016,0.157-1.266-0.188c-0.188-0.312,0.031-0.672,0.656-1.078c3-2.281,5.516-4.891,7.547-7.828
		C241.266,76.685,242.282,74.981,243.157,73.106z M247.422,79.06c-0.469,0-0.969,0.234-1.5,0.703
		c-0.656,0.625-1.344,1.203-2.063,1.734c-0.563,0.438-0.578,0.719-0.047,0.844c0.531,0.188,1.078,0.438,1.641,0.75
		c1.531,1,2.266,2.375,2.203,4.125c-0.063,0.5,0.219,0.453,0.844-0.141c2.375-2.375,4.203-4.781,5.484-7.219
		c0.281-0.531,0.188-0.797-0.281-0.797H247.422z M257.829,94.294c-0.5,0-0.984,0.234-1.453,0.703c-1.063,1-2.109,1.891-3.141,2.672
		c-0.625,0.469-0.688,0.766-0.188,0.891c2.875,0.938,4.234,2.672,4.078,5.203c-0.094,0.532,0.109,0.563,0.609,0.094
		c2.781-2.656,4.813-5.578,6.094-8.766c0.156-0.531-0.016-0.797-0.516-0.797H257.829z"/>
	<path fill="#2E3F2E" d="M305.913,73.013c-0.063-0.625,0.219-0.891,0.844-0.797c2.563,0.281,4.844,0.688,6.844,1.219
		c0.625,0.281,0.938,0.516,0.938,0.703c0.031,0.375-0.281,0.688-0.938,0.938c-0.625,0.406-0.938,0.922-0.938,1.547
		c-0.031,1-0.125,2.063-0.281,3.188c-0.031,0.5,0.203,0.75,0.703,0.75h8.016c0.469,0,1.016-0.265,1.641-0.797
		c0.594-0.469,1.188-0.891,1.781-1.266c0.625-0.281,1.281-0.265,1.969,0.047c1.688,0.907,2.906,1.797,3.656,2.672
		c0.406,0.625,0.141,1.203-0.797,1.734c-0.531,0.438-0.766,0.984-0.703,1.641v7.453l0.094,18.75
		c-0.156,1.437-0.938,2.594-2.344,3.469c-1.625,0.938-3.25,1.516-4.875,1.734c-0.531-0.125-0.875-0.579-1.031-1.359
		c-0.156-1.156-0.484-2.094-0.984-2.813c-0.594-0.844-1.766-1.438-3.516-1.781c-0.594-0.125-0.891-0.438-0.891-0.938
		c0.031-0.406,0.422-0.594,1.172-0.563c0.719,0.031,1.453,0.094,2.203,0.188h2.766c1.063,0,1.484-0.469,1.266-1.406V82.903
		c0-0.531-0.234-0.797-0.703-0.797h-8.859c-0.5,0-0.844,0.313-1.031,0.938c-0.125,0.5-0.297,1-0.516,1.5
		c-0.219,0.469-0.047,0.734,0.516,0.797c2.563,0.281,4.969,1.031,7.219,2.25c3.063,1.938,4.047,4.266,2.953,6.984
		c-0.719,1.125-1.734,1.61-3.047,1.453c-1.188-0.312-2.141-1.156-2.859-2.531c-1.188-2.5-2.938-4.625-5.25-6.375
		c-0.469-0.25-0.859-0.125-1.172,0.375c-0.469,0.781-1.094,1.578-1.875,2.391c-0.594,0.625-0.594,1,0,1.125
		c1.25,0.188,2.5,0.391,3.75,0.609c0.625,0.094,1.234,0.266,1.828,0.516c0.844,0.25,1.172,0.609,0.984,1.078
		c-0.156,0.375-0.578,0.625-1.266,0.75c-0.469,0.188-0.781,0.547-0.938,1.078c-0.063,0.281-0.156,0.579-0.281,0.891
		c-0.219,0.5-0.016,0.813,0.609,0.938c2.875,0.563,5.328,1.844,7.359,3.844c1.063,1.25,1.531,2.547,1.406,3.891
		c-0.156,1.594-0.953,2.609-2.391,3.047c-0.594,0.188-1.25,0.204-1.969,0.047c-0.656-0.125-1.25-0.563-1.781-1.313
		c-0.313-0.5-0.531-1.125-0.656-1.875c-0.25-2.093-1.141-3.968-2.672-5.625c-0.531-0.438-0.953-0.375-1.266,0.188
		c-0.594,1.125-1.453,2.344-2.578,3.656c-2.625,2.688-5.594,4.797-8.906,6.328c-0.625,0.281-1.063,0.265-1.313-0.047
		c-0.25-0.313-0.031-0.797,0.656-1.453c2.125-2,3.938-4.656,5.438-7.969c1-2.031,1.719-4.437,2.156-7.219
		c0.031-0.531-0.234-0.593-0.797-0.188c-1.813,1.438-4.125,2.735-6.938,3.891c-0.719,0.281-1.188,0.328-1.406,0.141
		c-0.25-0.25-0.375-0.125-0.375,0.375v11.953l0.094,5.578c0.125,1.031-0.406,1.625-1.594,1.781c-1,0.25-2.234,0.328-3.703,0.234
		c-1.063-0.094-1.469-0.703-1.219-1.828c0-2.156,0.047-4.329,0.141-6.516V84.591c-0.031-1.812-0.156-3.593-0.375-5.344
		c-0.094-0.593,0.219-0.781,0.938-0.563c1.406,0.406,3.328,1.031,5.766,1.875h8.531c0.5,0,0.781-0.312,0.844-0.938
		C306.084,76.841,306.069,74.638,305.913,73.013z M297.288,82.153c-0.5,0-0.75,0.25-0.75,0.75v11.953c0,0.5,0.313,0.5,0.938,0
		c2.094-1.75,3.828-3.719,5.203-5.906c1.5-2.344,2.438-4.359,2.813-6.047c0.063-0.5-0.141-0.75-0.609-0.75H297.288z"/>
	<path fill="#2E3F2E" d="M365.903,75.919c2.219-0.125,4.063,0.063,5.531,0.563c3,1,5.016,2.891,6.047,5.672
		c0.938,3.094-0.484,6.266-4.266,9.516c-1.594,1.313-2.922,2.563-3.984,3.75c-0.969,1.063-1.422,2.516-1.359,4.359
		c0,0.656-0.313,0.969-0.938,0.938h-0.75c-0.656,0-0.984-0.312-0.984-0.938c-0.031-1-0.031-2,0-3
		c0.125-2.562,1.219-5.046,3.281-7.453c1.5-2.156,1.969-4.734,1.406-7.734c-0.125-0.656-0.359-1.281-0.703-1.875
		c-0.969-1.313-2.266-1.797-3.891-1.453c-0.594,0.031-1.063,0.204-1.406,0.516c-0.438,0.5-0.625,0.954-0.563,1.359
		c-0.031,0.344,0.141,0.641,0.516,0.891c1.344,1.031,1.844,2.297,1.5,3.797c-0.406,1.657-1.344,2.531-2.813,2.625
		c-1.406,0.188-2.656-0.109-3.75-0.891c-0.344-0.25-0.594-0.546-0.75-0.891c-0.594-1.313-0.75-2.75-0.469-4.313
		c0.313-1.437,1.25-2.688,2.813-3.75C362.09,76.544,363.934,75.982,365.903,75.919z M364.825,103.95
		c1.594-0.344,2.922-0.203,3.984,0.422c0.688,0.438,1.125,1,1.313,1.688c0.375,1.313,0.313,2.578-0.188,3.797
		c-0.438,0.75-1,1.234-1.688,1.453c-1.688,0.531-3.203,0.391-4.547-0.422c-0.969-1.094-1.375-2.36-1.219-3.797
		c0.063-0.593,0.25-1.203,0.563-1.828C363.543,104.576,364.137,104.138,364.825,103.95z"/>
</g>
</svg>
