<?xml version="1.0" encoding="utf-8"?>
<!-- Generator: Adobe Illustrator 16.0.0, SVG Export Plug-In . SVG Version: 6.00 Build 0)  -->
<!DOCTYPE svg PUBLIC "-//W3C//DTD SVG 1.1//EN" "http://www.w3.org/Graphics/SVG/1.1/DTD/svg11.dtd">
<svg version="1.1" id="圖層_1" xmlns="http://www.w3.org/2000/svg" xmlns:xlink="http://www.w3.org/1999/xlink" x="0px" y="0px"
	 width="88.949px" height="326.204px" viewBox="0 0 88.949 326.204" enable-background="new 0 0 88.949 326.204"
	 xml:space="preserve">
<g>
	<path fill="#2E3F2E" d="M68.488,0.611c0.164-0.469,0.457-0.668,0.879-0.598c2.813,0.469,4.875,0.902,6.188,1.301
		c0.633,0.188,0.82,0.504,0.563,0.949c-0.141,0.141-0.387,0.293-0.738,0.457c-0.352,0.118-0.293,0.41,0.176,0.879
		c2.391,2.438,5.285,4.289,8.684,5.555c1.289,0.54,2.566,0.902,3.832,1.09c0.539,0.07,0.785,0.258,0.738,0.563
		c-0.07,0.281-0.188,0.422-0.352,0.422c-0.234,0.023-0.492,0.199-0.773,0.527c-0.492,0.797-0.821,1.735-0.984,2.813
		c-0.07,0.445-0.176,0.821-0.316,1.125c-0.234,0.281-0.586,0.399-1.055,0.352c-0.821-0.234-1.688-0.715-2.602-1.441
		c-2.297-1.781-4.066-3.563-5.309-5.344c-1.219-1.594-2.262-3.222-3.129-4.887c-0.234-0.445-0.469-0.469-0.703-0.07
		c-0.961,1.617-2.238,3.211-3.832,4.781c-0.422,0.375-0.399,0.586,0.07,0.633c2.203,0.305,3.996,1.043,5.379,2.215
		c1.313,1.266,1.688,2.649,1.125,4.148c-0.516,1.078-1.336,1.617-2.461,1.617c-1.148,0.234-1.981-0.199-2.496-1.301
		c-0.141-0.445-0.234-0.902-0.281-1.371c-0.07-0.961-0.329-1.886-0.773-2.777c-0.188-0.422-0.54-0.891-1.055-1.406
		c-0.445-0.352-0.61-0.598-0.492-0.738c0.07-0.141-0.105-0.035-0.527,0.316c-3.82,3.141-7.536,5.286-11.145,6.434
		c-0.469,0.141-0.773,0.083-0.914-0.176c-0.164-0.258-0.035-0.527,0.387-0.809c3.328-2.367,6.281-5.52,8.859-9.457
		C66.788,4.491,67.808,2.557,68.488,0.611z M80.863,16.502c0.328-0.234,0.855-0.058,1.582,0.527
		c0.984,0.773,1.828,1.559,2.531,2.355c0.445,0.492,0.339,0.914-0.316,1.266c-0.211,0.118-0.434,0.223-0.668,0.316
		c-0.375,0.118-0.68,0.399-0.914,0.844l-4.641,9.563c-0.305,0.773-0.762,1.242-1.371,1.406c-1.055,0.117-2.168,0.082-3.34-0.105
		c-0.68-0.118-1.113-0.352-1.301-0.703c-0.141-0.281-0.129-0.516,0.035-0.703c1.125-2.039,3-5.683,5.625-10.934
		c0.211-0.398,0.128-0.598-0.246-0.598H64.656c-1.125,0.023-2.168,0.094-3.129,0.211c-0.469,0.047-0.809-0.152-1.02-0.598
		l-0.211-0.527c-0.211-0.469-0.083-0.68,0.387-0.633c1.547,0.141,3.07,0.246,4.57,0.316h12.586c0.375,0,0.796-0.211,1.266-0.633
		C79.714,17.311,80.3,16.854,80.863,16.502z"/>
	<path fill="#2E3F2E" d="M80.828,41.479c0.258-0.117,0.504-0.105,0.738,0.035c0.68,0.305,1.605,0.997,2.777,2.074
		c0.703,0.586,1.09,1.102,1.16,1.547c0,0.118-0.059,0.246-0.176,0.387c-0.234,0.188-0.575,0.246-1.02,0.176h-9.422
		c-0.399,0-0.598,0.188-0.598,0.563c0,3.282-0.141,6.2-0.422,8.754c-0.047,0.375,0.117,0.563,0.492,0.563h6.082
		c0.375,0,0.715-0.234,1.02-0.703l1.02-1.406c0.563-0.75,1.055-1.125,1.477-1.125c1.031,0.399,2.343,1.395,3.938,2.988
		c0.304,0.305,0.457,0.527,0.457,0.668c-0.023,0.656-0.434,0.902-1.23,0.738H75.73c-0.375,0-0.492,0.246-0.352,0.738
		c0.914,2.719,2.613,5.098,5.098,7.137c2.438,1.898,4.992,3.036,7.664,3.41c0.469,0.07,0.68,0.27,0.633,0.598
		c-0.047,0.352-0.129,0.539-0.246,0.563c-0.54,0.093-0.973,0.504-1.301,1.23c-0.281,0.703-0.504,1.64-0.668,2.813
		c-0.118,0.867-0.54,1.16-1.266,0.879c-2.109-0.703-4.102-2.145-5.977-4.324c-1.219-1.523-2.333-3.387-3.34-5.59
		c-0.867-1.945-1.512-4.207-1.934-6.785c-0.07-0.398-0.153-0.598-0.246-0.598c-0.141,0-0.246,0.234-0.316,0.703
		c-0.516,3.071-1.617,5.848-3.305,8.332c-1.383,1.922-3.176,3.598-5.379,5.027c-2.625,1.688-5.238,2.777-7.84,3.27
		c-0.469,0.07-0.773,0-0.914-0.211c-0.141-0.258,0.012-0.527,0.457-0.809c4.758-2.695,8.262-6.469,10.512-11.32
		c0.633-1.453,1.066-2.906,1.301-4.359c0.047-0.422-0.105-0.633-0.457-0.633h-7.172c-0.727,0.047-1.454,0.105-2.18,0.176
		c-0.54,0.094-0.902-0.07-1.09-0.492l-0.246-0.633c-0.211-0.539-0.094-0.773,0.352-0.703c1.172,0.211,2.426,0.352,3.762,0.422h6.715
		c0.375,0,0.598-0.234,0.668-0.703c0.164-1.945,0.269-3.902,0.316-5.871v-2.672c0-0.398-0.188-0.598-0.563-0.598h-5.238
		c-0.961,0.023-1.922,0.094-2.883,0.211c-0.329,0.047-0.516-0.058-0.563-0.316l-0.387-0.984c-0.188-0.445-0.023-0.633,0.492-0.563
		c1.453,0.188,2.848,0.316,4.184,0.387h13.711c0.375,0,0.726-0.234,1.055-0.703c0.328-0.469,0.68-0.937,1.055-1.406
		C80.265,41.843,80.593,41.55,80.828,41.479z"/>
	<path fill="#2E3F2E" d="M83.957,96.16c0.492-0.445,0.949-0.585,1.371-0.422c1.125,0.844,2.203,1.863,3.234,3.059
		c0.304,0.329,0.339,0.645,0.105,0.949c-0.047,0.07-0.305,0.105-0.773,0.105H76.152c-0.375,0-0.563,0.188-0.563,0.563V104
		c0,0.399,0.188,0.598,0.563,0.598h2.707c0.375,0,0.726-0.234,1.055-0.703c0.539-0.726,1.09-1.429,1.652-2.109
		c0.234-0.258,0.469-0.363,0.703-0.316c0.492,0.258,0.961,0.598,1.406,1.02c0.68,0.61,1.383,1.289,2.109,2.039
		c0.422,0.352,0.515,0.691,0.281,1.02c-0.094,0.094-0.375,0.141-0.844,0.141h-9.07c-0.375,0-0.563,0.188-0.563,0.563v3.199
		c0,0.375,0.234,0.598,0.703,0.668l2.074,0.176h3.516c2.367-0.047,4.477-0.223,6.328-0.527c0.469-0.093,0.715-0.012,0.738,0.246
		c0,0.304-0.223,0.609-0.668,0.914c-0.422,0.469-0.656,1.172-0.703,2.109v1.336c-0.141,0.539-0.445,0.82-0.914,0.844h-2.145
		c-4.945-0.047-8.93-0.598-11.953-1.652c-2.836-0.961-5.075-2.895-6.715-5.801c-0.211-0.398-0.399-0.363-0.563,0.105
		c-0.234,0.422-0.469,0.879-0.703,1.371c-1.641,3.07-4.125,5.156-7.453,6.258c-0.492,0.141-0.797,0.117-0.914-0.07
		c-0.141-0.211,0.058-0.54,0.598-0.984c0.914-0.797,1.71-1.793,2.391-2.988c1.406-2.765,2.051-5.929,1.934-9.492
		c-0.023-0.492,0.188-0.691,0.633-0.598c2.438,0.399,4.277,0.856,5.52,1.371c0.281,0.094,0.398,0.234,0.352,0.422
		c-0.047,0.352-0.281,0.563-0.703,0.633c-0.352,0.211-0.563,0.516-0.633,0.914l-0.141,0.633c-0.07,0.352,0.082,0.727,0.457,1.125
		c1.102,1.008,2.25,1.77,3.445,2.285c0.352,0.164,0.527,0.059,0.527-0.316v-8.051c0-0.375-0.176-0.563-0.527-0.563h-9
		c-1.078,0.047-2.168,0.118-3.27,0.211c-0.563,0.023-0.973-0.199-1.23-0.668l-0.176-0.352c-0.234-0.492-0.129-0.703,0.316-0.633
		c1.195,0.164,3.34,0.258,6.434,0.281H79.07l2.355,0.035c0.375,0,0.726-0.234,1.055-0.703C82.949,97.379,83.441,96.77,83.957,96.16z
		 M80.16,83.047c0.281-0.304,0.621-0.363,1.02-0.176c0.984,0.54,1.91,1.16,2.777,1.863c0.609,0.445,0.914,0.821,0.914,1.125
		c0.023,0.211-0.047,0.399-0.211,0.563l-1.055,0.844c-0.141,0.164-0.211,0.434-0.211,0.809v2.707l0.141,4.289
		c0.07,0.586,0.035,0.997-0.105,1.23c-0.188,0.234-0.527,0.434-1.02,0.598c-0.984,0.234-2.109,0.234-3.375,0
		c-0.445-0.117-0.621-0.398-0.527-0.844c0-0.375-0.188-0.563-0.563-0.563H66.589c-0.399,0-0.598,0.234-0.598,0.703
		c0.07,0.516-0.246,0.879-0.949,1.09c-0.891,0.281-1.911,0.352-3.059,0.211c-0.773-0.117-1.09-0.515-0.949-1.195l0.176-3.797v-4.852
		c-0.047-1.031-0.141-2.156-0.281-3.375c-0.047-0.469,0.164-0.656,0.633-0.563c1.851,0.399,3.41,0.773,4.676,1.125h11.461
		c0.352,0,0.715-0.188,1.09-0.563C79.374,83.715,79.831,83.305,80.16,83.047z M66.66,86.105c-0.375,0-0.563,0.176-0.563,0.527v2.285
		c0,0.399,0.188,0.598,0.563,0.598h11.32c0.375,0,0.563-0.188,0.563-0.563v-2.285c0-0.375-0.188-0.563-0.563-0.563H66.66z
		 M66.695,90.641c-0.399,0-0.598,0.188-0.598,0.563v2.531c0,0.375,0.188,0.563,0.563,0.563h11.32c0.375,0,0.563-0.176,0.563-0.527
		v-2.531c0-0.398-0.188-0.598-0.563-0.598H66.695z"/>
	<path fill="#2E3F2E" d="M60.683,124.671c0.047-0.469,0.304-0.633,0.773-0.492l3.586,1.23c0.375,0.141,0.55,0.094,0.527-0.141
		c-0.047-0.234,0.164-0.304,0.633-0.211c1.5,0.445,3.011,0.902,4.535,1.371h11.355c0.375,0,0.75-0.188,1.125-0.563
		c0.422-0.398,0.832-0.761,1.23-1.09c0.258-0.211,0.539-0.281,0.844-0.211c0.844,0.422,1.723,0.997,2.637,1.723
		c0.984,0.703,1.042,1.359,0.176,1.969c-0.375,0.399-0.563,0.786-0.563,1.16v20.145l0.141,6.082
		c0.117,0.258,0.012,0.574-0.316,0.949c-0.773,0.398-1.84,0.586-3.199,0.563c-0.61,0-1.043-0.164-1.301-0.492
		c-0.047-0.07-0.07-0.328-0.07-0.773v-0.914c0-0.398-0.188-0.598-0.563-0.598H71.16c-0.375,0-0.563,0.188-0.563,0.563
		c0.047,0.656-0.012,1.102-0.176,1.336c-0.54,0.539-1.336,0.785-2.391,0.738c-0.329,0.07-0.773,0.082-1.336,0.035
		c-0.375-0.023-0.668-0.141-0.879-0.352c-0.141-0.164-0.188-0.375-0.141-0.633l0.176-7.207v-18.352l-0.105-2.988
		c-0.023-0.375-0.129-0.527-0.316-0.457c-0.164,0.141-0.281,0.27-0.352,0.387c-0.422,1.922-0.973,3.762-1.652,5.52
		c-0.141,0.375,0.023,0.645,0.492,0.809c0.281,0.047,0.563,0.223,0.844,0.527c0.164,0.422-0.047,0.727-0.633,0.914
		c-0.375,0.234-0.563,0.54-0.563,0.914v14.098l0.141,4.887c0.023,0.352,0.023,0.715,0,1.09c0,0.094-0.094,0.223-0.281,0.387
		c-0.938,0.539-2.18,0.691-3.727,0.457c-0.118-0.047-0.246-0.141-0.387-0.281c-0.188-0.188-0.246-0.527-0.176-1.02
		c0.023-1.43,0.058-2.895,0.105-4.395v-10.723c0-0.374-0.176-0.328-0.527,0.141c-0.492,0.609-1.043,1.207-1.652,1.793
		c-0.516,0.445-0.856,0.574-1.02,0.387c-0.211-0.211-0.199-0.539,0.035-0.984C58.772,136.765,60.308,131,60.683,124.671z
		 M71.16,127.625c-0.375,0-0.563,0.176-0.563,0.527v5.203c0,0.352,0.234,0.575,0.703,0.668c1.007,0.094,1.945,0.153,2.813,0.176
		c0.375,0,0.563-0.188,0.563-0.563c0.047-1.5,0-3.011-0.141-4.535c-0.047-0.515,0.152-0.738,0.598-0.668
		c1.805,0.211,3.305,0.575,4.5,1.09c0.258,0.141,0.293,0.352,0.105,0.633c-0.047,0.118-0.199,0.234-0.457,0.352
		c-0.375,0.234-0.563,0.54-0.563,0.914v2.109c0,0.422,0.128,0.387,0.387-0.105c0.281-0.469,0.574-0.937,0.879-1.406
		c0.304-0.515,0.726-0.41,1.266,0.316c0.492,0.586,0.902,1.113,1.23,1.582c0.234,0.422,0.352,0.434,0.352,0.035v-5.766
		c0-0.375-0.188-0.563-0.563-0.563H71.16z M70.738,135.218c-0.094-0.211-0.141-0.105-0.141,0.316v17.051
		c0,0.398,0.188,0.598,0.563,0.598h11.109c0.375,0,0.563-0.188,0.563-0.563v-16.91c0-0.352-0.047-0.504-0.141-0.457
		c-0.094,0.023-0.375,0.035-0.844,0.035h-2.531c-0.399,0-0.598,0.188-0.598,0.563v3.129c0,0.375,0.234,0.352,0.703-0.07
		c0.258-0.211,0.48-0.246,0.668-0.105c1.148,0.61,1.945,1.301,2.391,2.074c0.093,0.375-0.141,0.738-0.703,1.09
		c-0.094,0.117-0.141,0.363-0.141,0.738v4.324l0.105,3.023c-0.023,0.258-0.188,0.469-0.492,0.633
		c-1.055,0.469-2.109,0.563-3.164,0.281c-0.329-0.234-0.434-0.586-0.316-1.055c0-0.445-0.188-0.668-0.563-0.668h-0.984
		c-0.375,0-0.563,0.164-0.563,0.492c0.07,0.328,0,0.621-0.211,0.879c-0.727,0.516-1.652,0.727-2.777,0.633
		c-0.844-0.023-1.195-0.41-1.055-1.16l0.141-3.762v-4.922c0-0.633-0.035-1.277-0.105-1.934c-0.07-0.444,0.164-0.609,0.703-0.492
		c0.563,0.164,1.137,0.352,1.723,0.563c0.398,0.188,0.598,0.094,0.598-0.281v-3.375c0-0.398-0.176-0.598-0.527-0.598
		c-0.867,0-1.723,0.035-2.566,0.105C71.112,135.464,70.831,135.406,70.738,135.218z M76.257,141.265
		c-0.375,0-0.563,0.188-0.563,0.563v5.695c0,0.375,0.188,0.563,0.563,0.563h0.949c0.398,0,0.598-0.188,0.598-0.563v-5.695
		c0-0.375-0.188-0.563-0.563-0.563H76.257z"/>
	<path fill="#2E3F2E" d="M72.531,168.729c0-0.469,0.223-0.703,0.668-0.703h0.457c0.445,0,0.668,0.234,0.668,0.703v30.551
		c0,0.469-0.223,0.703-0.668,0.703h-0.422c-0.469,0-0.703-0.234-0.703-0.703V168.729z"/>
	<path fill="#2E3F2E" d="M72.531,188.529c0-0.469,0.223-0.703,0.668-0.703h0.457c0.445,0,0.668,0.234,0.668,0.703v30.551
		c0,0.469-0.223,0.703-0.668,0.703h-0.422c-0.469,0-0.703-0.234-0.703-0.703V188.529z"/>
	<path fill="#2E3F2E" d="M72.531,208.329c0-0.469,0.223-0.703,0.668-0.703h0.457c0.445,0,0.668,0.234,0.668,0.703v30.551
		c0,0.469-0.223,0.703-0.668,0.703h-0.422c-0.469,0-0.703-0.234-0.703-0.703V208.329z"/>
	<path fill="#2E3F2E" d="M19.203,14.118c0.047-0.539,0.304-0.761,0.773-0.668c1.781,0.305,3.41,0.691,4.887,1.16
		c0.352,0.07,0.645,0.211,0.879,0.422c0.164,0.164,0.188,0.329,0.07,0.492c-0.141,0.234-0.352,0.375-0.633,0.422l-0.809,0.105
		c-0.961,0.61-1.911,1.067-2.848,1.371c-0.375,0.118-0.387,0.176-0.035,0.176h2.566c0.375,0,0.761-0.223,1.16-0.668
		c0.328-0.422,0.68-0.832,1.055-1.23c0.492-0.398,0.949-0.504,1.371-0.316c0.515,0.305,1.429,1.032,2.742,2.18
		c0.445,0.422,0.492,0.797,0.141,1.125c-0.094,0.023-0.375,0.035-0.844,0.035h-2.566c-0.422,0-0.387,0.141,0.105,0.422
		c0.984,0.75,1.758,1.441,2.32,2.074c0.117,0.281,0.082,0.516-0.105,0.703c-0.047,0.047,0.164,0.258,0.633,0.633
		c0.891,0.703,1.617,1.359,2.18,1.969c0.304,0.773,0,1.078-0.914,0.914h-9.387c-0.399,0-0.364,0.164,0.105,0.492
		c2.976,1.875,6.386,2.825,10.23,2.848c0.445,0,0.645,0.141,0.598,0.422c-0.07,0.305-0.188,0.48-0.352,0.527
		c-0.281,0.118-0.563,0.387-0.844,0.809c-0.305,0.61-0.492,1.313-0.563,2.109c-0.211,0.938-0.773,1.219-1.688,0.844
		c-0.914-0.234-2.074-0.773-3.48-1.617c-0.047,0.047-0.094,0.129-0.141,0.246v1.828l0.105,2.32c0.023,0.422,0.093,0.516,0.211,0.281
		c0.141-0.281,0.434-0.304,0.879-0.07c1.429,0.727,2.566,1.359,3.41,1.898c0.773,0.352,1.007,0.727,0.703,1.125
		c-0.047,0.07-0.305,0.094-0.773,0.07c-0.352-0.117-0.68-0.082-0.984,0.105c-1.289,0.563-2.508,0.902-3.656,1.02
		c-0.422,0.07-0.399,0.152,0.07,0.246c2.132,0.375,4.23,0.469,6.293,0.281c0.515-0.07,0.726,0.047,0.633,0.352
		c-0.023,0.352-0.083,0.527-0.176,0.527c-0.211,0.023-0.375,0.117-0.492,0.281c-0.399,0.609-0.68,1.535-0.844,2.777
		c-0.07,0.398-0.27,0.738-0.598,1.02c-0.305,0.141-0.715,0.188-1.23,0.141c-2.672-0.281-5.449-1.359-8.332-3.234
		c-0.867-0.54-1.688-1.16-2.461-1.863c-0.445-0.445-0.633-0.563-0.563-0.352c0.047,0.164-0.164,0.398-0.633,0.703
		c-1.735,1.031-3.539,1.805-5.414,2.32c-1.852,0.539-3.809,0.972-5.871,1.301c-0.352,0.07-0.551,0.211-0.598,0.422
		c0,0.328-0.129,0.585-0.387,0.773c-0.375,0.093-0.621,0-0.738-0.281c-0.492-0.891-1.02-2.508-1.582-4.852
		c-0.118-0.469,0.058-0.668,0.527-0.598c0.82,0.141,1.723,0.223,2.707,0.246c0.398,0.023,0.598-0.153,0.598-0.527v-8.051
		c0-0.375-0.234-0.434-0.703-0.176c-1.43,0.797-3.059,1.441-4.887,1.934c-0.469,0.118-0.773,0.07-0.914-0.141
		s0.047-0.48,0.563-0.809c2.976-2.016,5.437-4.395,7.383-7.137c0.234-0.375,0.164-0.563-0.211-0.563H5.351
		c-1.008,0.023-2.004,0.094-2.988,0.211c-0.469,0.07-0.797-0.128-0.984-0.598L1.203,24.7c-0.281-0.515-0.188-0.75,0.281-0.703
		c1.383,0.164,2.93,0.27,4.641,0.316h7.172c0.398,0,0.598-0.188,0.598-0.563v-1.125c0-0.398-0.188-0.598-0.563-0.598H9.078
		c-1.243,0.047-2.473,0.105-3.691,0.176c-0.469,0.07-0.832-0.128-1.09-0.598c-0.07-0.141-0.129-0.293-0.176-0.457
		c-0.211-0.422-0.047-0.598,0.492-0.527c1.359,0.164,2.742,0.258,4.148,0.281h4.535c0.398,0,0.598-0.188,0.598-0.563v-1.055
		c0-0.375-0.188-0.563-0.563-0.563H6.757c-0.984,0.023-1.981,0.094-2.988,0.211c-0.563,0.07-0.961-0.128-1.195-0.598L2.398,17.95
		c-0.234-0.469-0.118-0.68,0.352-0.633c1.64,0.164,3.305,0.258,4.992,0.281H9.57c0.375,0,0.434-0.223,0.176-0.668
		c-0.258-0.961-0.809-1.734-1.652-2.32c-0.54-0.281-0.773-0.515-0.703-0.703c0.07-0.258,0.328-0.398,0.773-0.422
		c1.781-0.023,3.34,0.176,4.676,0.598c1.383,0.54,1.886,1.512,1.512,2.918c-0.258,0.399-0.223,0.598,0.105,0.598h3.164
		c0.375,0,0.656-0.223,0.844-0.668C18.769,16.064,19.015,15.126,19.203,14.118z M13.753,26.634
		c-0.164-0.047-0.434,0.141-0.809,0.563c-0.656,0.727-1.348,1.383-2.074,1.969c-0.399,0.329-0.399,0.563,0,0.703
		c0.375,0.211,0.75,0.281,1.125,0.211h3.27c0.375,0,0.434-0.234,0.176-0.703c-0.164-0.796-0.434-1.488-0.809-2.074
		C14.351,26.903,14.058,26.681,13.753,26.634z M11.82,37.532c-0.375,0-0.563,0.188-0.563,0.563v2.25
		c0,0.375,0.188,0.563,0.563,0.563c1.898-0.023,3.679-0.164,5.344-0.422c0.375-0.047,0.398-0.258,0.07-0.633
		c-0.469-0.539-0.856-1.09-1.16-1.652c-0.258-0.445-0.575-0.668-0.949-0.668H11.82z M11.855,31.274
		c-0.375,0-0.563,0.176-0.563,0.527v0.668c0,0.375,0.188,0.563,0.563,0.563h8.824c0.398,0,0.598-0.188,0.598-0.563v-0.633
		c0-0.375-0.188-0.563-0.563-0.563H11.855z M11.855,34.228c-0.375,0-0.563,0.188-0.563,0.563v0.984c0,0.375,0.188,0.563,0.563,0.563
		h8.824c0.398,0,0.598-0.188,0.598-0.563V34.79c0-0.375-0.188-0.563-0.563-0.563H11.855z M14.878,25.438
		c-0.329,0-0.54,0.059-0.633,0.176c-0.118,0.141,0.023,0.211,0.422,0.211c1.125,0,2.132,0.118,3.023,0.352
		c1.266,0.329,1.934,1.032,2.004,2.109c0.023,0.422-0.083,0.832-0.316,1.23c-0.352,0.375-0.34,0.563,0.035,0.563h1.16
		c0.375,0.094,0.785-0.023,1.23-0.352c0.469-0.234,0.492-0.585,0.07-1.055c-0.844-0.961-1.477-1.828-1.898-2.602
		c-0.211-0.422-0.492-0.633-0.844-0.633H14.878z M18.007,37.532c-0.375,0-0.375,0.129,0,0.387c1.453,0.938,2.883,1.641,4.289,2.109
		c0.375,0.118,0.796,0.012,1.266-0.316c0.352-0.304,0.703-0.633,1.055-0.984c0.375-0.422,0.328-0.585-0.141-0.492
		c-0.727,0.164-1.641,0.176-2.742,0.035c-0.305-0.164-0.469-0.339-0.492-0.527c-0.047-0.141-0.258-0.211-0.633-0.211H18.007z
		 M19.273,18.724c-0.375,0-0.563,0.188-0.563,0.563v1.02c0,0.399,0.188,0.598,0.563,0.598h3.867c0.375,0,0.738-0.199,1.09-0.598
		c0.328-0.352,0.668-0.703,1.02-1.055s0.352-0.527,0-0.527H19.273z M19.273,22.028c-0.375,0-0.563,0.188-0.563,0.563v1.125
		c0,0.399,0.188,0.598,0.563,0.598h6.398c0.375,0,0.761-0.234,1.16-0.703c0.258-0.328,0.563-0.656,0.914-0.984
		c0.375-0.398,0.375-0.598,0-0.598H19.273z"/>
	<path fill="#2E3F2E" d="M9.535,55.599c0.211-0.539,0.539-0.75,0.984-0.633c2.016,0.633,3.598,1.195,4.746,1.688
		c0.469,0.305,0.703,0.516,0.703,0.633c-0.118,0.399-0.54,0.61-1.266,0.633c-0.305-0.047-0.575,0.07-0.809,0.352
		c-0.352,0.375-0.34,0.563,0.035,0.563h3.551c0.375,0,0.68-0.07,0.914-0.211c0.703-0.515,1.394-0.996,2.074-1.441
		c0.281-0.141,0.515-0.199,0.703-0.176c0.375,0.118,0.844,0.375,1.406,0.773c0.796,0.563,1.488,1.113,2.074,1.652
		c0.585,0.445,0.55,0.891-0.105,1.336c-0.352,0.188-0.703,0.34-1.055,0.457c-0.305,0.141-0.516,0.281-0.633,0.422
		c-0.961,1.641-2.122,3.129-3.48,4.465c-0.399,0.375-0.422,0.621-0.07,0.738c1.617,0.492,2.965,0.973,4.043,1.441
		c0.234,0.164,0.316,0.364,0.246,0.598c-0.094,0.305-0.329,0.469-0.703,0.492c-0.68,0.07-1.137,0.234-1.371,0.492
		c-0.234,0.234-0.153,0.352,0.246,0.352h2.848c0.375,0,0.68-0.07,0.914-0.211c0.703-0.445,1.394-0.867,2.074-1.266
		c0.375-0.258,0.726-0.304,1.055-0.141c1.477,0.891,2.648,1.77,3.516,2.637c0.281,0.352,0.199,0.68-0.246,0.984
		c-0.234,0.188-0.469,0.316-0.703,0.387c-0.445,0.188-0.738,0.445-0.879,0.773c-1.547,3.258-3.809,6.047-6.785,8.367
		c-2.414,1.828-5.203,3.257-8.367,4.289c-3.422,1.125-7.066,1.71-10.934,1.758c-0.469,0-0.738-0.118-0.809-0.352
		c-0.047-0.281,0.141-0.469,0.563-0.563c3.938-0.821,7.641-2.227,11.109-4.219c0.726-0.422,1.441-0.891,2.145-1.406
		c0.352-0.234,0.258-0.339-0.281-0.316c-1.125,0.047-1.805-0.504-2.039-1.652c-0.023-0.398,0.07-0.914,0.281-1.547
		c0.141-0.585,0.152-1.324,0.035-2.215c-0.047-0.093-0.281,0-0.703,0.281c-2.461,1.524-5.133,2.707-8.016,3.551
		c-0.54,0.141-0.879,0.118-1.02-0.07c-0.188-0.234-0.07-0.492,0.352-0.773c3.352-2.086,6.562-5.004,9.633-8.754
		c0.328-0.422,0.304-0.492-0.07-0.211c-3.117,2.391-6.773,3.973-10.969,4.746c-0.914,0.188-1.898,0.34-2.953,0.457
		c-0.469,0.047-0.75-0.07-0.844-0.352c-0.141-0.258,0.058-0.457,0.598-0.598c2.93-0.867,5.824-2.402,8.684-4.605
		c0.375-0.304,0.328-0.457-0.141-0.457c-0.938,0.047-1.535-0.352-1.793-1.195c-0.164-0.585-0.07-1.359,0.281-2.32
		c0.141-0.469,0.188-0.949,0.141-1.441c-0.07-0.422-0.293-0.515-0.668-0.281c-1.711,1.148-3.621,2.063-5.73,2.742
		c-0.445,0.164-0.762,0.118-0.949-0.141c-0.141-0.234,0.023-0.504,0.492-0.809c2.25-1.71,4.136-3.668,5.66-5.871
		C8.116,58.283,8.878,57.005,9.535,55.599z M12.734,60.064c-0.352,0-0.727,0.176-1.125,0.527c-0.492,0.469-1.008,0.902-1.547,1.301
		c-0.422,0.329-0.434,0.54-0.035,0.633c0.398,0.141,0.809,0.329,1.23,0.563c1.148,0.75,1.699,1.781,1.652,3.094
		c-0.047,0.375,0.164,0.34,0.633-0.105c1.781-1.781,3.152-3.586,4.113-5.414c0.211-0.398,0.141-0.598-0.211-0.598H12.734z
		 M20.539,71.49c-0.375,0-0.738,0.176-1.09,0.527c-0.797,0.75-1.582,1.418-2.355,2.004c-0.469,0.352-0.516,0.575-0.141,0.668
		c2.156,0.703,3.176,2.004,3.059,3.902c-0.07,0.399,0.082,0.422,0.457,0.07c2.086-1.992,3.609-4.184,4.57-6.574
		c0.117-0.398-0.012-0.598-0.387-0.598H20.539z"/>
	<path fill="#2E3F2E" d="M13.402,96.911c-0.047-0.469,0.164-0.668,0.633-0.598c1.921,0.211,3.633,0.516,5.133,0.914
		c0.469,0.211,0.703,0.387,0.703,0.527c0.023,0.281-0.211,0.516-0.703,0.703c-0.469,0.305-0.703,0.691-0.703,1.16
		c-0.023,0.75-0.094,1.547-0.211,2.391c-0.023,0.375,0.152,0.563,0.527,0.563h6.012c0.352,0,0.761-0.199,1.23-0.598
		c0.445-0.352,0.891-0.668,1.336-0.949c0.469-0.211,0.961-0.199,1.477,0.035c1.266,0.68,2.18,1.348,2.742,2.004
		c0.304,0.469,0.105,0.902-0.598,1.301c-0.399,0.329-0.575,0.738-0.527,1.23v5.59l0.07,14.063c-0.118,1.078-0.703,1.945-1.758,2.602
		c-1.219,0.703-2.438,1.137-3.656,1.301c-0.399-0.094-0.656-0.434-0.773-1.02c-0.118-0.867-0.364-1.57-0.738-2.109
		c-0.445-0.633-1.324-1.078-2.637-1.336c-0.445-0.094-0.668-0.329-0.668-0.703c0.023-0.305,0.316-0.445,0.879-0.422
		c0.539,0.023,1.09,0.07,1.652,0.141h2.074c0.796,0,1.113-0.352,0.949-1.055v-18.316c0-0.398-0.176-0.598-0.527-0.598h-6.645
		c-0.375,0-0.633,0.234-0.773,0.703c-0.094,0.375-0.223,0.75-0.387,1.125c-0.164,0.352-0.035,0.551,0.387,0.598
		c1.921,0.211,3.727,0.773,5.414,1.688c2.297,1.454,3.035,3.199,2.215,5.238c-0.54,0.844-1.301,1.208-2.285,1.09
		c-0.891-0.234-1.605-0.867-2.145-1.898c-0.891-1.875-2.203-3.468-3.938-4.781c-0.352-0.188-0.645-0.093-0.879,0.281
		c-0.352,0.586-0.821,1.184-1.406,1.793c-0.445,0.469-0.445,0.75,0,0.844c0.937,0.141,1.875,0.293,2.813,0.457
		c0.469,0.07,0.926,0.199,1.371,0.387c0.633,0.188,0.879,0.457,0.738,0.809c-0.118,0.281-0.434,0.469-0.949,0.563
		c-0.352,0.141-0.586,0.41-0.703,0.809c-0.047,0.211-0.118,0.434-0.211,0.668c-0.164,0.375-0.012,0.61,0.457,0.703
		c2.156,0.422,3.996,1.383,5.52,2.883c0.796,0.938,1.148,1.911,1.055,2.918c-0.118,1.195-0.715,1.957-1.793,2.285
		c-0.445,0.141-0.938,0.153-1.477,0.035c-0.492-0.093-0.938-0.422-1.336-0.984c-0.234-0.375-0.399-0.844-0.492-1.406
		c-0.188-1.57-0.856-2.976-2.004-4.219c-0.399-0.328-0.715-0.281-0.949,0.141c-0.445,0.844-1.09,1.758-1.934,2.742
		c-1.969,2.016-4.196,3.598-6.68,4.746c-0.469,0.211-0.797,0.199-0.984-0.035c-0.188-0.234-0.023-0.598,0.492-1.09
		c1.594-1.5,2.953-3.492,4.078-5.977c0.75-1.523,1.289-3.328,1.617-5.414c0.023-0.398-0.176-0.445-0.598-0.141
		c-1.359,1.078-3.094,2.051-5.203,2.918c-0.54,0.211-0.891,0.246-1.055,0.105c-0.188-0.188-0.281-0.093-0.281,0.281v8.965
		l0.07,4.184c0.093,0.773-0.305,1.218-1.195,1.336c-0.75,0.188-1.676,0.246-2.777,0.176c-0.797-0.07-1.102-0.527-0.914-1.371
		c0-1.617,0.035-3.247,0.105-4.887v-17.402c-0.023-1.359-0.118-2.695-0.281-4.008c-0.07-0.445,0.164-0.585,0.703-0.422
		c1.055,0.305,2.496,0.773,4.324,1.406h6.398c0.375,0,0.585-0.234,0.633-0.703C13.53,99.782,13.519,98.13,13.402,96.911z
		 M6.933,103.767c-0.375,0-0.563,0.188-0.563,0.563v8.965c0,0.375,0.234,0.375,0.703,0c1.57-1.313,2.871-2.789,3.902-4.43
		c1.125-1.758,1.828-3.27,2.109-4.535c0.047-0.375-0.105-0.563-0.457-0.563H6.933z"/>
	<path fill="#2E3F2E" d="M17.796,138.215c0.023-0.469,0.258-0.656,0.703-0.563c2.039,0.422,3.902,0.984,5.59,1.688
		c0.281,0.164,0.352,0.375,0.211,0.633c-0.141,0.328-0.469,0.516-0.984,0.563c-0.375,0.094-0.633,0.375-0.773,0.844
		c-0.211,0.797-0.504,1.699-0.879,2.707c-0.141,0.398-0.023,0.598,0.352,0.598h3.938c0.375,0,0.796-0.234,1.266-0.703l0.703-0.703
		c0.585-0.75,1.172-0.926,1.758-0.527c1.031,0.703,1.957,1.453,2.777,2.25c0.539,0.633,0.375,1.137-0.492,1.512
		c-0.469,0.352-0.703,0.703-0.703,1.055c0,5.719-0.445,11.156-1.336,16.313c-0.281,1.57-0.797,2.965-1.547,4.184
		c-0.727,1.031-1.605,1.746-2.637,2.145c-0.399,0.141-0.867,0.258-1.406,0.352c-0.68,0.094-1.195,0.012-1.547-0.246
		c-0.164-0.117-0.258-0.34-0.281-0.668c-0.023-0.469-0.07-0.938-0.141-1.406c-0.164-0.633-0.399-1.102-0.703-1.406
		c-0.633-0.469-1.441-0.914-2.426-1.336c-0.445-0.164-0.645-0.398-0.598-0.703c0.093-0.305,0.375-0.422,0.844-0.352
		c1.547,0.234,3.011,0.328,4.395,0.281c0.656-0.141,1.055-0.434,1.195-0.879c0.304-0.844,0.527-1.77,0.668-2.777
		c0.585-4.5,0.949-9.363,1.09-14.59c0-0.375-0.234-0.574-0.703-0.598h-3.41h-0.984c-0.469-0.023-0.809,0.199-1.02,0.668
		c-1.008,2.367-2.672,4.664-4.992,6.891c-0.445,0.398-0.727,0.539-0.844,0.422c-0.141-0.141-0.211-0.023-0.211,0.352v9.176
		l0.105,4.676c0.164,0.375-0.023,0.762-0.563,1.16c-1.125,0.352-2.238,0.457-3.34,0.316c-0.375-0.117-0.575-0.352-0.598-0.703
		v-1.301c0-0.398-0.188-0.598-0.563-0.598H6.406c-0.375,0-0.563,0.188-0.563,0.563v1.02c0,0.469-0.07,0.82-0.211,1.055
		c-0.188,0.281-0.527,0.457-1.02,0.527c-0.797,0.211-1.665,0.27-2.602,0.176c-0.633-0.234-0.867-0.727-0.703-1.477
		c0-1.805,0.035-3.633,0.105-5.484v-16.77c-0.023-0.914-0.07-1.828-0.141-2.742c-0.07-0.516,0.128-0.703,0.598-0.563
		c1.055,0.328,2.121,0.68,3.199,1.055c0.375,0.141,0.574-0.023,0.598-0.492c0-0.328,0.023-0.668,0.07-1.02v-2.039
		c-0.047-0.797-0.105-1.594-0.176-2.391c-0.07-0.469,0.128-0.668,0.598-0.598c1.594,0.258,3.152,0.633,4.676,1.125
		c0.563,0.188,0.855,0.445,0.879,0.773c-0.141,0.422-0.434,0.633-0.879,0.633c-0.375,0.047-0.656,0.27-0.844,0.668
		c-0.516,1.031-1.278,2.039-2.285,3.023c-0.399,0.375-0.41,0.563-0.035,0.563h1.863c0.375,0,0.785-0.234,1.23-0.703l0.563-0.598
		c0.515-0.398,0.996-0.527,1.441-0.387c0.796,0.422,1.71,1.09,2.742,2.004c0.445,0.352,0.598,0.668,0.457,0.949
		c-0.047,0.07-0.176,0.211-0.387,0.422l-0.352,0.281c-0.375,0.328-0.563,0.68-0.563,1.055v4.781c0,0.422,0.093,0.387,0.281-0.105
		C16.683,147.461,17.632,142.786,17.796,138.215z M6.335,145.668c-0.352,0-0.527,0.199-0.527,0.598v7.348
		c0,0.375,0.188,0.563,0.563,0.563h3.305c0.398,0,0.598-0.188,0.598-0.563v-7.348c0-0.398-0.188-0.598-0.563-0.598H6.335z
		 M6.335,155.372c-0.352,0-0.527,0.188-0.527,0.563v9.211c0,0.398,0.188,0.598,0.563,0.598h3.305c0.398,0,0.598-0.188,0.598-0.563
		v-9.246c0-0.375-0.188-0.563-0.563-0.563H6.335z M18.218,151.223c0.211-0.188,0.55-0.199,1.02-0.035
		c1.007,0.469,1.934,1.078,2.777,1.828c1.477,1.313,2.203,2.719,2.18,4.219c-0.047,1.195-0.54,2.063-1.477,2.602
		c-0.727,0.234-1.43,0.293-2.109,0.176c-0.469-0.141-0.844-0.516-1.125-1.125c-0.141-0.539-0.199-1.207-0.176-2.004
		c0.164-1.594-0.118-3.152-0.844-4.676C18.136,151.739,18.054,151.411,18.218,151.223z"/>
	<path fill="#2E3F2E" d="M5.105,179.852c0-0.469,0.234-0.668,0.703-0.598c2.109,0.281,3.738,0.633,4.887,1.055
		c0.164,0.023,0.281,0.129,0.352,0.316c-0.047,0.305-0.164,0.492-0.352,0.563c-0.422,0.164-0.75,0.328-0.984,0.492
		c-0.047,0.047-0.083,0.188-0.105,0.422c-0.211,1.406-0.445,2.824-0.703,4.254c-0.047,0.352,0.141,0.527,0.563,0.527
		s0.867-0.188,1.336-0.563c0.469-0.398,0.937-0.738,1.406-1.02c0.234-0.117,0.457-0.105,0.668,0.035
		c1.148,0.703,2.086,1.441,2.813,2.215c0.352,0.469,0.199,0.938-0.457,1.406c-0.281,0.258-0.434,0.504-0.457,0.738
		c-0.141,1.289-0.387,2.613-0.738,3.973c-0.094,0.375,0.047,0.563,0.422,0.563h4.746c0.375,0,0.563-0.176,0.563-0.527v-2.953
		c-0.023-0.82-0.083-1.711-0.176-2.672c-0.094-0.539,0.082-0.773,0.527-0.703l2.215,0.352c0.375,0.07,0.726-0.117,1.055-0.563
		c0.726-1.055,1.336-2.191,1.828-3.41c0.141-0.375,0.023-0.563-0.352-0.563h-6.645c-1.195,0.023-2.391,0.094-3.586,0.211
		c-0.516,0.023-0.879-0.176-1.09-0.598c-0.118-0.188-0.211-0.387-0.281-0.598c-0.211-0.422-0.035-0.609,0.527-0.563
		c1.429,0.188,3.516,0.293,6.258,0.316h3.445l1.441,0.035c0.375,0,0.68-0.094,0.914-0.281c0.891-0.609,1.582-1.055,2.074-1.336
		c0.328-0.328,0.68-0.34,1.055-0.035c1.148,0.727,2.18,1.547,3.094,2.461c0.422,0.328,0.445,0.668,0.07,1.02
		c-0.352,0.211-0.809,0.363-1.371,0.457c-0.234,0.023-0.469,0.141-0.703,0.352c-1.5,1.289-3.094,2.355-4.781,3.199
		c-0.375,0.188-0.329,0.34,0.141,0.457c0.539,0.164,0.715,0.516,0.527,1.055c-0.047,0.094-0.141,0.188-0.281,0.281
		c-0.118,0.094-0.223,0.164-0.316,0.211c-0.469,0.281-0.703,0.609-0.703,0.984v2.848c0,0.375,0.199,0.563,0.598,0.563
		c0.398,0,0.785-0.223,1.16-0.668c0.352-0.469,0.715-0.938,1.09-1.406c0.563-0.703,0.996-1.066,1.301-1.09
		c1.078,0.516,2.438,1.746,4.078,3.691c0.164,0.305,0.105,0.539-0.176,0.703c-0.118,0.047-0.387,0.07-0.809,0.07h-6.715
		c-0.375,0-0.563,0.188-0.563,0.563v11.602c-0.094,1.102-0.656,2.051-1.688,2.848c-1.008,0.656-2.168,1.09-3.48,1.301
		c-0.703,0.117-1.09-0.152-1.16-0.809c-0.094-0.938-0.305-1.758-0.633-2.461c-0.469-0.492-1.148-0.855-2.039-1.09
		c-0.492-0.117-0.715-0.281-0.668-0.492c0.023-0.234-0.035-0.141-0.176,0.281c-0.445,0.938-1.243,1.359-2.391,1.266
		c-1.102,0.047-1.781-0.586-2.039-1.898c-0.094-0.328-0.211-0.668-0.352-1.02c-0.258-0.469-0.504-0.504-0.738-0.105
		c-1.359,1.805-2.684,3.117-3.973,3.938c-1.219,0.82-2.449,1.488-3.691,2.004c-0.469,0.188-0.797,0.188-0.984,0
		c-0.188-0.234-0.047-0.563,0.422-0.984c2.695-2.531,4.617-5.355,5.766-8.473c0.117-0.375,0.035-0.738-0.246-1.09l-0.211-0.246
		c-0.422-0.398-0.656-0.457-0.703-0.176c0,0.258-0.141,0.492-0.422,0.703c-0.844,0.469-1.816,0.633-2.918,0.492
		c-0.844-0.047-1.395-0.27-1.652-0.668c-0.07-0.141-0.023-0.375,0.141-0.703c0.469-1.219,1.148-3.539,2.039-6.961
		c0.422-1.547,0.796-3.105,1.125-4.676c0.093-0.352-0.094-0.527-0.563-0.527l-1.371,0.105c-0.563,0.047-0.961-0.152-1.195-0.598
		l-0.105-0.211c-0.281-0.563-0.199-0.82,0.246-0.773c1.148,0.141,2.062,0.211,2.742,0.211c0.375,0,0.609-0.223,0.703-0.668
		C4.824,184.083,5.058,181.961,5.105,179.852z M9.078,188.149c-0.352,0-0.575,0.234-0.668,0.703c-0.61,3.164-1.336,6.34-2.18,9.527
		c-0.094,0.375,0.047,0.621,0.422,0.738l0.387,0.141c0.422,0.164,0.715,0.047,0.879-0.352c1.055-2.742,1.828-6.141,2.32-10.195
		c0.047-0.375-0.118-0.563-0.492-0.563H9.078z M14.14,195.567c-0.375,0-0.633,0.234-0.773,0.703
		c-0.516,1.688-1.032,3.141-1.547,4.359c-0.164,0.375-0.023,0.68,0.422,0.914c1.969,1.055,2.918,2.473,2.848,4.254
		c-0.023,0.352,0.199,0.551,0.668,0.598c1.031,0.117,2.25,0.141,3.656,0.07c0.328-0.117,0.445-0.434,0.352-0.949v-9.387
		c0-0.375-0.188-0.563-0.563-0.563H14.14z"/>
	<path fill="#2E3F2E" d="M24.757,221.508c0.234-0.117,0.585-0.059,1.055,0.176c0.867,0.516,1.793,1.148,2.777,1.898
		c0.961,0.656,0.937,1.348-0.07,2.074c-0.352,0.398-0.527,0.785-0.527,1.16v18.422l0.105,6.504c0.188,0.586-0.105,1.043-0.879,1.371
		c-1.359,0.281-2.637,0.328-3.832,0.141c-0.141-0.047-0.258-0.117-0.352-0.211c-0.211-0.281-0.316-0.645-0.316-1.09l0.035-1.582
		c0-0.492-0.188-0.738-0.563-0.738H10.589c-0.375,0-0.563,0.234-0.563,0.703v1.16c0.164,0.727-0.118,1.254-0.844,1.582
		c-1.594,0.422-2.965,0.445-4.113,0.07c-0.399-0.281-0.527-0.656-0.387-1.125c0.023-2.555,0.058-5.121,0.105-7.699v-17.367
		c-0.047-1.711-0.118-3.094-0.211-4.148c-0.023-0.445,0.199-0.621,0.668-0.527c1.64,0.398,3.305,0.891,4.992,1.477h11.496
		c0.375,0,0.785-0.234,1.23-0.703c0.398-0.422,0.82-0.832,1.266-1.23C24.394,221.708,24.569,221.602,24.757,221.508z
		 M10.589,225.165c-0.352,0-0.527,0.199-0.527,0.598v9.035c0,0.375,0.188,0.563,0.563,0.563h11.602c0.375,0,0.563-0.176,0.563-0.527
		v-9.07c0-0.398-0.188-0.598-0.563-0.598H10.589z M10.589,236.766c-0.352,0-0.527,0.188-0.527,0.563V247.7
		c0,0.398,0.188,0.598,0.563,0.598h11.602c0.375,0,0.563-0.188,0.563-0.563v-10.406c0-0.375-0.188-0.563-0.563-0.563H10.589z"/>
	<path fill="#2E3F2E" d="M24.441,262.376c0.234-0.234,0.55-0.258,0.949-0.07c0.891,0.563,1.816,1.289,2.777,2.18
		c0.585,0.469,1.007,0.902,1.266,1.301c0.304,0.422,0.211,0.75-0.281,0.984c-0.375,0.141-0.727,0.211-1.055,0.211
		c-0.422,0-0.738,0.082-0.949,0.246c-2.157,1.406-4.395,2.578-6.715,3.516c-0.375,0.164-0.516,0.27-0.422,0.316
		c0.585,0.609,0.41,1.102-0.527,1.477c-0.375,0.211-0.563,0.492-0.563,0.844v3.305c0,0.375,0.188,0.563,0.563,0.563h5.555
		c0.375,0,0.738-0.234,1.09-0.703c0.609-0.773,1.218-1.465,1.828-2.074c0.304-0.422,0.691-0.516,1.16-0.281
		c1.148,0.82,2.273,1.781,3.375,2.883c0.539,0.586,0.585,1.066,0.141,1.441c-0.07,0.047-0.34,0.07-0.809,0.07H19.519
		c-0.399,0-0.598,0.188-0.598,0.563v10.23c-0.07,1.055-0.34,1.98-0.809,2.777c-0.352,0.516-0.786,0.938-1.301,1.266
		c-1.078,0.727-2.297,1.137-3.656,1.23c-0.469,0-0.762-0.023-0.879-0.07c-0.234-0.117-0.375-0.258-0.422-0.422
		c-0.141-1.195-0.516-2.355-1.125-3.48c-0.375-0.539-0.691-0.832-0.949-0.879c-0.984-0.422-1.898-0.715-2.742-0.879
		c-0.445-0.094-0.645-0.34-0.598-0.738c0.07-0.375,0.339-0.563,0.809-0.563c0.796,0,1.617,0.023,2.461,0.07h3.34
		c0.375-0.094,0.574-0.316,0.598-0.668v-7.84c0-0.375-0.188-0.563-0.563-0.563H4.683c-1.125,0.047-2.262,0.117-3.41,0.211
		c-0.469,0.047-0.797-0.176-0.984-0.668l-0.211-0.668c-0.188-0.469-0.035-0.668,0.457-0.598c1.898,0.234,3.867,0.363,5.906,0.387
		h6.609c0.398,0,0.598-0.188,0.598-0.563v-2.32c-0.047-1.523-0.129-2.871-0.246-4.043c-0.047-0.469,0.188-0.656,0.703-0.563
		l3.656,0.738c0.398,0.07,0.809-0.105,1.23-0.527c1.125-1.148,2.039-2.367,2.742-3.656c0.188-0.398,0.093-0.598-0.281-0.598H7.917
		c-1.102,0.07-2.203,0.164-3.305,0.281c-0.469,0.07-0.786-0.129-0.949-0.598l-0.316-0.844c-0.188-0.445-0.023-0.633,0.492-0.563
		c1.898,0.234,3.75,0.387,5.555,0.457h12.164c0.352,0,0.761-0.234,1.23-0.703C23.304,263.267,23.855,262.798,24.441,262.376z"/>
	<path fill="#2E3F2E" d="M15.652,313.553c1.945-0.305,3.668,0.141,5.168,1.336c0.891,0.75,1.523,1.652,1.898,2.707
		c0.492,1.289,0.504,2.742,0.035,4.359c-0.563,1.641-1.641,2.859-3.234,3.656c-2.039,0.844-3.985,0.785-5.836-0.176
		c-0.891-0.445-1.711-1.23-2.461-2.355c-0.938-1.781-1.067-3.633-0.387-5.555c0.304-1.008,0.984-1.945,2.039-2.813
		C13.695,314.104,14.62,313.717,15.652,313.553z M17.445,317.561c-0.727-0.094-1.359-0.035-1.898,0.176
		c-0.563,0.328-0.879,0.75-0.949,1.266c-0.141,0.656-0.129,1.23,0.035,1.723c0.188,0.586,0.539,0.961,1.055,1.125
		c0.445,0.211,0.984,0.258,1.617,0.141c1.148-0.188,1.734-0.902,1.758-2.145c0-0.539-0.118-1.008-0.352-1.406
		C18.452,317.971,18.03,317.678,17.445,317.561z"/>
</g>
</svg>
