<?xml version="1.0" encoding="utf-8"?>
<!-- Generator: Adobe Illustrator 16.0.0, SVG Export Plug-In . SVG Version: 6.00 Build 0)  -->
<!DOCTYPE svg PUBLIC "-//W3C//DTD SVG 1.1//EN" "http://www.w3.org/Graphics/SVG/1.1/DTD/svg11.dtd">
<svg version="1.1" id="圖層_1" xmlns="http://www.w3.org/2000/svg" xmlns:xlink="http://www.w3.org/1999/xlink" x="0px" y="0px"
	 width="216.29px" height="44.118px" viewBox="0 0 216.29 44.118" enable-background="new 0 0 216.29 44.118" xml:space="preserve">
<g>
	<path fill="#FFFFFF" d="M9.266,1.134c0.125-0.625,0.5-0.859,1.125-0.703l3.656,1.078c1.812,0.532,3.078,1.063,3.797,1.594
		c0.094,0.656-0.234,1.016-0.984,1.078c-0.532,0.25-0.907,0.656-1.125,1.219c-0.907,2.469-1.938,4.781-3.094,6.938
		c-0.281,0.469-0.125,0.844,0.469,1.125c1.094,0.344,1.25,0.907,0.469,1.688c-0.594,0.5-0.891,1-0.891,1.5v18l0.141,7.453
		c0.031,0.406-0.047,0.766-0.234,1.078c-0.406,0.375-1.016,0.625-1.828,0.75c-1.156,0.188-2.328,0.234-3.516,0.141
		c-1.031-0.188-1.453-0.719-1.266-1.594c0.031-2.844,0.078-5.735,0.141-8.672V21.853c0-0.5-0.234-0.516-0.703-0.047
		c-1.657,1.563-2.984,2.688-3.984,3.375c-0.625,0.438-1.047,0.532-1.266,0.281c-0.281-0.25-0.219-0.687,0.188-1.313
		C4.891,16.994,7.86,9.321,9.266,1.134z M29,1.274c-0.031-0.625,0.265-0.906,0.891-0.844c3.188,0.438,5.5,0.891,6.938,1.359
		c0.938,0.313,0.968,0.813,0.094,1.5c-0.594,0.438-0.891,0.907-0.891,1.406v6.422c0,0.594,0.188,0.547,0.563-0.141
		c0.625-1.062,1.266-2.14,1.922-3.234c0.593-0.719,0.953-1.078,1.078-1.078c0.531,0.344,1.188,1.125,1.969,2.344
		c1.188,1.657,1.922,2.938,2.203,3.844c0.031,0.157-0.016,0.313-0.141,0.469c-0.188,0.219-0.609,0.297-1.266,0.234h-5.625
		c-0.5,0-0.75,0.25-0.75,0.75v22.922c-0.031,0.531-0.157,1.141-0.375,1.828c-0.469,1.375-1.422,2.515-2.859,3.422
		c-1.219,0.625-2.469,1.015-3.75,1.172c-1,0.188-1.5-0.281-1.5-1.406c-0.063-0.844-0.281-1.766-0.656-2.766
		c-0.375-0.813-0.891-1.329-1.547-1.547c-0.75-0.375-1.766-0.766-3.047-1.172c-0.594-0.219-0.86-0.516-0.797-0.891
		c0.063-0.438,0.391-0.64,0.984-0.609c2.313,0.094,4.422,0.125,6.328,0.094c0.406-0.156,0.546-0.563,0.422-1.219V14.306
		c0-0.5-0.234-0.75-0.703-0.75h-7.031c-2,0.063-3.734,0.157-5.203,0.281c-0.625,0.063-1.125-0.265-1.5-0.984
		c-0.063-0.156-0.125-0.312-0.188-0.469c-0.344-0.687-0.219-1,0.375-0.938c2,0.219,4.031,0.344,6.094,0.375h7.453
		c0.5,0,0.75-0.25,0.75-0.75V6.337C29.204,3.837,29.125,2.149,29,1.274z M17.329,18.806c0.25-0.281,0.672-0.328,1.266-0.141
		c1.437,0.563,2.656,1.188,3.656,1.875c3.656,2.563,4.797,5.266,3.422,8.109c-0.281,0.594-0.828,1.078-1.641,1.453
		c-1.75,0.625-3.11,0.328-4.078-0.891c-0.313-0.687-0.5-1.313-0.563-1.875c0-2.719-0.609-5.14-1.828-7.266
		C17.188,19.446,17.11,19.024,17.329,18.806z"/>
	<path fill="#FFFFFF" d="M75.772,21.618c0.531-0.593,1.031-0.687,1.5-0.281c1.375,1.031,2.703,2.266,3.984,3.703
		c0.313,0.281,0.359,0.625,0.141,1.031c-0.156,0.188-0.547,0.281-1.172,0.281H73.85c-0.531,0-0.797,0.25-0.797,0.75v11.531
		c-0.094,1.375-0.844,2.547-2.25,3.516c-1.469,0.938-3.016,1.547-4.641,1.828c-0.563,0.125-0.969-0.11-1.219-0.703l-0.234-1.875
		c-0.031-1.375-0.766-2.375-2.203-3c-0.625-0.219-0.938-0.532-0.938-0.938c0.031-0.469-0.204-0.453-0.703,0.047
		c-0.532,0.531-1.125,1.047-1.781,1.547c-0.625,0.438-1.063,0.593-1.313,0.469c-0.25-0.157-0.406-0.266-0.469-0.328
		c1.5-3.781,2.219-7.422,2.156-10.922c0-0.625,0.312-0.859,0.938-0.703c1.25,0.406,2.484,0.828,3.703,1.266
		c0.625,0.219,1.266,0.469,1.922,0.75c0.5,0.313,0.75,0.219,0.75-0.281v-1.969c0.031-0.625-0.203-0.938-0.703-0.938h-3.234
		c-1.094,0.031-2.172,0.078-3.234,0.141c-0.656,0.063-1.156-0.234-1.5-0.891l-0.234-0.469c-0.281-0.593-0.11-0.859,0.516-0.797
		c2.093,0.188,3.859,0.328,5.296,0.422h8.625c0.5,0,0.984-0.297,1.453-0.891C74.381,23.103,75.053,22.337,75.772,21.618z
		 M65.788,1.087c-0.094-0.687,0.141-1,0.703-0.938c2.75,0.313,5.047,0.703,6.891,1.172c0.594,0.313,0.906,0.547,0.938,0.703
		c-0.156,0.532-0.578,0.907-1.266,1.125c-0.531,0.313-0.797,0.703-0.797,1.172v1.641c0,0.5,0.172,0.75,0.516,0.75
		s0.734-0.312,1.172-0.938l1.406-1.828c0.625-0.875,1.141-1.281,1.547-1.219c0.438,0.094,0.969,0.485,1.594,1.172
		c1.656,1.344,2.766,2.594,3.328,3.75c0,0.094-0.047,0.234-0.141,0.422c-0.219,0.188-0.641,0.281-1.266,0.281h-7.406
		c-0.531,0-0.797,0.25-0.797,0.75v3.469c0,0.5,0.063,0.766,0.188,0.797c0.094,0,0.313-0.281,0.656-0.844l1.5-2.109
		c0.594-0.625,0.953-0.938,1.078-0.938c0.313,0.031,0.703,0.25,1.172,0.656c1.156,1.063,2.109,2.125,2.859,3.188
		c0.313,0.438,0.469,0.766,0.469,0.984c0.063,0.219-0.063,0.406-0.375,0.563c-0.063,0.031-0.406,0.047-1.031,0.047H63.584
		l-2.578,0.141c-0.688,0.031-1.188-0.234-1.5-0.797l-0.188-0.375c-0.375-0.75-0.266-1.078,0.328-0.984
		c1.844,0.313,3.703,0.469,5.578,0.469c0.531,0,0.797-0.25,0.797-0.75V9.103c0-0.5-0.25-0.75-0.75-0.75h-2.625
		c-1.063,0-2.141,0.031-3.234,0.094c-0.719,0.063-1.235-0.188-1.547-0.75l-0.188-0.375c-0.375-0.75-0.25-1.094,0.375-1.031
		c2.438,0.281,4.828,0.422,7.171,0.422c0.531,0,0.797-0.25,0.797-0.75C66.022,4.274,65.944,2.65,65.788,1.087z M73.475,16.368
		c0.656-0.593,1.031-0.891,1.125-0.891c0.5,0.094,1.141,0.516,1.922,1.266c1,0.969,1.766,1.766,2.297,2.391
		c0.531,0.532,0.625,1,0.281,1.406c-0.125,0.094-0.5,0.141-1.125,0.141H64.288c-0.75,0.031-1.5,0.078-2.25,0.141
		c-0.688,0.063-1.188-0.218-1.5-0.844l-0.188-0.375c-0.344-0.75-0.204-1.078,0.422-0.984c1.812,0.25,3.578,0.422,5.296,0.516h4.406
		c0.5,0,0.984-0.312,1.453-0.938C72.397,17.571,72.913,16.962,73.475,16.368z M66.725,31.743c0-0.438-0.266-0.563-0.797-0.375
		c-0.594,0.094-1.031,0.422-1.313,0.984c-0.563,1.219-1.328,2.422-2.296,3.609c-0.438,0.5-0.359,0.781,0.234,0.844h2.625
		l0.938-0.094c0.406-0.094,0.609-0.312,0.609-0.656v-3.563C66.756,32.243,66.756,31.994,66.725,31.743z M73.709,28.837
		c0.219-0.281,0.641-0.328,1.266-0.141c1.156,0.344,2.391,1.016,3.703,2.016c2.375,1.844,2.813,3.907,1.313,6.188
		c-0.969,0.844-2.125,1.156-3.469,0.938c-0.5-0.031-0.953-0.313-1.359-0.844c-0.469-0.781-0.563-1.781-0.281-3
		c0.063-1.406-0.188-2.672-0.75-3.797C73.631,29.571,73.491,29.118,73.709,28.837z M83.038,0.899
		c0.063-0.625,0.406-0.859,1.031-0.703c3.313,0.719,5.766,1.422,7.359,2.109c0.281,0.094,0.438,0.281,0.469,0.563
		c-0.125,0.532-0.406,0.828-0.844,0.891l-0.656,0.234c-0.531,0.157-0.906,0.547-1.125,1.172c-0.375,1.219-0.891,2.469-1.547,3.75
		c-0.25,0.532-0.109,0.797,0.422,0.797h3.656c0.5,0,1.047-0.312,1.641-0.938c0.563-0.625,1.156-1.203,1.781-1.734
		c0.438-0.375,0.891-0.422,1.359-0.141c1.313,0.75,2.703,1.797,4.172,3.141c1.031,1.344,0.594,2.156-1.313,2.438
		c-0.531,0.094-0.938,0.375-1.219,0.844c-1,1.657-2.406,3.297-4.219,4.922c-0.594,0.532-1.047,0.75-1.359,0.656l-0.609-0.281
		c-0.063-0.094-0.281-0.047-0.656,0.141c-0.438,0.157-0.656,0.453-0.656,0.891c0,3.563,1.219,7.235,3.656,11.016
		c1.688,2.407,3.688,4.063,6,4.969c0.625,0.219,0.906,0.485,0.844,0.797c0,0.5-0.219,0.766-0.656,0.797
		c-0.188,0.094-0.422,0.297-0.703,0.609c-0.688,1.188-1.109,2.734-1.266,4.641c-0.438,1.781-1.469,1.812-3.094,0.094
		c-1.969-2.219-3.359-4.704-4.172-7.453c-0.75-2.375-1.203-4.984-1.359-7.828c-0.063-0.5-0.156-0.438-0.281,0.188
		c-0.375,2.344-1.203,4.734-2.484,7.172c-2.688,4.781-6.422,7.828-11.203,9.141c-0.594,0.156-1.016,0.094-1.266-0.188
		c-0.188-0.25,0.031-0.609,0.656-1.078c2.688-2.063,4.688-4.547,6-7.453c1.125-2.468,1.906-4.953,2.344-7.453
		c0.656-3.719,0.859-7.547,0.609-11.484c-0.063-0.593,0.266-0.813,0.984-0.656c1.219,0.188,2.453,0.422,3.703,0.703
		c0.813,0.125,1.641,0.328,2.484,0.609c0.5,0.188,0.813-0.031,0.938-0.656c0.219-1.437,0.344-2.781,0.375-4.031
		c0.031-0.563-0.172-0.844-0.609-0.844H87.35c-0.5,0-0.938,0.313-1.313,0.938c-1.406,2.313-3.203,4.453-5.391,6.422
		c-0.625,0.563-1.094,0.75-1.406,0.563c-0.344-0.281-0.375-0.734-0.094-1.359c2.063-4.781,3.297-9.64,3.703-14.578L83.038,0.899z"/>
	<path fill="#FFFFFF" d="M137.451,0.853c-0.094-0.625,0.156-0.906,0.75-0.844c3.25,0.406,5.75,0.907,7.5,1.5
		c0.625,0.188,0.734,0.579,0.328,1.172c-0.313,0.188-0.625,0.344-0.938,0.469c-0.594,0.469-0.891,0.954-0.891,1.453v3.797
		c0.031,0.188,0.047,0.391,0.047,0.609c0.031,0.5,0.297,0.75,0.797,0.75h3.563c0.469,0,0.984-0.312,1.547-0.938
		c0.563-0.625,0.531-1.031-0.094-1.219c-0.688-0.375-1.094-0.938-1.219-1.688c-0.156-0.625-0.344-1.25-0.563-1.875
		c-0.188-0.844-0.703-1.578-1.547-2.203c-0.688-0.375-0.969-0.719-0.844-1.031c0.156-0.344,0.516-0.531,1.078-0.563
		c2.5-0.031,4.469,0.359,5.906,1.172c1.594,1.063,2.078,2.516,1.453,4.359c-0.25,0.469-0.109,0.891,0.422,1.266
		c1.094,0.719,2.25,1.672,3.469,2.859c0.469,0.625,0.453,1.109-0.047,1.453c-0.094,0.031-0.453,0.047-1.078,0.047h-11.953
		c-0.5,0-0.75,0.313-0.75,0.938c0.281,4.469,0.813,8.047,1.594,10.734c0.156,0.5,0.391,0.438,0.703-0.188
		c1.344-2.656,2.313-5.203,2.906-7.641c0.219-0.719,0.609-0.938,1.172-0.656l3.656,2.063c1.156,0.656,2.078,1.297,2.766,1.922
		c0.375,0.844,0.047,1.282-0.984,1.313l-0.656,0.047c-0.469,0.094-0.828,0.406-1.078,0.938c-1.031,2.531-2.656,5.266-4.875,8.203
		c-0.438,0.563-0.531,1.094-0.281,1.594c1.219,1.906,2.453,3.297,3.703,4.172c0.688,0.656,1.203,0.453,1.547-0.609
		c0.625-1.281,1.188-2.796,1.688-4.547c0.188-0.625,0.484-0.906,0.891-0.844c0.406,0.094,0.578,0.453,0.516,1.078
		c-0.219,1.781-0.406,3.579-0.563,5.391c-0.281,1.5,0.25,3.094,1.594,4.781c0.563,1.219,0.406,2.313-0.469,3.281
		c-1.125,0.625-2.484,0.719-4.078,0.281c-3.844-1.313-7.047-4.125-9.609-8.438c-0.313-0.531-0.734-0.578-1.266-0.141
		c-4.219,3.25-8.703,5.531-13.453,6.844c-0.688,0.156-1.156,0.078-1.406-0.234c-0.219-0.344-0.016-0.703,0.609-1.078
		c4.781-2.625,8.828-5.859,12.141-9.703c0.375-0.5,0.422-1.047,0.141-1.641c-2.156-5.25-3.25-10.953-3.281-17.109
		c0-0.531-0.25-0.797-0.75-0.797h-10.922c-0.531,0-0.797,0.25-0.797,0.75v5.625c0,0.532,0.25,0.797,0.75,0.797h3.375
		c0.469,0,0.859-0.125,1.172-0.375c0.906-0.719,1.781-1.343,2.625-1.875c0.656-0.218,1.641,0.25,2.953,1.406
		c0.625,0.5,1.219,1.063,1.781,1.688c0.375,0.375,0.359,0.75-0.047,1.125c-0.219,0.188-0.453,0.344-0.703,0.469
		c-0.406,0.188-0.641,0.469-0.703,0.844c-0.031,2.844-0.266,5.469-0.703,7.875c-0.406,2.656-1.328,4.453-2.766,5.391
		c-1,0.75-2.172,1.172-3.516,1.266c-0.469,0.063-0.828,0-1.078-0.188c-0.25-0.218-0.391-0.563-0.422-1.031
		c-0.031-0.875-0.219-1.812-0.563-2.813c-0.406-0.906-1.031-1.469-1.875-1.688c-0.594-0.125-0.828-0.406-0.703-0.844
		c0.125-0.406,0.5-0.578,1.125-0.516c0.75,0.125,1.531,0.204,2.344,0.234c1.031,0.188,1.563-0.171,1.594-1.078
		c0.281-2.063,0.453-4.516,0.516-7.359c0-0.531-0.25-0.797-0.75-0.797h-3.656c-0.531,0-0.797,0.25-0.797,0.75v3.891
		c-0.063,2.563-0.453,5.079-1.172,7.547c-0.75,2.531-2.078,5-3.984,7.406c-1.219,1.531-2.391,2.656-3.516,3.375
		c-0.625,0.344-1.078,0.422-1.359,0.234c-0.281-0.25-0.281-0.688,0-1.313c1.188-2.438,1.984-4.859,2.391-7.266
		c0.813-4.156,1.25-8.281,1.313-12.375v-8.859c-0.063-1.844-0.203-3.64-0.422-5.391c-0.063-0.593,0.25-0.797,0.938-0.609
		c2.031,0.625,4.125,1.359,6.281,2.203h11.25c0.469,0,0.703-0.328,0.703-0.984C137.857,5.462,137.701,2.791,137.451,0.853z"/>
	<path fill="#FFFFFF" d="M186.894,4.837c0.625-0.656,1.016-0.984,1.172-0.984c0.469,0.125,1.172,0.656,2.109,1.594
		c0.813,0.75,1.625,1.563,2.438,2.438c0.625,0.532,0.75,1.016,0.375,1.453c-0.188,0.157-0.578,0.234-1.172,0.234h-4.828
		c-0.5,0-0.75,0.234-0.75,0.703v15.047c0,0.5,0.313,0.703,0.938,0.609c1.688-0.344,3.359-0.719,5.016-1.125
		c0.625-0.156,0.984-0.047,1.078,0.328s-0.141,0.797-0.703,1.266c-4.094,3.406-8.781,6.078-14.063,8.016
		c-0.469,0.188-0.734,0.547-0.797,1.078c-0.031,0.781-0.25,1.25-0.656,1.406c-0.406,0.25-0.813-0.063-1.219-0.938
		c-1-2.156-2.031-4.625-3.094-7.406c-0.25-0.656-0.063-1,0.563-1.031c1.656-0.031,3.438-0.156,5.344-0.375
		c0.531-0.063,0.797-0.344,0.797-0.844V10.415c0-0.5-0.313-0.75-0.938-0.75c-1.031,0.031-2.078,0.094-3.141,0.188
		c-0.594,0.063-1.063-0.218-1.406-0.844l-0.328-0.609c-0.313-0.593-0.125-0.828,0.563-0.703c1.406,0.188,2.813,0.313,4.219,0.375
		h5.109c0.5,0,1-0.312,1.5-0.938C185.582,6.384,186.207,5.618,186.894,4.837z M196.503,0.899c-0.063-0.625,0.219-0.906,0.844-0.844
		c3.094,0.375,5.563,0.813,7.406,1.313c1,0.375,1.063,0.86,0.188,1.453l-0.422,0.141c-0.5,0.313-0.75,0.719-0.75,1.219v6.75
		c0,0.5,0.25,0.75,0.75,0.75h2.25c0.5,0,1.063-0.297,1.688-0.891l1.875-1.734c0.406-0.469,0.859-0.5,1.359-0.094
		c0.844,0.532,2.078,1.469,3.703,2.813c1.031,0.656,1.172,1.329,0.422,2.016l-0.422,0.328c-0.469,0.469-0.703,0.954-0.703,1.453
		c-0.031,6.344-0.406,12.359-1.125,18.047c-0.25,2.407-1.063,4.718-2.438,6.938c-1.844,1.875-4.094,2.906-6.75,3.094
		c-0.625,0.125-1.109-0.125-1.453-0.75c-0.156-0.25-0.188-0.719-0.094-1.406c0.281-1.25-0.375-2.407-1.969-3.469
		c-0.688-0.469-1.594-0.938-2.719-1.406c-0.625-0.218-0.875-0.546-0.75-0.984c0.156-0.406,0.547-0.578,1.172-0.516
		c1.5,0.219,3.188,0.391,5.063,0.516c0.656,0.031,1.125,0,1.406-0.094c0.594-0.188,0.984-0.578,1.172-1.172
		c0.813-4.188,1.344-11,1.594-20.438c0-0.5-0.25-0.75-0.75-0.75h-2.719c-0.5,0-0.75,0.25-0.75,0.75c0,2.594-0.25,5.313-0.75,8.156
		c-0.563,2.656-1.391,5.125-2.484,7.406c-1.25,2.688-3.344,5.422-6.281,8.203c-3.031,2.781-6.125,4.797-9.281,6.047
		c-0.656,0.25-1.109,0.234-1.359-0.047c-0.281-0.25-0.078-0.703,0.609-1.359c2.938-2.844,5.203-5.531,6.797-8.063
		c4-6.406,5.984-13.172,5.953-20.297c0-0.5-0.25-0.75-0.75-0.75c-1.75,0.031-3.422,0.125-5.016,0.281
		c-0.594,0.063-1.063-0.25-1.406-0.938l-0.234-0.469c-0.344-0.625-0.203-0.891,0.422-0.797c1.938,0.281,4,0.406,6.188,0.375
		c0.531,0,0.797-0.25,0.797-0.75V7.134C196.753,4.821,196.66,2.744,196.503,0.899z"/>
</g>
</svg>
